<svg width="755" height="142" viewBox="0 0 755 142" fill="none" xmlns="http://www.w3.org/2000/svg">
<path d="M10.2656 119.773V121H1.65625V119.773H10.2656ZM1.89844 119.773V123.797H0.40625L0.398438 119.773H1.89844ZM11.5781 119.773L11.5625 123.789H10.0703V119.773H11.5781ZM8.78906 109.625V110.859H3.80469V109.625H8.78906ZM10.0859 109.625V121H8.58594V109.625H10.0859ZM3.28906 109.625H4.79688L4.5625 114.203C4.53125 114.891 4.46615 115.526 4.36719 116.109C4.26823 116.688 4.14583 117.216 4 117.695C3.85417 118.174 3.6875 118.604 3.5 118.984C3.3125 119.359 3.11198 119.685 2.89844 119.961C2.6849 120.232 2.46094 120.456 2.22656 120.633C1.9974 120.805 1.76562 120.927 1.53125 121H0.84375V119.773H1.32812C1.46354 119.628 1.61719 119.417 1.78906 119.141C1.96615 118.865 2.14062 118.508 2.3125 118.07C2.48958 117.628 2.64323 117.089 2.77344 116.453C2.90885 115.818 3 115.068 3.04688 114.203L3.28906 109.625ZM16.6406 121.156C16.0521 121.156 15.5182 121.057 15.0391 120.859C14.5651 120.656 14.1562 120.372 13.8125 120.008C13.474 119.643 13.2135 119.211 13.0312 118.711C12.849 118.211 12.7578 117.664 12.7578 117.07V116.742C12.7578 116.055 12.8594 115.443 13.0625 114.906C13.2656 114.365 13.5417 113.906 13.8906 113.531C14.2396 113.156 14.6354 112.872 15.0781 112.68C15.5208 112.487 15.9792 112.391 16.4531 112.391C17.0573 112.391 17.5781 112.495 18.0156 112.703C18.4583 112.911 18.8203 113.203 19.1016 113.578C19.3828 113.948 19.5911 114.385 19.7266 114.891C19.862 115.391 19.9297 115.938 19.9297 116.531V117.18H13.6172V116H18.4844V115.891C18.4635 115.516 18.3854 115.151 18.25 114.797C18.1198 114.443 17.9115 114.151 17.625 113.922C17.3385 113.693 16.9479 113.578 16.4531 113.578C16.125 113.578 15.8229 113.648 15.5469 113.789C15.2708 113.924 15.0339 114.128 14.8359 114.398C14.638 114.669 14.4844 115 14.375 115.391C14.2656 115.781 14.2109 116.232 14.2109 116.742V117.07C14.2109 117.471 14.2656 117.849 14.375 118.203C14.4896 118.552 14.6536 118.859 14.8672 119.125C15.0859 119.391 15.349 119.599 15.6562 119.75C15.9688 119.901 16.3229 119.977 16.7188 119.977C17.2292 119.977 17.6615 119.872 18.0156 119.664C18.3698 119.456 18.6797 119.177 18.9453 118.828L19.8203 119.523C19.638 119.799 19.4062 120.062 19.125 120.312C18.8438 120.562 18.4974 120.766 18.0859 120.922C17.6797 121.078 17.1979 121.156 16.6406 121.156ZM27.25 112.547V113.742H22.9766V112.547H27.25ZM23.1875 112.547V121H21.7422V112.547H23.1875ZM28.5312 112.547V121H27.0781V112.547H28.5312ZM30.4688 116.867V116.688C30.4688 116.078 30.5573 115.513 30.7344 114.992C30.9115 114.466 31.1667 114.01 31.5 113.625C31.8333 113.234 32.237 112.932 32.7109 112.719C33.1849 112.5 33.7161 112.391 34.3047 112.391C34.8984 112.391 35.4323 112.5 35.9062 112.719C36.3854 112.932 36.7917 113.234 37.125 113.625C37.4635 114.01 37.7214 114.466 37.8984 114.992C38.0755 115.513 38.1641 116.078 38.1641 116.688V116.867C38.1641 117.477 38.0755 118.042 37.8984 118.562C37.7214 119.083 37.4635 119.539 37.125 119.93C36.7917 120.315 36.388 120.617 35.9141 120.836C35.4453 121.049 34.9141 121.156 34.3203 121.156C33.7266 121.156 33.1927 121.049 32.7188 120.836C32.2448 120.617 31.8385 120.315 31.5 119.93C31.1667 119.539 30.9115 119.083 30.7344 118.562C30.5573 118.042 30.4688 117.477 30.4688 116.867ZM31.9141 116.688V116.867C31.9141 117.289 31.9635 117.688 32.0625 118.062C32.1615 118.432 32.3099 118.76 32.5078 119.047C32.7109 119.333 32.9635 119.56 33.2656 119.727C33.5677 119.888 33.9193 119.969 34.3203 119.969C34.7161 119.969 35.0625 119.888 35.3594 119.727C35.6615 119.56 35.9115 119.333 36.1094 119.047C36.3073 118.76 36.4557 118.432 36.5547 118.062C36.6589 117.688 36.7109 117.289 36.7109 116.867V116.688C36.7109 116.271 36.6589 115.878 36.5547 115.508C36.4557 115.133 36.3047 114.802 36.1016 114.516C35.9036 114.224 35.6536 113.995 35.3516 113.828C35.0547 113.661 34.7057 113.578 34.3047 113.578C33.9089 113.578 33.5599 113.661 33.2578 113.828C32.9609 113.995 32.7109 114.224 32.5078 114.516C32.3099 114.802 32.1615 115.133 32.0625 115.508C31.9635 115.878 31.9141 116.271 31.9141 116.688ZM43.1328 116.961H41.5781V116.07H43.0156C43.4167 116.07 43.7344 116.021 43.9688 115.922C44.2031 115.818 44.3698 115.674 44.4688 115.492C44.5677 115.31 44.6172 115.096 44.6172 114.852C44.6172 114.633 44.5599 114.427 44.4453 114.234C44.3359 114.036 44.1589 113.878 43.9141 113.758C43.6693 113.633 43.3411 113.57 42.9297 113.57C42.5964 113.57 42.2943 113.63 42.0234 113.75C41.7526 113.865 41.5365 114.023 41.375 114.227C41.2188 114.424 41.1406 114.648 41.1406 114.898H39.6953C39.6953 114.383 39.8411 113.94 40.1328 113.57C40.4297 113.195 40.8229 112.906 41.3125 112.703C41.8073 112.5 42.3464 112.398 42.9297 112.398C43.4193 112.398 43.8568 112.453 44.2422 112.562C44.6328 112.667 44.9635 112.823 45.2344 113.031C45.5052 113.234 45.7109 113.49 45.8516 113.797C45.9974 114.099 46.0703 114.451 46.0703 114.852C46.0703 115.138 46.0026 115.409 45.8672 115.664C45.7318 115.919 45.5365 116.146 45.2812 116.344C45.026 116.536 44.7161 116.688 44.3516 116.797C43.9922 116.906 43.5859 116.961 43.1328 116.961ZM41.5781 116.414H43.1328C43.638 116.414 44.0833 116.464 44.4688 116.562C44.8542 116.656 45.1771 116.797 45.4375 116.984C45.6979 117.172 45.8932 117.404 46.0234 117.68C46.1589 117.951 46.2266 118.263 46.2266 118.617C46.2266 119.013 46.1458 119.37 45.9844 119.688C45.8281 120 45.6042 120.266 45.3125 120.484C45.0208 120.703 44.6719 120.87 44.2656 120.984C43.8646 121.099 43.4193 121.156 42.9297 121.156C42.3828 121.156 41.8516 121.062 41.3359 120.875C40.8203 120.688 40.3958 120.398 40.0625 120.008C39.7292 119.612 39.5625 119.109 39.5625 118.5H41.0078C41.0078 118.755 41.0885 118.997 41.25 119.227C41.4115 119.456 41.6354 119.641 41.9219 119.781C42.2135 119.922 42.5495 119.992 42.9297 119.992C43.3359 119.992 43.6745 119.93 43.9453 119.805C44.2161 119.68 44.4193 119.513 44.5547 119.305C44.6953 119.096 44.7656 118.87 44.7656 118.625C44.7656 118.307 44.7031 118.052 44.5781 117.859C44.4531 117.667 44.2604 117.526 44 117.438C43.7448 117.344 43.4167 117.297 43.0156 117.297H41.5781V116.414ZM49.6641 118.711L53.5625 112.547H55.0156V121H53.5625V114.836L49.6641 121H48.2266V112.547H49.6641V118.711ZM60.7812 112.547V121H59.3281V112.547H60.7812ZM63.6172 112.547V113.719H56.5469V112.547H63.6172Z" fill="black"/>
<path d="M3.54492 25.3887L1.66992 24.9297L2.44141 17.7812H10.1074V19.7734H4.39453L4.00391 23.2598C4.22526 23.1296 4.53125 23.0026 4.92188 22.8789C5.3125 22.7487 5.75846 22.6836 6.25977 22.6836C6.93034 22.6836 7.5293 22.7943 8.05664 23.0156C8.59049 23.2305 9.04297 23.5462 9.41406 23.9629C9.78516 24.373 10.0684 24.8743 10.2637 25.4668C10.459 26.0527 10.5566 26.7135 10.5566 27.4492C10.5566 28.1068 10.459 28.722 10.2637 29.2949C10.0749 29.8678 9.78841 30.3724 9.4043 30.8086C9.02018 31.2448 8.53516 31.5866 7.94922 31.834C7.36979 32.0749 6.68294 32.1953 5.88867 32.1953C5.29622 32.1953 4.72656 32.1107 4.17969 31.9414C3.63932 31.7656 3.1543 31.5085 2.72461 31.1699C2.29492 30.8249 1.94987 30.4017 1.68945 29.9004C1.42904 29.3926 1.2793 28.8099 1.24023 28.1523H3.54492C3.60352 28.6146 3.73047 29.0085 3.92578 29.334C4.1276 29.653 4.39453 29.8971 4.72656 30.0664C5.05859 30.2357 5.44271 30.3203 5.87891 30.3203C6.27604 30.3203 6.61784 30.252 6.9043 30.1152C7.19076 29.972 7.42839 29.7702 7.61719 29.5098C7.8125 29.2428 7.95573 28.9303 8.04688 28.5723C8.14453 28.2142 8.19336 27.8171 8.19336 27.3809C8.19336 26.9642 8.13802 26.5833 8.02734 26.2383C7.92318 25.8932 7.76367 25.5938 7.54883 25.3398C7.34049 25.0859 7.07682 24.8906 6.75781 24.7539C6.4388 24.6107 6.07096 24.5391 5.6543 24.5391C5.0944 24.5391 4.66471 24.6204 4.36523 24.7832C4.07227 24.946 3.79883 25.1478 3.54492 25.3887ZM12.3438 21.2676V20.5156C12.3438 19.9753 12.4609 19.4837 12.6953 19.041C12.9297 18.5983 13.2715 18.2435 13.7207 17.9766C14.1699 17.7096 14.7103 17.5762 15.3418 17.5762C15.9928 17.5762 16.5397 17.7096 16.9824 17.9766C17.4316 18.2435 17.7734 18.5983 18.0078 19.041C18.2422 19.4837 18.3594 19.9753 18.3594 20.5156V21.2676C18.3594 21.7949 18.2422 22.2799 18.0078 22.7227C17.7799 23.1654 17.4414 23.5202 16.9922 23.7871C16.5495 24.054 16.0059 24.1875 15.3613 24.1875C14.7233 24.1875 14.1764 24.054 13.7207 23.7871C13.2715 23.5202 12.9297 23.1654 12.6953 22.7227C12.4609 22.2799 12.3438 21.7949 12.3438 21.2676ZM13.9746 20.5156V21.2676C13.9746 21.528 14.0234 21.7754 14.1211 22.0098C14.2253 22.2441 14.3815 22.4329 14.5898 22.5762C14.7982 22.7194 15.0553 22.791 15.3613 22.791C15.6738 22.791 15.9277 22.7194 16.123 22.5762C16.3249 22.4329 16.4746 22.2441 16.5723 22.0098C16.6699 21.7754 16.7188 21.528 16.7188 21.2676V20.5156C16.7188 20.2487 16.6667 19.998 16.5625 19.7637C16.4648 19.5228 16.3151 19.3307 16.1133 19.1875C15.9115 19.0443 15.6543 18.9727 15.3418 18.9727C15.0423 18.9727 14.7884 19.0443 14.5801 19.1875C14.3783 19.3307 14.2253 19.5228 14.1211 19.7637C14.0234 19.998 13.9746 20.2487 13.9746 20.5156ZM19.1992 29.2754V28.5137C19.1992 27.9798 19.3164 27.4915 19.5508 27.0488C19.7917 26.6061 20.1367 26.2513 20.5859 25.9844C21.0352 25.7174 21.5755 25.584 22.207 25.584C22.8581 25.584 23.4049 25.7174 23.8477 25.9844C24.2969 26.2513 24.6354 26.6061 24.8633 27.0488C25.0977 27.4915 25.2148 27.9798 25.2148 28.5137V29.2754C25.2148 29.8092 25.0977 30.2975 24.8633 30.7402C24.6354 31.1829 24.3001 31.5378 23.8574 31.8047C23.4147 32.0716 22.8711 32.2051 22.2266 32.2051C21.5885 32.2051 21.0417 32.0716 20.5859 31.8047C20.1367 31.5378 19.7917 31.1829 19.5508 30.7402C19.3164 30.2975 19.1992 29.8092 19.1992 29.2754ZM20.8398 28.5137V29.2754C20.8398 29.5358 20.8919 29.7832 20.9961 30.0176C21.1068 30.252 21.2663 30.444 21.4746 30.5938C21.6829 30.737 21.9336 30.8086 22.2266 30.8086C22.5586 30.8086 22.8255 30.737 23.0273 30.5938C23.2292 30.444 23.3724 30.2552 23.457 30.0273C23.5482 29.793 23.5938 29.5423 23.5938 29.2754V28.5137C23.5938 28.2467 23.5417 27.9961 23.4375 27.7617C23.3398 27.5273 23.1868 27.3385 22.9785 27.1953C22.7767 27.0521 22.5195 26.9805 22.207 26.9805C21.901 26.9805 21.6471 27.0521 21.4453 27.1953C21.2435 27.3385 21.0905 27.5273 20.9863 27.7617C20.8887 27.9961 20.8398 28.2467 20.8398 28.5137ZM22.793 19.8125L15.8496 30.9258L14.6484 30.2324L21.5918 19.1191L22.793 19.8125Z" fill="black"/>
<path d="M94.0078 109.625V121H92.5078V110.859H86.8984V121H85.3906V109.625H94.0078ZM96.1406 116.867V116.688C96.1406 116.078 96.2292 115.513 96.4062 114.992C96.5833 114.466 96.8385 114.01 97.1719 113.625C97.5052 113.234 97.9089 112.932 98.3828 112.719C98.8568 112.5 99.388 112.391 99.9766 112.391C100.57 112.391 101.104 112.5 101.578 112.719C102.057 112.932 102.464 113.234 102.797 113.625C103.135 114.01 103.393 114.466 103.57 114.992C103.747 115.513 103.836 116.078 103.836 116.688V116.867C103.836 117.477 103.747 118.042 103.57 118.562C103.393 119.083 103.135 119.539 102.797 119.93C102.464 120.315 102.06 120.617 101.586 120.836C101.117 121.049 100.586 121.156 99.9922 121.156C99.3984 121.156 98.8646 121.049 98.3906 120.836C97.9167 120.617 97.5104 120.315 97.1719 119.93C96.8385 119.539 96.5833 119.083 96.4062 118.562C96.2292 118.042 96.1406 117.477 96.1406 116.867ZM97.5859 116.688V116.867C97.5859 117.289 97.6354 117.688 97.7344 118.062C97.8333 118.432 97.9818 118.76 98.1797 119.047C98.3828 119.333 98.6354 119.56 98.9375 119.727C99.2396 119.888 99.5911 119.969 99.9922 119.969C100.388 119.969 100.734 119.888 101.031 119.727C101.333 119.56 101.583 119.333 101.781 119.047C101.979 118.76 102.128 118.432 102.227 118.062C102.331 117.688 102.383 117.289 102.383 116.867V116.688C102.383 116.271 102.331 115.878 102.227 115.508C102.128 115.133 101.977 114.802 101.773 114.516C101.576 114.224 101.326 113.995 101.023 113.828C100.727 113.661 100.378 113.578 99.9766 113.578C99.5807 113.578 99.2318 113.661 98.9297 113.828C98.6328 113.995 98.3828 114.224 98.1797 114.516C97.9818 114.802 97.8333 115.133 97.7344 115.508C97.6354 115.878 97.5859 116.271 97.5859 116.688ZM106.609 112.547H108.055L107.93 115.711C107.898 116.513 107.807 117.206 107.656 117.789C107.505 118.372 107.312 118.87 107.078 119.281C106.844 119.688 106.581 120.029 106.289 120.305C106.003 120.581 105.706 120.812 105.398 121H104.68L104.719 119.82L105.016 119.812C105.188 119.609 105.354 119.401 105.516 119.188C105.677 118.969 105.826 118.711 105.961 118.414C106.096 118.112 106.208 117.745 106.297 117.312C106.391 116.875 106.451 116.341 106.477 115.711L106.609 112.547ZM106.969 112.547H112.055V121H110.609V113.883H106.969V112.547ZM104.352 119.812H113.141V123.492H111.695V121H105.797V123.492H104.344L104.352 119.812ZM120.375 112.547V113.742H116.102V112.547H120.375ZM116.312 112.547V121H114.867V112.547H116.312ZM121.656 112.547V121H120.203V112.547H121.656ZM125.539 118.711L129.438 112.547H130.891V121H129.438V114.836L125.539 121H124.102V112.547H125.539V118.711ZM136.594 119.969C136.938 119.969 137.255 119.898 137.547 119.758C137.839 119.617 138.078 119.424 138.266 119.18C138.453 118.93 138.56 118.646 138.586 118.328H139.961C139.935 118.828 139.766 119.294 139.453 119.727C139.146 120.154 138.742 120.5 138.242 120.766C137.742 121.026 137.193 121.156 136.594 121.156C135.958 121.156 135.404 121.044 134.93 120.82C134.461 120.596 134.07 120.289 133.758 119.898C133.451 119.508 133.219 119.06 133.062 118.555C132.911 118.044 132.836 117.505 132.836 116.938V116.609C132.836 116.042 132.911 115.505 133.062 115C133.219 114.49 133.451 114.039 133.758 113.648C134.07 113.258 134.461 112.951 134.93 112.727C135.404 112.503 135.958 112.391 136.594 112.391C137.255 112.391 137.833 112.526 138.328 112.797C138.823 113.062 139.211 113.427 139.492 113.891C139.779 114.349 139.935 114.87 139.961 115.453H138.586C138.56 115.104 138.461 114.789 138.289 114.508C138.122 114.227 137.893 114.003 137.602 113.836C137.315 113.664 136.979 113.578 136.594 113.578C136.151 113.578 135.779 113.667 135.477 113.844C135.18 114.016 134.943 114.25 134.766 114.547C134.594 114.839 134.469 115.164 134.391 115.523C134.318 115.878 134.281 116.24 134.281 116.609V116.938C134.281 117.307 134.318 117.672 134.391 118.031C134.464 118.391 134.586 118.716 134.758 119.008C134.935 119.299 135.172 119.534 135.469 119.711C135.771 119.883 136.146 119.969 136.594 119.969ZM146.57 119.555V115.203C146.57 114.87 146.503 114.581 146.367 114.336C146.237 114.086 146.039 113.893 145.773 113.758C145.508 113.622 145.18 113.555 144.789 113.555C144.424 113.555 144.104 113.617 143.828 113.742C143.557 113.867 143.344 114.031 143.188 114.234C143.036 114.438 142.961 114.656 142.961 114.891H141.516C141.516 114.589 141.594 114.289 141.75 113.992C141.906 113.695 142.13 113.427 142.422 113.188C142.719 112.943 143.073 112.75 143.484 112.609C143.901 112.464 144.365 112.391 144.875 112.391C145.49 112.391 146.031 112.495 146.5 112.703C146.974 112.911 147.344 113.227 147.609 113.648C147.88 114.065 148.016 114.589 148.016 115.219V119.156C148.016 119.438 148.039 119.737 148.086 120.055C148.138 120.372 148.214 120.646 148.312 120.875V121H146.805C146.732 120.833 146.674 120.612 146.633 120.336C146.591 120.055 146.57 119.794 146.57 119.555ZM146.82 115.875L146.836 116.891H145.375C144.964 116.891 144.596 116.924 144.273 116.992C143.951 117.055 143.68 117.151 143.461 117.281C143.242 117.411 143.076 117.576 142.961 117.773C142.846 117.966 142.789 118.193 142.789 118.453C142.789 118.719 142.849 118.961 142.969 119.18C143.089 119.398 143.268 119.573 143.508 119.703C143.753 119.828 144.052 119.891 144.406 119.891C144.849 119.891 145.24 119.797 145.578 119.609C145.917 119.422 146.185 119.193 146.383 118.922C146.586 118.651 146.695 118.388 146.711 118.133L147.328 118.828C147.292 119.047 147.193 119.289 147.031 119.555C146.87 119.82 146.654 120.076 146.383 120.32C146.117 120.56 145.799 120.76 145.43 120.922C145.065 121.078 144.654 121.156 144.195 121.156C143.622 121.156 143.12 121.044 142.688 120.82C142.26 120.596 141.927 120.297 141.688 119.922C141.453 119.542 141.336 119.117 141.336 118.648C141.336 118.195 141.424 117.797 141.602 117.453C141.779 117.104 142.034 116.815 142.367 116.586C142.701 116.352 143.102 116.174 143.57 116.055C144.039 115.935 144.562 115.875 145.141 115.875H146.82ZM156.023 116.211V117.383H151.555V116.211H156.023ZM151.859 112.547V121H150.414V112.547H151.859ZM157.195 112.547V121H155.742V112.547H157.195ZM161.086 118.711L164.984 112.547H166.438V121H164.984V114.836L161.086 121H159.648V112.547H161.086V118.711ZM172.266 121.156C171.677 121.156 171.143 121.057 170.664 120.859C170.19 120.656 169.781 120.372 169.438 120.008C169.099 119.643 168.839 119.211 168.656 118.711C168.474 118.211 168.383 117.664 168.383 117.07V116.742C168.383 116.055 168.484 115.443 168.688 114.906C168.891 114.365 169.167 113.906 169.516 113.531C169.865 113.156 170.26 112.872 170.703 112.68C171.146 112.487 171.604 112.391 172.078 112.391C172.682 112.391 173.203 112.495 173.641 112.703C174.083 112.911 174.445 113.203 174.727 113.578C175.008 113.948 175.216 114.385 175.352 114.891C175.487 115.391 175.555 115.938 175.555 116.531V117.18H169.242V116H174.109V115.891C174.089 115.516 174.01 115.151 173.875 114.797C173.745 114.443 173.536 114.151 173.25 113.922C172.964 113.693 172.573 113.578 172.078 113.578C171.75 113.578 171.448 113.648 171.172 113.789C170.896 113.924 170.659 114.128 170.461 114.398C170.263 114.669 170.109 115 170 115.391C169.891 115.781 169.836 116.232 169.836 116.742V117.07C169.836 117.471 169.891 117.849 170 118.203C170.115 118.552 170.279 118.859 170.492 119.125C170.711 119.391 170.974 119.599 171.281 119.75C171.594 119.901 171.948 119.977 172.344 119.977C172.854 119.977 173.286 119.872 173.641 119.664C173.995 119.456 174.305 119.177 174.57 118.828L175.445 119.523C175.263 119.799 175.031 120.062 174.75 120.312C174.469 120.562 174.122 120.766 173.711 120.922C173.305 121.078 172.823 121.156 172.266 121.156ZM182.734 112.547H184.18L184.055 115.711C184.023 116.513 183.932 117.206 183.781 117.789C183.63 118.372 183.438 118.87 183.203 119.281C182.969 119.688 182.706 120.029 182.414 120.305C182.128 120.581 181.831 120.812 181.523 121H180.805L180.844 119.82L181.141 119.812C181.312 119.609 181.479 119.401 181.641 119.188C181.802 118.969 181.951 118.711 182.086 118.414C182.221 118.112 182.333 117.745 182.422 117.312C182.516 116.875 182.576 116.341 182.602 115.711L182.734 112.547ZM183.094 112.547H188.18V121H186.734V113.883H183.094V112.547ZM180.477 119.812H189.266V123.492H187.82V121H181.922V123.492H180.469L180.477 119.812ZM190.484 116.867V116.688C190.484 116.078 190.573 115.513 190.75 114.992C190.927 114.466 191.182 114.01 191.516 113.625C191.849 113.234 192.253 112.932 192.727 112.719C193.201 112.5 193.732 112.391 194.32 112.391C194.914 112.391 195.448 112.5 195.922 112.719C196.401 112.932 196.807 113.234 197.141 113.625C197.479 114.01 197.737 114.466 197.914 114.992C198.091 115.513 198.18 116.078 198.18 116.688V116.867C198.18 117.477 198.091 118.042 197.914 118.562C197.737 119.083 197.479 119.539 197.141 119.93C196.807 120.315 196.404 120.617 195.93 120.836C195.461 121.049 194.93 121.156 194.336 121.156C193.742 121.156 193.208 121.049 192.734 120.836C192.26 120.617 191.854 120.315 191.516 119.93C191.182 119.539 190.927 119.083 190.75 118.562C190.573 118.042 190.484 117.477 190.484 116.867ZM191.93 116.688V116.867C191.93 117.289 191.979 117.688 192.078 118.062C192.177 118.432 192.326 118.76 192.523 119.047C192.727 119.333 192.979 119.56 193.281 119.727C193.583 119.888 193.935 119.969 194.336 119.969C194.732 119.969 195.078 119.888 195.375 119.727C195.677 119.56 195.927 119.333 196.125 119.047C196.323 118.76 196.471 118.432 196.57 118.062C196.674 117.688 196.727 117.289 196.727 116.867V116.688C196.727 116.271 196.674 115.878 196.57 115.508C196.471 115.133 196.32 114.802 196.117 114.516C195.919 114.224 195.669 113.995 195.367 113.828C195.07 113.661 194.721 113.578 194.32 113.578C193.924 113.578 193.576 113.661 193.273 113.828C192.977 113.995 192.727 114.224 192.523 114.516C192.326 114.802 192.177 115.133 192.078 115.508C191.979 115.878 191.93 116.271 191.93 116.688ZM205.453 112.547V113.742H201.547V121H200.102V112.547H205.453ZM206.172 116.867V116.688C206.172 116.078 206.26 115.513 206.438 114.992C206.615 114.466 206.87 114.01 207.203 113.625C207.536 113.234 207.94 112.932 208.414 112.719C208.888 112.5 209.419 112.391 210.008 112.391C210.602 112.391 211.135 112.5 211.609 112.719C212.089 112.932 212.495 113.234 212.828 113.625C213.167 114.01 213.424 114.466 213.602 114.992C213.779 115.513 213.867 116.078 213.867 116.688V116.867C213.867 117.477 213.779 118.042 213.602 118.562C213.424 119.083 213.167 119.539 212.828 119.93C212.495 120.315 212.091 120.617 211.617 120.836C211.148 121.049 210.617 121.156 210.023 121.156C209.43 121.156 208.896 121.049 208.422 120.836C207.948 120.617 207.542 120.315 207.203 119.93C206.87 119.539 206.615 119.083 206.438 118.562C206.26 118.042 206.172 117.477 206.172 116.867ZM207.617 116.688V116.867C207.617 117.289 207.667 117.688 207.766 118.062C207.865 118.432 208.013 118.76 208.211 119.047C208.414 119.333 208.667 119.56 208.969 119.727C209.271 119.888 209.622 119.969 210.023 119.969C210.419 119.969 210.766 119.888 211.062 119.727C211.365 119.56 211.615 119.333 211.812 119.047C212.01 118.76 212.159 118.432 212.258 118.062C212.362 117.688 212.414 117.289 212.414 116.867V116.688C212.414 116.271 212.362 115.878 212.258 115.508C212.159 115.133 212.008 114.802 211.805 114.516C211.607 114.224 211.357 113.995 211.055 113.828C210.758 113.661 210.409 113.578 210.008 113.578C209.612 113.578 209.263 113.661 208.961 113.828C208.664 113.995 208.414 114.224 208.211 114.516C208.013 114.802 207.865 115.133 207.766 115.508C207.667 115.878 207.617 116.271 207.617 116.688ZM219.648 117.281H216.875L216.859 116.125H219.125C219.573 116.125 219.945 116.081 220.242 115.992C220.544 115.904 220.771 115.771 220.922 115.594C221.073 115.417 221.148 115.198 221.148 114.938C221.148 114.734 221.104 114.557 221.016 114.406C220.932 114.25 220.805 114.122 220.633 114.023C220.461 113.919 220.247 113.844 219.992 113.797C219.742 113.745 219.448 113.719 219.109 113.719H217.258V121H215.812V112.547H219.109C219.646 112.547 220.128 112.594 220.555 112.688C220.987 112.781 221.354 112.924 221.656 113.117C221.964 113.305 222.198 113.544 222.359 113.836C222.521 114.128 222.602 114.471 222.602 114.867C222.602 115.122 222.549 115.365 222.445 115.594C222.341 115.823 222.188 116.026 221.984 116.203C221.781 116.38 221.531 116.526 221.234 116.641C220.938 116.75 220.596 116.82 220.211 116.852L219.648 117.281ZM219.648 121H216.352L217.07 119.828H219.648C220.049 119.828 220.383 119.779 220.648 119.68C220.914 119.576 221.112 119.43 221.242 119.242C221.378 119.049 221.445 118.82 221.445 118.555C221.445 118.289 221.378 118.062 221.242 117.875C221.112 117.682 220.914 117.536 220.648 117.438C220.383 117.333 220.049 117.281 219.648 117.281H217.453L217.469 116.125H220.211L220.734 116.562C221.198 116.599 221.591 116.714 221.914 116.906C222.237 117.099 222.482 117.344 222.648 117.641C222.815 117.932 222.898 118.25 222.898 118.594C222.898 118.99 222.823 119.339 222.672 119.641C222.526 119.943 222.312 120.195 222.031 120.398C221.75 120.596 221.409 120.747 221.008 120.852C220.607 120.951 220.154 121 219.648 121ZM224.453 116.867V116.688C224.453 116.078 224.542 115.513 224.719 114.992C224.896 114.466 225.151 114.01 225.484 113.625C225.818 113.234 226.221 112.932 226.695 112.719C227.169 112.5 227.701 112.391 228.289 112.391C228.883 112.391 229.417 112.5 229.891 112.719C230.37 112.932 230.776 113.234 231.109 113.625C231.448 114.01 231.706 114.466 231.883 114.992C232.06 115.513 232.148 116.078 232.148 116.688V116.867C232.148 117.477 232.06 118.042 231.883 118.562C231.706 119.083 231.448 119.539 231.109 119.93C230.776 120.315 230.372 120.617 229.898 120.836C229.43 121.049 228.898 121.156 228.305 121.156C227.711 121.156 227.177 121.049 226.703 120.836C226.229 120.617 225.823 120.315 225.484 119.93C225.151 119.539 224.896 119.083 224.719 118.562C224.542 118.042 224.453 117.477 224.453 116.867ZM225.898 116.688V116.867C225.898 117.289 225.948 117.688 226.047 118.062C226.146 118.432 226.294 118.76 226.492 119.047C226.695 119.333 226.948 119.56 227.25 119.727C227.552 119.888 227.904 119.969 228.305 119.969C228.701 119.969 229.047 119.888 229.344 119.727C229.646 119.56 229.896 119.333 230.094 119.047C230.292 118.76 230.44 118.432 230.539 118.062C230.643 117.688 230.695 117.289 230.695 116.867V116.688C230.695 116.271 230.643 115.878 230.539 115.508C230.44 115.133 230.289 114.802 230.086 114.516C229.888 114.224 229.638 113.995 229.336 113.828C229.039 113.661 228.69 113.578 228.289 113.578C227.893 113.578 227.544 113.661 227.242 113.828C226.945 113.995 226.695 114.224 226.492 114.516C226.294 114.802 226.146 115.133 226.047 115.508C225.948 115.878 225.898 116.271 225.898 116.688ZM235.406 114.172V124.25H233.953V112.547H235.281L235.406 114.172ZM241.102 116.703V116.867C241.102 117.482 241.029 118.052 240.883 118.578C240.737 119.099 240.523 119.552 240.242 119.938C239.966 120.323 239.625 120.622 239.219 120.836C238.812 121.049 238.346 121.156 237.82 121.156C237.284 121.156 236.81 121.068 236.398 120.891C235.987 120.714 235.638 120.456 235.352 120.117C235.065 119.779 234.836 119.372 234.664 118.898C234.497 118.424 234.383 117.891 234.32 117.297V116.422C234.383 115.797 234.5 115.237 234.672 114.742C234.844 114.247 235.07 113.826 235.352 113.477C235.638 113.122 235.984 112.854 236.391 112.672C236.797 112.484 237.266 112.391 237.797 112.391C238.328 112.391 238.799 112.495 239.211 112.703C239.622 112.906 239.969 113.198 240.25 113.578C240.531 113.958 240.742 114.414 240.883 114.945C241.029 115.471 241.102 116.057 241.102 116.703ZM239.648 116.867V116.703C239.648 116.281 239.604 115.885 239.516 115.516C239.427 115.141 239.289 114.812 239.102 114.531C238.919 114.245 238.685 114.021 238.398 113.859C238.112 113.693 237.771 113.609 237.375 113.609C237.01 113.609 236.693 113.672 236.422 113.797C236.156 113.922 235.93 114.091 235.742 114.305C235.555 114.513 235.401 114.753 235.281 115.023C235.167 115.289 235.081 115.565 235.023 115.852V117.875C235.128 118.24 235.273 118.583 235.461 118.906C235.648 119.224 235.898 119.482 236.211 119.68C236.523 119.872 236.917 119.969 237.391 119.969C237.781 119.969 238.117 119.888 238.398 119.727C238.685 119.56 238.919 119.333 239.102 119.047C239.289 118.76 239.427 118.432 239.516 118.062C239.604 117.688 239.648 117.289 239.648 116.867ZM247.93 119.555V115.203C247.93 114.87 247.862 114.581 247.727 114.336C247.596 114.086 247.398 113.893 247.133 113.758C246.867 113.622 246.539 113.555 246.148 113.555C245.784 113.555 245.464 113.617 245.188 113.742C244.917 113.867 244.703 114.031 244.547 114.234C244.396 114.438 244.32 114.656 244.32 114.891H242.875C242.875 114.589 242.953 114.289 243.109 113.992C243.266 113.695 243.49 113.427 243.781 113.188C244.078 112.943 244.432 112.75 244.844 112.609C245.26 112.464 245.724 112.391 246.234 112.391C246.849 112.391 247.391 112.495 247.859 112.703C248.333 112.911 248.703 113.227 248.969 113.648C249.24 114.065 249.375 114.589 249.375 115.219V119.156C249.375 119.438 249.398 119.737 249.445 120.055C249.497 120.372 249.573 120.646 249.672 120.875V121H248.164C248.091 120.833 248.034 120.612 247.992 120.336C247.951 120.055 247.93 119.794 247.93 119.555ZM248.18 115.875L248.195 116.891H246.734C246.323 116.891 245.956 116.924 245.633 116.992C245.31 117.055 245.039 117.151 244.82 117.281C244.602 117.411 244.435 117.576 244.32 117.773C244.206 117.966 244.148 118.193 244.148 118.453C244.148 118.719 244.208 118.961 244.328 119.18C244.448 119.398 244.628 119.573 244.867 119.703C245.112 119.828 245.411 119.891 245.766 119.891C246.208 119.891 246.599 119.797 246.938 119.609C247.276 119.422 247.544 119.193 247.742 118.922C247.945 118.651 248.055 118.388 248.07 118.133L248.688 118.828C248.651 119.047 248.552 119.289 248.391 119.555C248.229 119.82 248.013 120.076 247.742 120.32C247.477 120.56 247.159 120.76 246.789 120.922C246.424 121.078 246.013 121.156 245.555 121.156C244.982 121.156 244.479 121.044 244.047 120.82C243.62 120.596 243.286 120.297 243.047 119.922C242.812 119.542 242.695 119.117 242.695 118.648C242.695 118.195 242.784 117.797 242.961 117.453C243.138 117.104 243.393 116.815 243.727 116.586C244.06 116.352 244.461 116.174 244.93 116.055C245.398 115.935 245.922 115.875 246.5 115.875H248.18Z" fill="black"/>
<path d="M87.8379 23.8262H89.2441C89.791 23.8262 90.2435 23.7318 90.6016 23.543C90.9661 23.3542 91.2363 23.0938 91.4121 22.7617C91.5879 22.4297 91.6758 22.0488 91.6758 21.6191C91.6758 21.1699 91.5944 20.7858 91.4316 20.4668C91.2754 20.1413 91.0345 19.8906 90.709 19.7148C90.39 19.5391 89.9831 19.4512 89.4883 19.4512C89.0716 19.4512 88.694 19.5358 88.3555 19.7051C88.0234 19.8678 87.7598 20.1022 87.5645 20.4082C87.3691 20.7077 87.2715 21.0658 87.2715 21.4824H84.9082C84.9082 20.7272 85.1068 20.0566 85.5039 19.4707C85.901 18.8848 86.4414 18.4258 87.125 18.0938C87.8151 17.7552 88.5898 17.5859 89.4492 17.5859C90.3672 17.5859 91.168 17.7389 91.8516 18.0449C92.5417 18.3444 93.0788 18.7936 93.4629 19.3926C93.847 19.9915 94.0391 20.7337 94.0391 21.6191C94.0391 22.0228 93.9447 22.4329 93.7559 22.8496C93.5671 23.2663 93.2871 23.6471 92.916 23.9922C92.5449 24.3307 92.0827 24.6074 91.5293 24.8223C90.9759 25.0306 90.3346 25.1348 89.6055 25.1348H87.8379V23.8262ZM87.8379 25.6621V24.373H89.6055C90.4388 24.373 91.1484 24.4707 91.7344 24.666C92.3268 24.8613 92.8086 25.1315 93.1797 25.4766C93.5508 25.8151 93.821 26.2025 93.9902 26.6387C94.166 27.0749 94.2539 27.5371 94.2539 28.0254C94.2539 28.6895 94.1335 29.2819 93.8926 29.8027C93.6582 30.3171 93.3229 30.7533 92.8867 31.1113C92.4505 31.4694 91.9395 31.7396 91.3535 31.9219C90.7741 32.1042 90.1426 32.1953 89.459 32.1953C88.847 32.1953 88.2611 32.1107 87.7012 31.9414C87.1413 31.7721 86.64 31.5215 86.1973 31.1895C85.7546 30.8509 85.403 30.431 85.1426 29.9297C84.8887 29.4219 84.7617 28.8359 84.7617 28.1719H87.1152C87.1152 28.5951 87.2129 28.9694 87.4082 29.2949C87.61 29.6139 87.89 29.8646 88.248 30.0469C88.6126 30.2292 89.0293 30.3203 89.498 30.3203C89.9928 30.3203 90.4193 30.2324 90.7773 30.0566C91.1354 29.8809 91.4089 29.6204 91.5977 29.2754C91.793 28.9303 91.8906 28.5137 91.8906 28.0254C91.8906 27.472 91.7832 27.0228 91.5684 26.6777C91.3535 26.3327 91.0475 26.0788 90.6504 25.916C90.2533 25.7467 89.7845 25.6621 89.2441 25.6621H87.8379ZM98.9121 25.3887L97.0371 24.9297L97.8086 17.7812H105.475V19.7734H99.7617L99.3711 23.2598C99.5924 23.1296 99.8984 23.0026 100.289 22.8789C100.68 22.7487 101.126 22.6836 101.627 22.6836C102.298 22.6836 102.896 22.7943 103.424 23.0156C103.958 23.2305 104.41 23.5462 104.781 23.9629C105.152 24.373 105.436 24.8743 105.631 25.4668C105.826 26.0527 105.924 26.7135 105.924 27.4492C105.924 28.1068 105.826 28.722 105.631 29.2949C105.442 29.8678 105.156 30.3724 104.771 30.8086C104.387 31.2448 103.902 31.5866 103.316 31.834C102.737 32.0749 102.05 32.1953 101.256 32.1953C100.663 32.1953 100.094 32.1107 99.5469 31.9414C99.0065 31.7656 98.5215 31.5085 98.0918 31.1699C97.6621 30.8249 97.3171 30.4017 97.0566 29.9004C96.7962 29.3926 96.6465 28.8099 96.6074 28.1523H98.9121C98.9707 28.6146 99.0977 29.0085 99.293 29.334C99.4948 29.653 99.7617 29.8971 100.094 30.0664C100.426 30.2357 100.81 30.3203 101.246 30.3203C101.643 30.3203 101.985 30.252 102.271 30.1152C102.558 29.972 102.796 29.7702 102.984 29.5098C103.18 29.2428 103.323 28.9303 103.414 28.5723C103.512 28.2142 103.561 27.8171 103.561 27.3809C103.561 26.9642 103.505 26.5833 103.395 26.2383C103.29 25.8932 103.131 25.5938 102.916 25.3398C102.708 25.0859 102.444 24.8906 102.125 24.7539C101.806 24.6107 101.438 24.5391 101.021 24.5391C100.462 24.5391 100.032 24.6204 99.7324 24.7832C99.4395 24.946 99.166 25.1478 98.9121 25.3887ZM107.711 21.2676V20.5156C107.711 19.9753 107.828 19.4837 108.062 19.041C108.297 18.5983 108.639 18.2435 109.088 17.9766C109.537 17.7096 110.077 17.5762 110.709 17.5762C111.36 17.5762 111.907 17.7096 112.35 17.9766C112.799 18.2435 113.141 18.5983 113.375 19.041C113.609 19.4837 113.727 19.9753 113.727 20.5156V21.2676C113.727 21.7949 113.609 22.2799 113.375 22.7227C113.147 23.1654 112.809 23.5202 112.359 23.7871C111.917 24.054 111.373 24.1875 110.729 24.1875C110.09 24.1875 109.544 24.054 109.088 23.7871C108.639 23.5202 108.297 23.1654 108.062 22.7227C107.828 22.2799 107.711 21.7949 107.711 21.2676ZM109.342 20.5156V21.2676C109.342 21.528 109.391 21.7754 109.488 22.0098C109.592 22.2441 109.749 22.4329 109.957 22.5762C110.165 22.7194 110.423 22.791 110.729 22.791C111.041 22.791 111.295 22.7194 111.49 22.5762C111.692 22.4329 111.842 22.2441 111.939 22.0098C112.037 21.7754 112.086 21.528 112.086 21.2676V20.5156C112.086 20.2487 112.034 19.998 111.93 19.7637C111.832 19.5228 111.682 19.3307 111.48 19.1875C111.279 19.0443 111.021 18.9727 110.709 18.9727C110.41 18.9727 110.156 19.0443 109.947 19.1875C109.745 19.3307 109.592 19.5228 109.488 19.7637C109.391 19.998 109.342 20.2487 109.342 20.5156ZM114.566 29.2754V28.5137C114.566 27.9798 114.684 27.4915 114.918 27.0488C115.159 26.6061 115.504 26.2513 115.953 25.9844C116.402 25.7174 116.943 25.584 117.574 25.584C118.225 25.584 118.772 25.7174 119.215 25.9844C119.664 26.2513 120.003 26.6061 120.23 27.0488C120.465 27.4915 120.582 27.9798 120.582 28.5137V29.2754C120.582 29.8092 120.465 30.2975 120.23 30.7402C120.003 31.1829 119.667 31.5378 119.225 31.8047C118.782 32.0716 118.238 32.2051 117.594 32.2051C116.956 32.2051 116.409 32.0716 115.953 31.8047C115.504 31.5378 115.159 31.1829 114.918 30.7402C114.684 30.2975 114.566 29.8092 114.566 29.2754ZM116.207 28.5137V29.2754C116.207 29.5358 116.259 29.7832 116.363 30.0176C116.474 30.252 116.633 30.444 116.842 30.5938C117.05 30.737 117.301 30.8086 117.594 30.8086C117.926 30.8086 118.193 30.737 118.395 30.5938C118.596 30.444 118.74 30.2552 118.824 30.0273C118.915 29.793 118.961 29.5423 118.961 29.2754V28.5137C118.961 28.2467 118.909 27.9961 118.805 27.7617C118.707 27.5273 118.554 27.3385 118.346 27.1953C118.144 27.0521 117.887 26.9805 117.574 26.9805C117.268 26.9805 117.014 27.0521 116.812 27.1953C116.611 27.3385 116.458 27.5273 116.354 27.7617C116.256 27.9961 116.207 28.2467 116.207 28.5137ZM118.16 19.8125L111.217 30.9258L110.016 30.2324L116.959 19.1191L118.16 19.8125Z" fill="black"/>
<path d="M340.055 114.602H341.086C341.591 114.602 342.008 114.518 342.336 114.352C342.669 114.18 342.917 113.948 343.078 113.656C343.245 113.359 343.328 113.026 343.328 112.656C343.328 112.219 343.255 111.852 343.109 111.555C342.964 111.258 342.745 111.034 342.453 110.883C342.161 110.732 341.792 110.656 341.344 110.656C340.938 110.656 340.578 110.737 340.266 110.898C339.958 111.055 339.716 111.279 339.539 111.57C339.367 111.862 339.281 112.206 339.281 112.602H337.836C337.836 112.023 337.982 111.497 338.273 111.023C338.565 110.549 338.974 110.172 339.5 109.891C340.031 109.609 340.646 109.469 341.344 109.469C342.031 109.469 342.633 109.591 343.148 109.836C343.664 110.076 344.065 110.435 344.352 110.914C344.638 111.388 344.781 111.979 344.781 112.688C344.781 112.974 344.714 113.281 344.578 113.609C344.448 113.932 344.242 114.234 343.961 114.516C343.685 114.797 343.326 115.029 342.883 115.211C342.44 115.388 341.909 115.477 341.289 115.477H340.055V114.602ZM340.055 115.789V114.922H341.289C342.013 114.922 342.612 115.008 343.086 115.18C343.56 115.352 343.932 115.581 344.203 115.867C344.479 116.154 344.672 116.469 344.781 116.812C344.896 117.151 344.953 117.49 344.953 117.828C344.953 118.359 344.862 118.831 344.68 119.242C344.503 119.654 344.25 120.003 343.922 120.289C343.599 120.576 343.219 120.792 342.781 120.938C342.344 121.083 341.867 121.156 341.352 121.156C340.857 121.156 340.391 121.086 339.953 120.945C339.521 120.805 339.138 120.602 338.805 120.336C338.471 120.065 338.211 119.734 338.023 119.344C337.836 118.948 337.742 118.497 337.742 117.992H339.188C339.188 118.388 339.273 118.734 339.445 119.031C339.622 119.328 339.872 119.56 340.195 119.727C340.523 119.888 340.909 119.969 341.352 119.969C341.794 119.969 342.174 119.893 342.492 119.742C342.815 119.586 343.062 119.352 343.234 119.039C343.411 118.727 343.5 118.333 343.5 117.859C343.5 117.385 343.401 116.997 343.203 116.695C343.005 116.388 342.724 116.161 342.359 116.016C342 115.865 341.576 115.789 341.086 115.789H340.055ZM356.703 112.547V113.742H352.43V112.547H356.703ZM352.641 112.547V121H351.195V112.547H352.641ZM357.984 112.547V121H356.531V112.547H357.984ZM365.953 112.547V113.742H361.867V112.547H365.953ZM367.227 112.547V121H365.781V112.547H367.227ZM361.516 112.547H362.969L362.75 116.625C362.714 117.255 362.654 117.812 362.57 118.297C362.492 118.776 362.383 119.188 362.242 119.531C362.107 119.875 361.935 120.156 361.727 120.375C361.523 120.589 361.279 120.747 360.992 120.852C360.706 120.951 360.375 121 360 121H359.547V119.727L359.859 119.703C360.083 119.688 360.273 119.635 360.43 119.547C360.591 119.458 360.727 119.328 360.836 119.156C360.945 118.979 361.034 118.753 361.102 118.477C361.174 118.201 361.229 117.872 361.266 117.492C361.307 117.112 361.339 116.669 361.359 116.164L361.516 112.547ZM374.539 119.555V115.203C374.539 114.87 374.471 114.581 374.336 114.336C374.206 114.086 374.008 113.893 373.742 113.758C373.477 113.622 373.148 113.555 372.758 113.555C372.393 113.555 372.073 113.617 371.797 113.742C371.526 113.867 371.312 114.031 371.156 114.234C371.005 114.438 370.93 114.656 370.93 114.891H369.484C369.484 114.589 369.562 114.289 369.719 113.992C369.875 113.695 370.099 113.427 370.391 113.188C370.688 112.943 371.042 112.75 371.453 112.609C371.87 112.464 372.333 112.391 372.844 112.391C373.458 112.391 374 112.495 374.469 112.703C374.943 112.911 375.312 113.227 375.578 113.648C375.849 114.065 375.984 114.589 375.984 115.219V119.156C375.984 119.438 376.008 119.737 376.055 120.055C376.107 120.372 376.182 120.646 376.281 120.875V121H374.773C374.701 120.833 374.643 120.612 374.602 120.336C374.56 120.055 374.539 119.794 374.539 119.555ZM374.789 115.875L374.805 116.891H373.344C372.932 116.891 372.565 116.924 372.242 116.992C371.919 117.055 371.648 117.151 371.43 117.281C371.211 117.411 371.044 117.576 370.93 117.773C370.815 117.966 370.758 118.193 370.758 118.453C370.758 118.719 370.818 118.961 370.938 119.18C371.057 119.398 371.237 119.573 371.477 119.703C371.721 119.828 372.021 119.891 372.375 119.891C372.818 119.891 373.208 119.797 373.547 119.609C373.885 119.422 374.154 119.193 374.352 118.922C374.555 118.651 374.664 118.388 374.68 118.133L375.297 118.828C375.26 119.047 375.161 119.289 375 119.555C374.839 119.82 374.622 120.076 374.352 120.32C374.086 120.56 373.768 120.76 373.398 120.922C373.034 121.078 372.622 121.156 372.164 121.156C371.591 121.156 371.089 121.044 370.656 120.82C370.229 120.596 369.896 120.297 369.656 119.922C369.422 119.542 369.305 119.117 369.305 118.648C369.305 118.195 369.393 117.797 369.57 117.453C369.747 117.104 370.003 116.815 370.336 116.586C370.669 116.352 371.07 116.174 371.539 116.055C372.008 115.935 372.531 115.875 373.109 115.875H374.789ZM381.578 112.547V121H380.125V112.547H381.578ZM384.414 112.547V113.719H377.344V112.547H384.414ZM388.719 121.156C388.13 121.156 387.596 121.057 387.117 120.859C386.643 120.656 386.234 120.372 385.891 120.008C385.552 119.643 385.292 119.211 385.109 118.711C384.927 118.211 384.836 117.664 384.836 117.07V116.742C384.836 116.055 384.938 115.443 385.141 114.906C385.344 114.365 385.62 113.906 385.969 113.531C386.318 113.156 386.714 112.872 387.156 112.68C387.599 112.487 388.057 112.391 388.531 112.391C389.135 112.391 389.656 112.495 390.094 112.703C390.536 112.911 390.898 113.203 391.18 113.578C391.461 113.948 391.669 114.385 391.805 114.891C391.94 115.391 392.008 115.938 392.008 116.531V117.18H385.695V116H390.562V115.891C390.542 115.516 390.464 115.151 390.328 114.797C390.198 114.443 389.99 114.151 389.703 113.922C389.417 113.693 389.026 113.578 388.531 113.578C388.203 113.578 387.901 113.648 387.625 113.789C387.349 113.924 387.112 114.128 386.914 114.398C386.716 114.669 386.562 115 386.453 115.391C386.344 115.781 386.289 116.232 386.289 116.742V117.07C386.289 117.471 386.344 117.849 386.453 118.203C386.568 118.552 386.732 118.859 386.945 119.125C387.164 119.391 387.427 119.599 387.734 119.75C388.047 119.901 388.401 119.977 388.797 119.977C389.307 119.977 389.74 119.872 390.094 119.664C390.448 119.456 390.758 119.177 391.023 118.828L391.898 119.523C391.716 119.799 391.484 120.062 391.203 120.312C390.922 120.562 390.576 120.766 390.164 120.922C389.758 121.078 389.276 121.156 388.719 121.156ZM396.258 117.32L393.055 112.547H394.797L396.984 116.047H398.672L398.461 117.32H396.258ZM397.047 117.172L394.594 121H392.766L396.133 116.125L397.047 117.172ZM399.414 112.547V121H397.969V112.547H399.414ZM404.344 112.547L401.141 117.32H398.938L398.711 116.047H400.406L402.594 112.547H404.344ZM402.797 121L400.336 117.172L401.266 116.125L404.625 121H402.797Z" fill="black"/>
<path d="M344.5 17.7324V32H342.146V20.5254L338.66 21.707V19.7637L344.217 17.7324H344.5ZM351.912 25.3887L350.037 24.9297L350.809 17.7812H358.475V19.7734H352.762L352.371 23.2598C352.592 23.1296 352.898 23.0026 353.289 22.8789C353.68 22.7487 354.126 22.6836 354.627 22.6836C355.298 22.6836 355.896 22.7943 356.424 23.0156C356.958 23.2305 357.41 23.5462 357.781 23.9629C358.152 24.373 358.436 24.8743 358.631 25.4668C358.826 26.0527 358.924 26.7135 358.924 27.4492C358.924 28.1068 358.826 28.722 358.631 29.2949C358.442 29.8678 358.156 30.3724 357.771 30.8086C357.387 31.2448 356.902 31.5866 356.316 31.834C355.737 32.0749 355.05 32.1953 354.256 32.1953C353.663 32.1953 353.094 32.1107 352.547 31.9414C352.007 31.7656 351.521 31.5085 351.092 31.1699C350.662 30.8249 350.317 30.4017 350.057 29.9004C349.796 29.3926 349.646 28.8099 349.607 28.1523H351.912C351.971 28.6146 352.098 29.0085 352.293 29.334C352.495 29.653 352.762 29.8971 353.094 30.0664C353.426 30.2357 353.81 30.3203 354.246 30.3203C354.643 30.3203 354.985 30.252 355.271 30.1152C355.558 29.972 355.796 29.7702 355.984 29.5098C356.18 29.2428 356.323 28.9303 356.414 28.5723C356.512 28.2142 356.561 27.8171 356.561 27.3809C356.561 26.9642 356.505 26.5833 356.395 26.2383C356.29 25.8932 356.131 25.5938 355.916 25.3398C355.708 25.0859 355.444 24.8906 355.125 24.7539C354.806 24.6107 354.438 24.5391 354.021 24.5391C353.462 24.5391 353.032 24.6204 352.732 24.7832C352.439 24.946 352.166 25.1478 351.912 25.3887ZM360.711 21.2676V20.5156C360.711 19.9753 360.828 19.4837 361.062 19.041C361.297 18.5983 361.639 18.2435 362.088 17.9766C362.537 17.7096 363.077 17.5762 363.709 17.5762C364.36 17.5762 364.907 17.7096 365.35 17.9766C365.799 18.2435 366.141 18.5983 366.375 19.041C366.609 19.4837 366.727 19.9753 366.727 20.5156V21.2676C366.727 21.7949 366.609 22.2799 366.375 22.7227C366.147 23.1654 365.809 23.5202 365.359 23.7871C364.917 24.054 364.373 24.1875 363.729 24.1875C363.09 24.1875 362.544 24.054 362.088 23.7871C361.639 23.5202 361.297 23.1654 361.062 22.7227C360.828 22.2799 360.711 21.7949 360.711 21.2676ZM362.342 20.5156V21.2676C362.342 21.528 362.391 21.7754 362.488 22.0098C362.592 22.2441 362.749 22.4329 362.957 22.5762C363.165 22.7194 363.423 22.791 363.729 22.791C364.041 22.791 364.295 22.7194 364.49 22.5762C364.692 22.4329 364.842 22.2441 364.939 22.0098C365.037 21.7754 365.086 21.528 365.086 21.2676V20.5156C365.086 20.2487 365.034 19.998 364.93 19.7637C364.832 19.5228 364.682 19.3307 364.48 19.1875C364.279 19.0443 364.021 18.9727 363.709 18.9727C363.41 18.9727 363.156 19.0443 362.947 19.1875C362.745 19.3307 362.592 19.5228 362.488 19.7637C362.391 19.998 362.342 20.2487 362.342 20.5156ZM367.566 29.2754V28.5137C367.566 27.9798 367.684 27.4915 367.918 27.0488C368.159 26.6061 368.504 26.2513 368.953 25.9844C369.402 25.7174 369.943 25.584 370.574 25.584C371.225 25.584 371.772 25.7174 372.215 25.9844C372.664 26.2513 373.003 26.6061 373.23 27.0488C373.465 27.4915 373.582 27.9798 373.582 28.5137V29.2754C373.582 29.8092 373.465 30.2975 373.23 30.7402C373.003 31.1829 372.667 31.5378 372.225 31.8047C371.782 32.0716 371.238 32.2051 370.594 32.2051C369.956 32.2051 369.409 32.0716 368.953 31.8047C368.504 31.5378 368.159 31.1829 367.918 30.7402C367.684 30.2975 367.566 29.8092 367.566 29.2754ZM369.207 28.5137V29.2754C369.207 29.5358 369.259 29.7832 369.363 30.0176C369.474 30.252 369.633 30.444 369.842 30.5938C370.05 30.737 370.301 30.8086 370.594 30.8086C370.926 30.8086 371.193 30.737 371.395 30.5938C371.596 30.444 371.74 30.2552 371.824 30.0273C371.915 29.793 371.961 29.5423 371.961 29.2754V28.5137C371.961 28.2467 371.909 27.9961 371.805 27.7617C371.707 27.5273 371.554 27.3385 371.346 27.1953C371.144 27.0521 370.887 26.9805 370.574 26.9805C370.268 26.9805 370.014 27.0521 369.812 27.1953C369.611 27.3385 369.458 27.5273 369.354 27.7617C369.256 27.9961 369.207 28.2467 369.207 28.5137ZM371.16 19.8125L364.217 30.9258L363.016 30.2324L369.959 19.1191L371.16 19.8125Z" fill="black"/>
<path d="M443.633 117.172V118.359H435.414V117.508L440.508 109.625H441.688L440.422 111.906L437.055 117.172H443.633ZM442.047 109.625V121H440.602V109.625H442.047ZM454.703 112.547V113.742H450.43V112.547H454.703ZM450.641 112.547V121H449.195V112.547H450.641ZM455.984 112.547V121H454.531V112.547H455.984ZM463.953 112.547V113.742H459.867V112.547H463.953ZM465.227 112.547V121H463.781V112.547H465.227ZM459.516 112.547H460.969L460.75 116.625C460.714 117.255 460.654 117.812 460.57 118.297C460.492 118.776 460.383 119.188 460.242 119.531C460.107 119.875 459.935 120.156 459.727 120.375C459.523 120.589 459.279 120.747 458.992 120.852C458.706 120.951 458.375 121 458 121H457.547V119.727L457.859 119.703C458.083 119.688 458.273 119.635 458.43 119.547C458.591 119.458 458.727 119.328 458.836 119.156C458.945 118.979 459.034 118.753 459.102 118.477C459.174 118.201 459.229 117.872 459.266 117.492C459.307 117.112 459.339 116.669 459.359 116.164L459.516 112.547ZM472.539 119.555V115.203C472.539 114.87 472.471 114.581 472.336 114.336C472.206 114.086 472.008 113.893 471.742 113.758C471.477 113.622 471.148 113.555 470.758 113.555C470.393 113.555 470.073 113.617 469.797 113.742C469.526 113.867 469.312 114.031 469.156 114.234C469.005 114.438 468.93 114.656 468.93 114.891H467.484C467.484 114.589 467.562 114.289 467.719 113.992C467.875 113.695 468.099 113.427 468.391 113.188C468.688 112.943 469.042 112.75 469.453 112.609C469.87 112.464 470.333 112.391 470.844 112.391C471.458 112.391 472 112.495 472.469 112.703C472.943 112.911 473.312 113.227 473.578 113.648C473.849 114.065 473.984 114.589 473.984 115.219V119.156C473.984 119.438 474.008 119.737 474.055 120.055C474.107 120.372 474.182 120.646 474.281 120.875V121H472.773C472.701 120.833 472.643 120.612 472.602 120.336C472.56 120.055 472.539 119.794 472.539 119.555ZM472.789 115.875L472.805 116.891H471.344C470.932 116.891 470.565 116.924 470.242 116.992C469.919 117.055 469.648 117.151 469.43 117.281C469.211 117.411 469.044 117.576 468.93 117.773C468.815 117.966 468.758 118.193 468.758 118.453C468.758 118.719 468.818 118.961 468.938 119.18C469.057 119.398 469.237 119.573 469.477 119.703C469.721 119.828 470.021 119.891 470.375 119.891C470.818 119.891 471.208 119.797 471.547 119.609C471.885 119.422 472.154 119.193 472.352 118.922C472.555 118.651 472.664 118.388 472.68 118.133L473.297 118.828C473.26 119.047 473.161 119.289 473 119.555C472.839 119.82 472.622 120.076 472.352 120.32C472.086 120.56 471.768 120.76 471.398 120.922C471.034 121.078 470.622 121.156 470.164 121.156C469.591 121.156 469.089 121.044 468.656 120.82C468.229 120.596 467.896 120.297 467.656 119.922C467.422 119.542 467.305 119.117 467.305 118.648C467.305 118.195 467.393 117.797 467.57 117.453C467.747 117.104 468.003 116.815 468.336 116.586C468.669 116.352 469.07 116.174 469.539 116.055C470.008 115.935 470.531 115.875 471.109 115.875H472.789ZM479.578 112.547V121H478.125V112.547H479.578ZM482.414 112.547V113.719H475.344V112.547H482.414ZM486.719 121.156C486.13 121.156 485.596 121.057 485.117 120.859C484.643 120.656 484.234 120.372 483.891 120.008C483.552 119.643 483.292 119.211 483.109 118.711C482.927 118.211 482.836 117.664 482.836 117.07V116.742C482.836 116.055 482.938 115.443 483.141 114.906C483.344 114.365 483.62 113.906 483.969 113.531C484.318 113.156 484.714 112.872 485.156 112.68C485.599 112.487 486.057 112.391 486.531 112.391C487.135 112.391 487.656 112.495 488.094 112.703C488.536 112.911 488.898 113.203 489.18 113.578C489.461 113.948 489.669 114.385 489.805 114.891C489.94 115.391 490.008 115.938 490.008 116.531V117.18H483.695V116H488.562V115.891C488.542 115.516 488.464 115.151 488.328 114.797C488.198 114.443 487.99 114.151 487.703 113.922C487.417 113.693 487.026 113.578 486.531 113.578C486.203 113.578 485.901 113.648 485.625 113.789C485.349 113.924 485.112 114.128 484.914 114.398C484.716 114.669 484.562 115 484.453 115.391C484.344 115.781 484.289 116.232 484.289 116.742V117.07C484.289 117.471 484.344 117.849 484.453 118.203C484.568 118.552 484.732 118.859 484.945 119.125C485.164 119.391 485.427 119.599 485.734 119.75C486.047 119.901 486.401 119.977 486.797 119.977C487.307 119.977 487.74 119.872 488.094 119.664C488.448 119.456 488.758 119.177 489.023 118.828L489.898 119.523C489.716 119.799 489.484 120.062 489.203 120.312C488.922 120.562 488.576 120.766 488.164 120.922C487.758 121.078 487.276 121.156 486.719 121.156ZM494.258 117.32L491.055 112.547H492.797L494.984 116.047H496.672L496.461 117.32H494.258ZM495.047 117.172L492.594 121H490.766L494.133 116.125L495.047 117.172ZM497.414 112.547V121H495.969V112.547H497.414ZM502.344 112.547L499.141 117.32H496.938L496.711 116.047H498.406L500.594 112.547H502.344ZM500.797 121L498.336 117.172L499.266 116.125L502.625 121H500.797Z" fill="black"/>
<path d="M445.605 30.125V32H436.074V30.3887L440.703 25.3398C441.211 24.7669 441.611 24.2721 441.904 23.8555C442.197 23.4388 442.402 23.0645 442.52 22.7324C442.643 22.3939 442.705 22.0651 442.705 21.7461C442.705 21.2969 442.62 20.903 442.451 20.5645C442.288 20.2194 442.048 19.9492 441.729 19.7539C441.41 19.5521 441.022 19.4512 440.566 19.4512C440.039 19.4512 439.596 19.5651 439.238 19.793C438.88 20.0208 438.61 20.3366 438.428 20.7402C438.245 21.1374 438.154 21.5931 438.154 22.1074H435.801C435.801 21.2806 435.99 20.5254 436.367 19.8418C436.745 19.1517 437.292 18.6048 438.008 18.2012C438.724 17.791 439.587 17.5859 440.596 17.5859C441.546 17.5859 442.354 17.7454 443.018 18.0645C443.682 18.3835 444.186 18.8359 444.531 19.4219C444.883 20.0078 445.059 20.7012 445.059 21.502C445.059 21.9447 444.987 22.3841 444.844 22.8203C444.701 23.2565 444.495 23.6927 444.229 24.1289C443.968 24.5586 443.659 24.9915 443.301 25.4277C442.943 25.8574 442.549 26.2936 442.119 26.7363L439.043 30.125H445.605ZM456.709 23.6992V26.0234C456.709 27.1367 456.598 28.0872 456.377 28.875C456.162 29.6562 455.85 30.291 455.439 30.7793C455.029 31.2676 454.538 31.6257 453.965 31.8535C453.398 32.0814 452.764 32.1953 452.061 32.1953C451.501 32.1953 450.98 32.1237 450.498 31.9805C450.023 31.8372 449.593 31.6126 449.209 31.3066C448.825 31.0007 448.496 30.6068 448.223 30.125C447.956 29.6367 447.747 29.054 447.598 28.377C447.454 27.6999 447.383 26.9154 447.383 26.0234V23.6992C447.383 22.5794 447.493 21.6354 447.715 20.8672C447.936 20.0924 448.252 19.4642 448.662 18.9824C449.072 18.4941 449.561 18.1393 450.127 17.918C450.7 17.6966 451.338 17.5859 452.041 17.5859C452.607 17.5859 453.128 17.6576 453.604 17.8008C454.085 17.9375 454.515 18.1556 454.893 18.4551C455.277 18.7546 455.602 19.1452 455.869 19.627C456.143 20.1022 456.351 20.6784 456.494 21.3555C456.637 22.026 456.709 22.8073 456.709 23.6992ZM454.355 26.3555V23.3477C454.355 22.7812 454.323 22.2832 454.258 21.8535C454.193 21.4173 454.095 21.0495 453.965 20.75C453.841 20.444 453.685 20.1966 453.496 20.0078C453.307 19.8125 453.092 19.6725 452.852 19.5879C452.611 19.4967 452.34 19.4512 452.041 19.4512C451.676 19.4512 451.351 19.5228 451.064 19.666C450.778 19.8027 450.537 20.0241 450.342 20.3301C450.146 20.6361 449.997 21.0397 449.893 21.541C449.795 22.0358 449.746 22.638 449.746 23.3477V26.3555C449.746 26.9284 449.779 27.4329 449.844 27.8691C449.909 28.3053 450.007 28.6797 450.137 28.9922C450.267 29.2982 450.423 29.5521 450.605 29.7539C450.794 29.9492 451.009 30.0924 451.25 30.1836C451.497 30.2747 451.768 30.3203 452.061 30.3203C452.432 30.3203 452.76 30.2487 453.047 30.1055C453.333 29.9622 453.574 29.7344 453.77 29.4219C453.965 29.1029 454.111 28.6895 454.209 28.1816C454.307 27.6738 454.355 27.0651 454.355 26.3555ZM458.711 21.2676V20.5156C458.711 19.9753 458.828 19.4837 459.062 19.041C459.297 18.5983 459.639 18.2435 460.088 17.9766C460.537 17.7096 461.077 17.5762 461.709 17.5762C462.36 17.5762 462.907 17.7096 463.35 17.9766C463.799 18.2435 464.141 18.5983 464.375 19.041C464.609 19.4837 464.727 19.9753 464.727 20.5156V21.2676C464.727 21.7949 464.609 22.2799 464.375 22.7227C464.147 23.1654 463.809 23.5202 463.359 23.7871C462.917 24.054 462.373 24.1875 461.729 24.1875C461.09 24.1875 460.544 24.054 460.088 23.7871C459.639 23.5202 459.297 23.1654 459.062 22.7227C458.828 22.2799 458.711 21.7949 458.711 21.2676ZM460.342 20.5156V21.2676C460.342 21.528 460.391 21.7754 460.488 22.0098C460.592 22.2441 460.749 22.4329 460.957 22.5762C461.165 22.7194 461.423 22.791 461.729 22.791C462.041 22.791 462.295 22.7194 462.49 22.5762C462.692 22.4329 462.842 22.2441 462.939 22.0098C463.037 21.7754 463.086 21.528 463.086 21.2676V20.5156C463.086 20.2487 463.034 19.998 462.93 19.7637C462.832 19.5228 462.682 19.3307 462.48 19.1875C462.279 19.0443 462.021 18.9727 461.709 18.9727C461.41 18.9727 461.156 19.0443 460.947 19.1875C460.745 19.3307 460.592 19.5228 460.488 19.7637C460.391 19.998 460.342 20.2487 460.342 20.5156ZM465.566 29.2754V28.5137C465.566 27.9798 465.684 27.4915 465.918 27.0488C466.159 26.6061 466.504 26.2513 466.953 25.9844C467.402 25.7174 467.943 25.584 468.574 25.584C469.225 25.584 469.772 25.7174 470.215 25.9844C470.664 26.2513 471.003 26.6061 471.23 27.0488C471.465 27.4915 471.582 27.9798 471.582 28.5137V29.2754C471.582 29.8092 471.465 30.2975 471.23 30.7402C471.003 31.1829 470.667 31.5378 470.225 31.8047C469.782 32.0716 469.238 32.2051 468.594 32.2051C467.956 32.2051 467.409 32.0716 466.953 31.8047C466.504 31.5378 466.159 31.1829 465.918 30.7402C465.684 30.2975 465.566 29.8092 465.566 29.2754ZM467.207 28.5137V29.2754C467.207 29.5358 467.259 29.7832 467.363 30.0176C467.474 30.252 467.633 30.444 467.842 30.5938C468.05 30.737 468.301 30.8086 468.594 30.8086C468.926 30.8086 469.193 30.737 469.395 30.5938C469.596 30.444 469.74 30.2552 469.824 30.0273C469.915 29.793 469.961 29.5423 469.961 29.2754V28.5137C469.961 28.2467 469.909 27.9961 469.805 27.7617C469.707 27.5273 469.554 27.3385 469.346 27.1953C469.144 27.0521 468.887 26.9805 468.574 26.9805C468.268 26.9805 468.014 27.0521 467.812 27.1953C467.611 27.3385 467.458 27.5273 467.354 27.7617C467.256 27.9961 467.207 28.2467 467.207 28.5137ZM469.16 19.8125L462.217 30.9258L461.016 30.2324L467.959 19.1191L469.16 19.8125Z" fill="black"/>
<path d="M549.773 115.586L548.617 115.289L549.188 109.625H555.023V110.961H550.414L550.07 114.055C550.279 113.935 550.542 113.823 550.859 113.719C551.182 113.615 551.552 113.562 551.969 113.562C552.495 113.562 552.966 113.654 553.383 113.836C553.799 114.013 554.154 114.268 554.445 114.602C554.742 114.935 554.969 115.336 555.125 115.805C555.281 116.273 555.359 116.797 555.359 117.375C555.359 117.922 555.284 118.424 555.133 118.883C554.987 119.341 554.766 119.742 554.469 120.086C554.172 120.424 553.797 120.688 553.344 120.875C552.896 121.062 552.367 121.156 551.758 121.156C551.299 121.156 550.865 121.094 550.453 120.969C550.047 120.839 549.682 120.643 549.359 120.383C549.042 120.117 548.781 119.789 548.578 119.398C548.38 119.003 548.255 118.539 548.203 118.008H549.578C549.641 118.435 549.766 118.794 549.953 119.086C550.141 119.378 550.385 119.599 550.688 119.75C550.995 119.896 551.352 119.969 551.758 119.969C552.102 119.969 552.406 119.909 552.672 119.789C552.938 119.669 553.161 119.497 553.344 119.273C553.526 119.049 553.664 118.779 553.758 118.461C553.857 118.143 553.906 117.786 553.906 117.391C553.906 117.031 553.857 116.698 553.758 116.391C553.659 116.083 553.51 115.815 553.312 115.586C553.12 115.357 552.883 115.18 552.602 115.055C552.32 114.924 551.997 114.859 551.633 114.859C551.148 114.859 550.781 114.924 550.531 115.055C550.286 115.185 550.034 115.362 549.773 115.586ZM566.703 112.547V113.742H562.43V112.547H566.703ZM562.641 112.547V121H561.195V112.547H562.641ZM567.984 112.547V121H566.531V112.547H567.984ZM575.953 112.547V113.742H571.867V112.547H575.953ZM577.227 112.547V121H575.781V112.547H577.227ZM571.516 112.547H572.969L572.75 116.625C572.714 117.255 572.654 117.812 572.57 118.297C572.492 118.776 572.383 119.188 572.242 119.531C572.107 119.875 571.935 120.156 571.727 120.375C571.523 120.589 571.279 120.747 570.992 120.852C570.706 120.951 570.375 121 570 121H569.547V119.727L569.859 119.703C570.083 119.688 570.273 119.635 570.43 119.547C570.591 119.458 570.727 119.328 570.836 119.156C570.945 118.979 571.034 118.753 571.102 118.477C571.174 118.201 571.229 117.872 571.266 117.492C571.307 117.112 571.339 116.669 571.359 116.164L571.516 112.547ZM584.539 119.555V115.203C584.539 114.87 584.471 114.581 584.336 114.336C584.206 114.086 584.008 113.893 583.742 113.758C583.477 113.622 583.148 113.555 582.758 113.555C582.393 113.555 582.073 113.617 581.797 113.742C581.526 113.867 581.312 114.031 581.156 114.234C581.005 114.438 580.93 114.656 580.93 114.891H579.484C579.484 114.589 579.562 114.289 579.719 113.992C579.875 113.695 580.099 113.427 580.391 113.188C580.688 112.943 581.042 112.75 581.453 112.609C581.87 112.464 582.333 112.391 582.844 112.391C583.458 112.391 584 112.495 584.469 112.703C584.943 112.911 585.312 113.227 585.578 113.648C585.849 114.065 585.984 114.589 585.984 115.219V119.156C585.984 119.438 586.008 119.737 586.055 120.055C586.107 120.372 586.182 120.646 586.281 120.875V121H584.773C584.701 120.833 584.643 120.612 584.602 120.336C584.56 120.055 584.539 119.794 584.539 119.555ZM584.789 115.875L584.805 116.891H583.344C582.932 116.891 582.565 116.924 582.242 116.992C581.919 117.055 581.648 117.151 581.43 117.281C581.211 117.411 581.044 117.576 580.93 117.773C580.815 117.966 580.758 118.193 580.758 118.453C580.758 118.719 580.818 118.961 580.938 119.18C581.057 119.398 581.237 119.573 581.477 119.703C581.721 119.828 582.021 119.891 582.375 119.891C582.818 119.891 583.208 119.797 583.547 119.609C583.885 119.422 584.154 119.193 584.352 118.922C584.555 118.651 584.664 118.388 584.68 118.133L585.297 118.828C585.26 119.047 585.161 119.289 585 119.555C584.839 119.82 584.622 120.076 584.352 120.32C584.086 120.56 583.768 120.76 583.398 120.922C583.034 121.078 582.622 121.156 582.164 121.156C581.591 121.156 581.089 121.044 580.656 120.82C580.229 120.596 579.896 120.297 579.656 119.922C579.422 119.542 579.305 119.117 579.305 118.648C579.305 118.195 579.393 117.797 579.57 117.453C579.747 117.104 580.003 116.815 580.336 116.586C580.669 116.352 581.07 116.174 581.539 116.055C582.008 115.935 582.531 115.875 583.109 115.875H584.789ZM591.578 112.547V121H590.125V112.547H591.578ZM594.414 112.547V113.719H587.344V112.547H594.414ZM598.719 121.156C598.13 121.156 597.596 121.057 597.117 120.859C596.643 120.656 596.234 120.372 595.891 120.008C595.552 119.643 595.292 119.211 595.109 118.711C594.927 118.211 594.836 117.664 594.836 117.07V116.742C594.836 116.055 594.938 115.443 595.141 114.906C595.344 114.365 595.62 113.906 595.969 113.531C596.318 113.156 596.714 112.872 597.156 112.68C597.599 112.487 598.057 112.391 598.531 112.391C599.135 112.391 599.656 112.495 600.094 112.703C600.536 112.911 600.898 113.203 601.18 113.578C601.461 113.948 601.669 114.385 601.805 114.891C601.94 115.391 602.008 115.938 602.008 116.531V117.18H595.695V116H600.562V115.891C600.542 115.516 600.464 115.151 600.328 114.797C600.198 114.443 599.99 114.151 599.703 113.922C599.417 113.693 599.026 113.578 598.531 113.578C598.203 113.578 597.901 113.648 597.625 113.789C597.349 113.924 597.112 114.128 596.914 114.398C596.716 114.669 596.562 115 596.453 115.391C596.344 115.781 596.289 116.232 596.289 116.742V117.07C596.289 117.471 596.344 117.849 596.453 118.203C596.568 118.552 596.732 118.859 596.945 119.125C597.164 119.391 597.427 119.599 597.734 119.75C598.047 119.901 598.401 119.977 598.797 119.977C599.307 119.977 599.74 119.872 600.094 119.664C600.448 119.456 600.758 119.177 601.023 118.828L601.898 119.523C601.716 119.799 601.484 120.062 601.203 120.312C600.922 120.562 600.576 120.766 600.164 120.922C599.758 121.078 599.276 121.156 598.719 121.156ZM606.258 117.32L603.055 112.547H604.797L606.984 116.047H608.672L608.461 117.32H606.258ZM607.047 117.172L604.594 121H602.766L606.133 116.125L607.047 117.172ZM609.414 112.547V121H607.969V112.547H609.414ZM614.344 112.547L611.141 117.32H608.938L608.711 116.047H610.406L612.594 112.547H614.344ZM612.797 121L610.336 117.172L611.266 116.125L614.625 121H612.797Z" fill="black"/>
<path d="M557.605 30.125V32H548.074V30.3887L552.703 25.3398C553.211 24.7669 553.611 24.2721 553.904 23.8555C554.197 23.4388 554.402 23.0645 554.52 22.7324C554.643 22.3939 554.705 22.0651 554.705 21.7461C554.705 21.2969 554.62 20.903 554.451 20.5645C554.288 20.2194 554.048 19.9492 553.729 19.7539C553.41 19.5521 553.022 19.4512 552.566 19.4512C552.039 19.4512 551.596 19.5651 551.238 19.793C550.88 20.0208 550.61 20.3366 550.428 20.7402C550.245 21.1374 550.154 21.5931 550.154 22.1074H547.801C547.801 21.2806 547.99 20.5254 548.367 19.8418C548.745 19.1517 549.292 18.6048 550.008 18.2012C550.724 17.791 551.587 17.5859 552.596 17.5859C553.546 17.5859 554.354 17.7454 555.018 18.0645C555.682 18.3835 556.186 18.8359 556.531 19.4219C556.883 20.0078 557.059 20.7012 557.059 21.502C557.059 21.9447 556.987 22.3841 556.844 22.8203C556.701 23.2565 556.495 23.6927 556.229 24.1289C555.968 24.5586 555.659 24.9915 555.301 25.4277C554.943 25.8574 554.549 26.2936 554.119 26.7363L551.043 30.125H557.605ZM568.709 23.6992V26.0234C568.709 27.1367 568.598 28.0872 568.377 28.875C568.162 29.6562 567.85 30.291 567.439 30.7793C567.029 31.2676 566.538 31.6257 565.965 31.8535C565.398 32.0814 564.764 32.1953 564.061 32.1953C563.501 32.1953 562.98 32.1237 562.498 31.9805C562.023 31.8372 561.593 31.6126 561.209 31.3066C560.825 31.0007 560.496 30.6068 560.223 30.125C559.956 29.6367 559.747 29.054 559.598 28.377C559.454 27.6999 559.383 26.9154 559.383 26.0234V23.6992C559.383 22.5794 559.493 21.6354 559.715 20.8672C559.936 20.0924 560.252 19.4642 560.662 18.9824C561.072 18.4941 561.561 18.1393 562.127 17.918C562.7 17.6966 563.338 17.5859 564.041 17.5859C564.607 17.5859 565.128 17.6576 565.604 17.8008C566.085 17.9375 566.515 18.1556 566.893 18.4551C567.277 18.7546 567.602 19.1452 567.869 19.627C568.143 20.1022 568.351 20.6784 568.494 21.3555C568.637 22.026 568.709 22.8073 568.709 23.6992ZM566.355 26.3555V23.3477C566.355 22.7812 566.323 22.2832 566.258 21.8535C566.193 21.4173 566.095 21.0495 565.965 20.75C565.841 20.444 565.685 20.1966 565.496 20.0078C565.307 19.8125 565.092 19.6725 564.852 19.5879C564.611 19.4967 564.34 19.4512 564.041 19.4512C563.676 19.4512 563.351 19.5228 563.064 19.666C562.778 19.8027 562.537 20.0241 562.342 20.3301C562.146 20.6361 561.997 21.0397 561.893 21.541C561.795 22.0358 561.746 22.638 561.746 23.3477V26.3555C561.746 26.9284 561.779 27.4329 561.844 27.8691C561.909 28.3053 562.007 28.6797 562.137 28.9922C562.267 29.2982 562.423 29.5521 562.605 29.7539C562.794 29.9492 563.009 30.0924 563.25 30.1836C563.497 30.2747 563.768 30.3203 564.061 30.3203C564.432 30.3203 564.76 30.2487 565.047 30.1055C565.333 29.9622 565.574 29.7344 565.77 29.4219C565.965 29.1029 566.111 28.6895 566.209 28.1816C566.307 27.6738 566.355 27.0651 566.355 26.3555ZM570.711 21.2676V20.5156C570.711 19.9753 570.828 19.4837 571.062 19.041C571.297 18.5983 571.639 18.2435 572.088 17.9766C572.537 17.7096 573.077 17.5762 573.709 17.5762C574.36 17.5762 574.907 17.7096 575.35 17.9766C575.799 18.2435 576.141 18.5983 576.375 19.041C576.609 19.4837 576.727 19.9753 576.727 20.5156V21.2676C576.727 21.7949 576.609 22.2799 576.375 22.7227C576.147 23.1654 575.809 23.5202 575.359 23.7871C574.917 24.054 574.373 24.1875 573.729 24.1875C573.09 24.1875 572.544 24.054 572.088 23.7871C571.639 23.5202 571.297 23.1654 571.062 22.7227C570.828 22.2799 570.711 21.7949 570.711 21.2676ZM572.342 20.5156V21.2676C572.342 21.528 572.391 21.7754 572.488 22.0098C572.592 22.2441 572.749 22.4329 572.957 22.5762C573.165 22.7194 573.423 22.791 573.729 22.791C574.041 22.791 574.295 22.7194 574.49 22.5762C574.692 22.4329 574.842 22.2441 574.939 22.0098C575.037 21.7754 575.086 21.528 575.086 21.2676V20.5156C575.086 20.2487 575.034 19.998 574.93 19.7637C574.832 19.5228 574.682 19.3307 574.48 19.1875C574.279 19.0443 574.021 18.9727 573.709 18.9727C573.41 18.9727 573.156 19.0443 572.947 19.1875C572.745 19.3307 572.592 19.5228 572.488 19.7637C572.391 19.998 572.342 20.2487 572.342 20.5156ZM577.566 29.2754V28.5137C577.566 27.9798 577.684 27.4915 577.918 27.0488C578.159 26.6061 578.504 26.2513 578.953 25.9844C579.402 25.7174 579.943 25.584 580.574 25.584C581.225 25.584 581.772 25.7174 582.215 25.9844C582.664 26.2513 583.003 26.6061 583.23 27.0488C583.465 27.4915 583.582 27.9798 583.582 28.5137V29.2754C583.582 29.8092 583.465 30.2975 583.23 30.7402C583.003 31.1829 582.667 31.5378 582.225 31.8047C581.782 32.0716 581.238 32.2051 580.594 32.2051C579.956 32.2051 579.409 32.0716 578.953 31.8047C578.504 31.5378 578.159 31.1829 577.918 30.7402C577.684 30.2975 577.566 29.8092 577.566 29.2754ZM579.207 28.5137V29.2754C579.207 29.5358 579.259 29.7832 579.363 30.0176C579.474 30.252 579.633 30.444 579.842 30.5938C580.05 30.737 580.301 30.8086 580.594 30.8086C580.926 30.8086 581.193 30.737 581.395 30.5938C581.596 30.444 581.74 30.2552 581.824 30.0273C581.915 29.793 581.961 29.5423 581.961 29.2754V28.5137C581.961 28.2467 581.909 27.9961 581.805 27.7617C581.707 27.5273 581.554 27.3385 581.346 27.1953C581.144 27.0521 580.887 26.9805 580.574 26.9805C580.268 26.9805 580.014 27.0521 579.812 27.1953C579.611 27.3385 579.458 27.5273 579.354 27.7617C579.256 27.9961 579.207 28.2467 579.207 28.5137ZM581.16 19.8125L574.217 30.9258L573.016 30.2324L579.959 19.1191L581.16 19.8125Z" fill="black"/>
<path d="M681.492 109.609H681.617V110.836H681.492C680.727 110.836 680.086 110.961 679.57 111.211C679.055 111.456 678.646 111.786 678.344 112.203C678.042 112.615 677.823 113.078 677.688 113.594C677.557 114.109 677.492 114.633 677.492 115.164V116.836C677.492 117.341 677.552 117.789 677.672 118.18C677.792 118.565 677.956 118.891 678.164 119.156C678.372 119.422 678.607 119.622 678.867 119.758C679.133 119.893 679.409 119.961 679.695 119.961C680.029 119.961 680.326 119.898 680.586 119.773C680.846 119.643 681.065 119.464 681.242 119.234C681.424 119 681.562 118.724 681.656 118.406C681.75 118.089 681.797 117.74 681.797 117.359C681.797 117.021 681.755 116.695 681.672 116.383C681.589 116.065 681.461 115.784 681.289 115.539C681.117 115.289 680.901 115.094 680.641 114.953C680.385 114.807 680.081 114.734 679.727 114.734C679.326 114.734 678.951 114.833 678.602 115.031C678.258 115.224 677.974 115.479 677.75 115.797C677.531 116.109 677.406 116.451 677.375 116.82L676.609 116.812C676.682 116.229 676.818 115.732 677.016 115.32C677.219 114.904 677.469 114.565 677.766 114.305C678.068 114.039 678.404 113.846 678.773 113.727C679.148 113.602 679.544 113.539 679.961 113.539C680.529 113.539 681.018 113.646 681.43 113.859C681.841 114.073 682.18 114.359 682.445 114.719C682.711 115.073 682.906 115.474 683.031 115.922C683.161 116.365 683.227 116.82 683.227 117.289C683.227 117.826 683.151 118.328 683 118.797C682.849 119.266 682.622 119.677 682.32 120.031C682.023 120.385 681.656 120.661 681.219 120.859C680.781 121.057 680.273 121.156 679.695 121.156C679.081 121.156 678.544 121.031 678.086 120.781C677.628 120.526 677.247 120.188 676.945 119.766C676.643 119.344 676.417 118.875 676.266 118.359C676.115 117.844 676.039 117.32 676.039 116.789V116.109C676.039 115.307 676.12 114.521 676.281 113.75C676.443 112.979 676.721 112.281 677.117 111.656C677.518 111.031 678.073 110.534 678.781 110.164C679.49 109.794 680.393 109.609 681.492 109.609ZM694.703 112.547V113.742H690.43V112.547H694.703ZM690.641 112.547V121H689.195V112.547H690.641ZM695.984 112.547V121H694.531V112.547H695.984ZM703.953 112.547V113.742H699.867V112.547H703.953ZM705.227 112.547V121H703.781V112.547H705.227ZM699.516 112.547H700.969L700.75 116.625C700.714 117.255 700.654 117.812 700.57 118.297C700.492 118.776 700.383 119.188 700.242 119.531C700.107 119.875 699.935 120.156 699.727 120.375C699.523 120.589 699.279 120.747 698.992 120.852C698.706 120.951 698.375 121 698 121H697.547V119.727L697.859 119.703C698.083 119.688 698.273 119.635 698.43 119.547C698.591 119.458 698.727 119.328 698.836 119.156C698.945 118.979 699.034 118.753 699.102 118.477C699.174 118.201 699.229 117.872 699.266 117.492C699.307 117.112 699.339 116.669 699.359 116.164L699.516 112.547ZM712.539 119.555V115.203C712.539 114.87 712.471 114.581 712.336 114.336C712.206 114.086 712.008 113.893 711.742 113.758C711.477 113.622 711.148 113.555 710.758 113.555C710.393 113.555 710.073 113.617 709.797 113.742C709.526 113.867 709.312 114.031 709.156 114.234C709.005 114.438 708.93 114.656 708.93 114.891H707.484C707.484 114.589 707.562 114.289 707.719 113.992C707.875 113.695 708.099 113.427 708.391 113.188C708.688 112.943 709.042 112.75 709.453 112.609C709.87 112.464 710.333 112.391 710.844 112.391C711.458 112.391 712 112.495 712.469 112.703C712.943 112.911 713.312 113.227 713.578 113.648C713.849 114.065 713.984 114.589 713.984 115.219V119.156C713.984 119.438 714.008 119.737 714.055 120.055C714.107 120.372 714.182 120.646 714.281 120.875V121H712.773C712.701 120.833 712.643 120.612 712.602 120.336C712.56 120.055 712.539 119.794 712.539 119.555ZM712.789 115.875L712.805 116.891H711.344C710.932 116.891 710.565 116.924 710.242 116.992C709.919 117.055 709.648 117.151 709.43 117.281C709.211 117.411 709.044 117.576 708.93 117.773C708.815 117.966 708.758 118.193 708.758 118.453C708.758 118.719 708.818 118.961 708.938 119.18C709.057 119.398 709.237 119.573 709.477 119.703C709.721 119.828 710.021 119.891 710.375 119.891C710.818 119.891 711.208 119.797 711.547 119.609C711.885 119.422 712.154 119.193 712.352 118.922C712.555 118.651 712.664 118.388 712.68 118.133L713.297 118.828C713.26 119.047 713.161 119.289 713 119.555C712.839 119.82 712.622 120.076 712.352 120.32C712.086 120.56 711.768 120.76 711.398 120.922C711.034 121.078 710.622 121.156 710.164 121.156C709.591 121.156 709.089 121.044 708.656 120.82C708.229 120.596 707.896 120.297 707.656 119.922C707.422 119.542 707.305 119.117 707.305 118.648C707.305 118.195 707.393 117.797 707.57 117.453C707.747 117.104 708.003 116.815 708.336 116.586C708.669 116.352 709.07 116.174 709.539 116.055C710.008 115.935 710.531 115.875 711.109 115.875H712.789ZM719.578 112.547V121H718.125V112.547H719.578ZM722.414 112.547V113.719H715.344V112.547H722.414ZM726.719 121.156C726.13 121.156 725.596 121.057 725.117 120.859C724.643 120.656 724.234 120.372 723.891 120.008C723.552 119.643 723.292 119.211 723.109 118.711C722.927 118.211 722.836 117.664 722.836 117.07V116.742C722.836 116.055 722.938 115.443 723.141 114.906C723.344 114.365 723.62 113.906 723.969 113.531C724.318 113.156 724.714 112.872 725.156 112.68C725.599 112.487 726.057 112.391 726.531 112.391C727.135 112.391 727.656 112.495 728.094 112.703C728.536 112.911 728.898 113.203 729.18 113.578C729.461 113.948 729.669 114.385 729.805 114.891C729.94 115.391 730.008 115.938 730.008 116.531V117.18H723.695V116H728.562V115.891C728.542 115.516 728.464 115.151 728.328 114.797C728.198 114.443 727.99 114.151 727.703 113.922C727.417 113.693 727.026 113.578 726.531 113.578C726.203 113.578 725.901 113.648 725.625 113.789C725.349 113.924 725.112 114.128 724.914 114.398C724.716 114.669 724.562 115 724.453 115.391C724.344 115.781 724.289 116.232 724.289 116.742V117.07C724.289 117.471 724.344 117.849 724.453 118.203C724.568 118.552 724.732 118.859 724.945 119.125C725.164 119.391 725.427 119.599 725.734 119.75C726.047 119.901 726.401 119.977 726.797 119.977C727.307 119.977 727.74 119.872 728.094 119.664C728.448 119.456 728.758 119.177 729.023 118.828L729.898 119.523C729.716 119.799 729.484 120.062 729.203 120.312C728.922 120.562 728.576 120.766 728.164 120.922C727.758 121.078 727.276 121.156 726.719 121.156ZM734.258 117.32L731.055 112.547H732.797L734.984 116.047H736.672L736.461 117.32H734.258ZM735.047 117.172L732.594 121H730.766L734.133 116.125L735.047 117.172ZM737.414 112.547V121H735.969V112.547H737.414ZM742.344 112.547L739.141 117.32H736.938L736.711 116.047H738.406L740.594 112.547H742.344ZM740.797 121L738.336 117.172L739.266 116.125L742.625 121H740.797Z" fill="black"/>
<path d="M682.5 17.7324V32H680.146V20.5254L676.66 21.707V19.7637L682.217 17.7324H682.5ZM696.709 23.6992V26.0234C696.709 27.1367 696.598 28.0872 696.377 28.875C696.162 29.6562 695.85 30.291 695.439 30.7793C695.029 31.2676 694.538 31.6257 693.965 31.8535C693.398 32.0814 692.764 32.1953 692.061 32.1953C691.501 32.1953 690.98 32.1237 690.498 31.9805C690.023 31.8372 689.593 31.6126 689.209 31.3066C688.825 31.0007 688.496 30.6068 688.223 30.125C687.956 29.6367 687.747 29.054 687.598 28.377C687.454 27.6999 687.383 26.9154 687.383 26.0234V23.6992C687.383 22.5794 687.493 21.6354 687.715 20.8672C687.936 20.0924 688.252 19.4642 688.662 18.9824C689.072 18.4941 689.561 18.1393 690.127 17.918C690.7 17.6966 691.338 17.5859 692.041 17.5859C692.607 17.5859 693.128 17.6576 693.604 17.8008C694.085 17.9375 694.515 18.1556 694.893 18.4551C695.277 18.7546 695.602 19.1452 695.869 19.627C696.143 20.1022 696.351 20.6784 696.494 21.3555C696.637 22.026 696.709 22.8073 696.709 23.6992ZM694.355 26.3555V23.3477C694.355 22.7812 694.323 22.2832 694.258 21.8535C694.193 21.4173 694.095 21.0495 693.965 20.75C693.841 20.444 693.685 20.1966 693.496 20.0078C693.307 19.8125 693.092 19.6725 692.852 19.5879C692.611 19.4967 692.34 19.4512 692.041 19.4512C691.676 19.4512 691.351 19.5228 691.064 19.666C690.778 19.8027 690.537 20.0241 690.342 20.3301C690.146 20.6361 689.997 21.0397 689.893 21.541C689.795 22.0358 689.746 22.638 689.746 23.3477V26.3555C689.746 26.9284 689.779 27.4329 689.844 27.8691C689.909 28.3053 690.007 28.6797 690.137 28.9922C690.267 29.2982 690.423 29.5521 690.605 29.7539C690.794 29.9492 691.009 30.0924 691.25 30.1836C691.497 30.2747 691.768 30.3203 692.061 30.3203C692.432 30.3203 692.76 30.2487 693.047 30.1055C693.333 29.9622 693.574 29.7344 693.77 29.4219C693.965 29.1029 694.111 28.6895 694.209 28.1816C694.307 27.6738 694.355 27.0651 694.355 26.3555ZM698.711 21.2676V20.5156C698.711 19.9753 698.828 19.4837 699.062 19.041C699.297 18.5983 699.639 18.2435 700.088 17.9766C700.537 17.7096 701.077 17.5762 701.709 17.5762C702.36 17.5762 702.907 17.7096 703.35 17.9766C703.799 18.2435 704.141 18.5983 704.375 19.041C704.609 19.4837 704.727 19.9753 704.727 20.5156V21.2676C704.727 21.7949 704.609 22.2799 704.375 22.7227C704.147 23.1654 703.809 23.5202 703.359 23.7871C702.917 24.054 702.373 24.1875 701.729 24.1875C701.09 24.1875 700.544 24.054 700.088 23.7871C699.639 23.5202 699.297 23.1654 699.062 22.7227C698.828 22.2799 698.711 21.7949 698.711 21.2676ZM700.342 20.5156V21.2676C700.342 21.528 700.391 21.7754 700.488 22.0098C700.592 22.2441 700.749 22.4329 700.957 22.5762C701.165 22.7194 701.423 22.791 701.729 22.791C702.041 22.791 702.295 22.7194 702.49 22.5762C702.692 22.4329 702.842 22.2441 702.939 22.0098C703.037 21.7754 703.086 21.528 703.086 21.2676V20.5156C703.086 20.2487 703.034 19.998 702.93 19.7637C702.832 19.5228 702.682 19.3307 702.48 19.1875C702.279 19.0443 702.021 18.9727 701.709 18.9727C701.41 18.9727 701.156 19.0443 700.947 19.1875C700.745 19.3307 700.592 19.5228 700.488 19.7637C700.391 19.998 700.342 20.2487 700.342 20.5156ZM705.566 29.2754V28.5137C705.566 27.9798 705.684 27.4915 705.918 27.0488C706.159 26.6061 706.504 26.2513 706.953 25.9844C707.402 25.7174 707.943 25.584 708.574 25.584C709.225 25.584 709.772 25.7174 710.215 25.9844C710.664 26.2513 711.003 26.6061 711.23 27.0488C711.465 27.4915 711.582 27.9798 711.582 28.5137V29.2754C711.582 29.8092 711.465 30.2975 711.23 30.7402C711.003 31.1829 710.667 31.5378 710.225 31.8047C709.782 32.0716 709.238 32.2051 708.594 32.2051C707.956 32.2051 707.409 32.0716 706.953 31.8047C706.504 31.5378 706.159 31.1829 705.918 30.7402C705.684 30.2975 705.566 29.8092 705.566 29.2754ZM707.207 28.5137V29.2754C707.207 29.5358 707.259 29.7832 707.363 30.0176C707.474 30.252 707.633 30.444 707.842 30.5938C708.05 30.737 708.301 30.8086 708.594 30.8086C708.926 30.8086 709.193 30.737 709.395 30.5938C709.596 30.444 709.74 30.2552 709.824 30.0273C709.915 29.793 709.961 29.5423 709.961 29.2754V28.5137C709.961 28.2467 709.909 27.9961 709.805 27.7617C709.707 27.5273 709.554 27.3385 709.346 27.1953C709.144 27.0521 708.887 26.9805 708.574 26.9805C708.268 26.9805 708.014 27.0521 707.812 27.1953C707.611 27.3385 707.458 27.5273 707.354 27.7617C707.256 27.9961 707.207 28.2467 707.207 28.5137ZM709.16 19.8125L702.217 30.9258L701.016 30.2324L707.959 19.1191L709.16 19.8125Z" fill="black"/>
<path d="M742.5 59C749.404 59 755 64.5964 755 71.5V71.5C755 78.4036 749.404 84 742.5 84H675.5V59H705.25H742.5Z" fill="#28304F"/>
<path d="M546 84V59L675.5 59V84H546Z" fill="#28304F" fill-opacity="0.8"/>
<path d="M435.5 59V84H337V59L435.5 59Z" fill="#28304F" fill-opacity="0.5"/>
<path d="M337 59V84H83V59L337 59Z" fill="#28304F" fill-opacity="0.35"/>
<path d="M12.5 84C5.59644 84 0 78.4036 0 71.5V71.5C0 64.5964 5.59644 59 12.5 59L83 59V84H12.5Z" fill="#28304F" fill-opacity="0.2"/>
<path d="M435.5 84V59H546V84H435.5Z" fill="#28304F" fill-opacity="0.65"/>
</svg>
