<svg viewBox="0 0 24 24" fill="none" xmlns="http://www.w3.org/2000/svg">
<path fill-rule="evenodd" clip-rule="evenodd" d="M4 4.75C3.9337 4.75 3.87011 4.77634 3.82322 4.82322C3.77634 4.87011 3.75 4.9337 3.75 5V15C3.75 15.0663 3.77634 15.1299 3.82322 15.1768C3.87011 15.2237 3.9337 15.25 4 15.25H9H15H20C20.0663 15.25 20.1299 15.2237 20.1768 15.1768C20.2237 15.1299 20.25 15.0663 20.25 15V5C20.25 4.93369 20.2237 4.87011 20.1768 4.82322C20.1299 4.77634 20.0663 4.75 20 4.75H4ZM20 16.75H15.75V19.25H17C17.4142 19.25 17.75 19.5858 17.75 20C17.75 20.4142 17.4142 20.75 17 20.75H15H9H7C6.58579 20.75 6.25 20.4142 6.25 20C6.25 19.5858 6.58579 19.25 7 19.25H8.25V16.75H4C3.53587 16.75 3.09075 16.5656 2.76256 16.2374C2.43437 15.9092 2.25 15.4641 2.25 15V5C2.25 4.53587 2.43437 4.09075 2.76256 3.76256C3.09075 3.43437 3.53587 3.25 4 3.25H20C20.4641 3.25 20.9092 3.43437 21.2374 3.76256C21.5656 4.09075 21.75 4.53587 21.75 5V15C21.75 15.4641 21.5656 15.9092 21.2374 16.2374C20.9092 16.5656 20.4641 16.75 20 16.75ZM9.75 16.75H14.25V19.25H9.75V16.75ZM16.5303 8.53033C16.8232 8.23744 16.8232 7.76256 16.5303 7.46967C16.2374 7.17678 15.7626 7.17678 15.4697 7.46967L13 9.93934L11.5303 8.46967C11.2374 8.17678 10.7626 8.17678 10.4697 8.46967L7.46967 11.4697C7.17678 11.7626 7.17678 12.2374 7.46967 12.5303C7.76256 12.8232 8.23744 12.8232 8.53033 12.5303L11 10.0607L12.4697 11.5303C12.7626 11.8232 13.2374 11.8232 13.5303 11.5303L16.5303 8.53033Z" fill="currentColor"/>
</svg>
