<svg viewBox="0 0 49 48" fill="none" xmlns="http://www.w3.org/2000/svg">
<path d="M37.0938 6.0293C38.467 6.16582 39.7578 6.77342 40.7422 7.75781C41.8674 8.88303 42.5 10.4087 42.5 12V16C42.5 16.4841 42.3245 16.9519 42.0059 17.3164L35.0059 25.3164C34.2787 26.1474 33.0149 26.2326 32.1836 25.5059C31.3526 24.7787 31.2674 23.5149 31.9941 22.6836L38.5 15.248V12C38.5 11.4696 38.2891 10.961 37.9141 10.5859C37.5858 10.2577 37.1553 10.0551 36.6973 10.0098L36.5 10H26.5V38H36.5C37.0304 38 37.539 37.7891 37.9141 37.4141C38.2891 37.039 38.5 36.5304 38.5 36V28C38.5 26.8954 39.3954 26 40.5 26C41.6046 26 42.5 26.8954 42.5 28V36C42.5 37.5913 41.8674 39.117 40.7422 40.2422C39.617 41.3674 38.0913 42 36.5 42H12.5C10.9087 42 9.38303 41.3674 8.25781 40.2422C7.27342 39.2578 6.66582 37.967 6.5293 36.5938L6.5 36V12C6.5 10.4087 7.13259 8.88303 8.25781 7.75781C9.38303 6.63259 10.9087 6 12.5 6H36.5L37.0938 6.0293ZM10.5 26V36L10.5098 36.1973C10.5551 36.6553 10.7577 37.0858 11.0859 37.4141C11.461 37.7891 11.9696 38 12.5 38H22.5V26H10.5ZM12.5 10C11.9696 10 11.461 10.2109 11.0859 10.5859C10.7109 10.961 10.5 11.4696 10.5 12V22H22.5V10H12.5Z" fill="currentColor"/>
</svg>
