<svg viewBox="0 0 24 24" fill="none" xmlns="http://www.w3.org/2000/svg">
<path fill-rule="evenodd" clip-rule="evenodd" d="M11.209 2.94321C11.2387 2.55215 11.5647 2.25 11.9569 2.25H12.0431C12.4355 2.25 12.7615 2.55243 12.791 2.94369C13.1234 7.3583 16.641 10.8737 21.0568 11.209C21.4478 11.2387 21.75 11.5647 21.75 11.9569V12.0431C21.75 12.4355 21.4476 12.7615 21.0563 12.791C16.6417 13.1234 13.1263 16.641 12.791 21.0568C12.7613 21.4478 12.4353 21.75 12.0431 21.75H11.9569C11.5645 21.75 11.2385 21.4476 11.209 21.0563C10.8766 16.6417 7.359 13.1263 2.94321 12.791C2.55215 12.7613 2.25 12.4353 2.25 12.0431V11.9569C2.25 11.5645 2.55243 11.2385 2.94369 11.209C7.3583 10.8766 10.8737 7.359 11.209 2.94321ZM11.9994 6.12131C10.9366 8.80216 8.80187 10.938 6.12131 12.0006C8.80217 13.0634 10.938 15.1981 12.0006 17.8787C13.0634 15.1978 15.1981 13.062 17.8787 11.9994C15.1978 10.9366 13.062 8.80187 11.9994 6.12131Z" fill="currentColor"/>
</svg>
