<svg width="24" height="24" viewBox="0 0 24 24" fill="none" xmlns="http://www.w3.org/2000/svg">
<path d="M20.25 16.5488C20.1434 16.6245 20.0336 16.697 19.9209 16.7646C18.881 17.3885 17.4929 17.75 16 17.75C14.5071 17.75 13.119 17.3885 12.0791 16.7646C11.9664 16.697 11.8566 16.6245 11.75 16.5488V18C11.75 18.4615 12.0659 19.0077 12.8506 19.4785C13.6204 19.9403 14.7322 20.25 16 20.25C17.2678 20.25 18.3796 19.9403 19.1494 19.4785C19.9342 19.0077 20.25 18.4615 20.25 18V16.5488ZM4.25 16V15.75H3C2.58579 15.75 2.25 15.4142 2.25 15C2.25 14.5858 2.58579 14.25 3 14.25H5.5L5.64746 14.2354C5.79145 14.2065 5.9249 14.1356 6.03027 14.0303C6.17093 13.8896 6.25 13.6989 6.25 13.5C6.25 13.3011 6.17093 13.1104 6.03027 12.9697C5.9249 12.8644 5.79145 12.7935 5.64746 12.7646L5.5 12.75H4.5C3.90326 12.75 3.33114 12.5128 2.90918 12.0908C2.48722 11.6689 2.25 11.0967 2.25 10.5C2.25 9.90326 2.48722 9.33114 2.90918 8.90918C3.27177 8.54659 3.74528 8.32108 4.25 8.26465V8C4.25 7.58579 4.58579 7.25 5 7.25C5.41421 7.25 5.75 7.58579 5.75 8V8.25H7C7.41421 8.25 7.75 8.58579 7.75 9C7.75 9.41421 7.41421 9.75 7 9.75H4.5C4.30109 9.75 4.11038 9.82907 3.96973 9.96973C3.82907 10.1104 3.75 10.3011 3.75 10.5C3.75 10.6989 3.82907 10.8896 3.96973 11.0303C4.11038 11.1709 4.30109 11.25 4.5 11.25H5.5C6.09674 11.25 6.66886 11.4872 7.09082 11.9092C7.51278 12.3311 7.75 12.9033 7.75 13.5C7.75 14.0967 7.51278 14.6689 7.09082 15.0908C6.72826 15.4534 6.25468 15.6779 5.75 15.7344V16C5.75 16.4142 5.41421 16.75 5 16.75C4.58579 16.75 4.25 16.4142 4.25 16ZM20.25 12.5488C20.1434 12.6245 20.0336 12.697 19.9209 12.7646C18.881 13.3885 17.4929 13.75 16 13.75C14.5071 13.75 13.119 13.3885 12.0791 12.7646C11.9664 12.697 11.8566 12.6245 11.75 12.5488V14C11.75 14.4615 12.0659 15.0077 12.8506 15.4785C13.6204 15.9403 14.7322 16.25 16 16.25C17.2678 16.25 18.3796 15.9403 19.1494 15.4785C19.9342 15.0077 20.25 14.4615 20.25 14V12.5488ZM20.25 8.54785C20.1441 8.62314 20.0353 8.69658 19.9219 8.76465C18.8451 9.41072 17.4331 9.75 16 9.75C14.5669 9.75 13.1549 9.41072 12.0781 8.76465C11.9647 8.69658 11.8559 8.62314 11.75 8.54785V10C11.75 10.4615 12.0659 11.0077 12.8506 11.4785C13.6204 11.9403 14.7322 12.25 16 12.25C17.2678 12.25 18.3796 11.9403 19.1494 11.4785C19.9342 11.0077 20.25 10.4615 20.25 10V8.54785ZM20.25 6C20.25 5.56194 19.9557 5.00526 19.1494 4.52148C18.3509 4.04245 17.2189 3.75 16 3.75C14.7811 3.75 13.6491 4.04245 12.8506 4.52148C12.0443 5.00526 11.75 5.56194 11.75 6L11.7646 6.16992C11.8321 6.57638 12.1454 7.0554 12.8506 7.47852C13.6491 7.95755 14.7811 8.25 16 8.25C17.2189 8.25 18.3509 7.95755 19.1494 7.47852C19.9557 6.99474 20.25 6.43806 20.25 6ZM21.75 18C21.75 19.1955 20.9459 20.1497 19.9209 20.7646C18.881 21.3885 17.4929 21.75 16 21.75C14.5071 21.75 13.119 21.3885 12.0791 20.7646C11.0541 20.1497 10.25 19.1955 10.25 18V6C10.25 4.84685 11.0092 3.8768 12.0781 3.23535C13.1549 2.58928 14.5669 2.25 16 2.25C17.4331 2.25 18.8451 2.58928 19.9219 3.23535C20.9908 3.8768 21.75 4.84685 21.75 6V18Z" fill="#202020"/>
</svg>
