<svg viewBox="0 0 21 20" fill="none" xmlns="http://www.w3.org/2000/svg">
<path fill-rule="evenodd" clip-rule="evenodd" d="M7.5316 3.96871C7.04543 3.91685 6.55378 3.96621 6.08762 4.11369C5.62146 4.26117 5.19089 4.50358 4.82302 4.82564C4.45514 5.1477 4.15794 5.54244 3.95012 5.98501C3.7423 6.42757 3.62836 6.90838 3.61549 7.39714C3.60261 7.8859 3.69108 8.37203 3.87531 8.82493C4.05954 9.27782 4.33555 9.68766 4.68596 10.0286L4.68991 10.0325L4.68989 10.0325L10.5001 15.7869L16.3103 10.0325C16.3256 10.0173 16.3416 10.0031 16.358 9.98979C16.684 9.65768 16.9414 9.26443 17.1155 8.8324C17.2976 8.3803 17.3845 7.89548 17.3706 7.40827C17.3567 6.92106 17.2425 6.44195 17.0349 6.00094C16.8274 5.55992 16.5311 5.16649 16.1645 4.84527C15.7979 4.52405 15.369 4.28195 14.9045 4.13412C14.4401 3.9863 13.9501 3.93593 13.4653 3.98617C12.9805 4.03642 12.5113 4.18619 12.087 4.42611C11.6627 4.66603 11.2925 4.99095 10.9996 5.38051C10.8812 5.53802 10.6954 5.63045 10.4983 5.6299C10.3013 5.62935 10.116 5.53589 9.99846 5.37773C9.70681 4.98531 9.33706 4.65753 8.9125 4.41504C8.48794 4.17254 8.01777 4.02057 7.5316 3.96871ZM17.1398 10.9703L10.9399 17.1106C10.6963 17.3519 10.3039 17.3519 10.0603 17.1106L3.81421 10.9245C3.81353 10.9238 3.81285 10.9232 3.81216 10.9225C3.33906 10.4616 2.96634 9.90779 2.71745 9.29594C2.46819 8.6832 2.3485 8.02549 2.36592 7.36422C2.38334 6.70296 2.53749 6.05246 2.81866 5.45369C3.09982 4.85493 3.50193 4.32086 3.99964 3.88513C4.49735 3.44941 5.07989 3.12145 5.71057 2.92192C6.34126 2.72238 7.00643 2.6556 7.66419 2.72576C8.32195 2.79593 8.95807 3.00153 9.53247 3.32961C9.88652 3.53184 10.2124 3.7779 10.5027 4.06125C10.7931 3.78093 11.1186 3.53773 11.4717 3.33804C12.0457 3.01344 12.6805 2.81081 13.3364 2.74283C13.9924 2.67486 14.6552 2.743 15.2836 2.943C15.912 3.143 16.4923 3.47055 16.9883 3.90514C17.4842 4.33974 17.8852 4.87202 18.1659 5.46869C18.4467 6.06536 18.6013 6.71356 18.6201 7.37272C18.6388 8.03189 18.5213 8.68783 18.2749 9.29949C18.0285 9.91115 17.6585 10.4654 17.188 10.9275C17.1725 10.9427 17.1564 10.957 17.1398 10.9703Z" fill="currentColor"/>
</svg>
