<svg width="24" height="24" viewBox="0 0 24 24" fill="none" xmlns="http://www.w3.org/2000/svg">
<path d="M20.25 5C20.25 4.66848 20.1182 4.35063 19.8838 4.11621C19.6494 3.88179 19.3315 3.75 19 3.75H15C14.6685 3.75 14.3506 3.88179 14.1162 4.11621C13.8818 4.35063 13.75 4.66848 13.75 5V17L13.7539 17.1611C13.7937 17.9644 14.1307 18.7264 14.7021 19.2979C15.3116 19.9073 16.138 20.25 17 20.25C17.862 20.25 18.6884 19.9073 19.2979 19.2979C19.9073 18.6884 20.25 17.862 20.25 17V5ZM16.25 17.0098V17C16.25 16.5858 16.5858 16.25 17 16.25C17.4142 16.25 17.75 16.5858 17.75 17V17.0098C17.75 17.424 17.4142 17.7598 17 17.7598C16.5858 17.7598 16.25 17.424 16.25 17.0098ZM3.75 19C3.75 19.3315 3.88179 19.6494 4.11621 19.8838C4.35063 20.1182 4.66848 20.25 5 20.25H13.5273L7.02734 13.75H5C4.66848 13.75 4.35063 13.8818 4.11621 14.1162C3.88179 14.3506 3.75 14.6685 3.75 15V19ZM5.50879 9.5918C5.50879 9.92316 5.63981 10.2412 5.87402 10.4756L12.25 16.8516V7.66016L10.4697 5.87988V5.88086C10.2353 5.64654 9.91737 5.51467 9.58594 5.51465C9.25448 5.51465 8.93656 5.64652 8.70215 5.88086L8.70117 5.87988L5.87402 8.70801C5.63974 8.94237 5.50884 9.26042 5.50879 9.5918ZM21.75 17C21.75 18.2598 21.2492 19.4676 20.3584 20.3584C19.4676 21.2492 18.2598 21.75 17 21.75H5C4.27065 21.75 3.57139 21.4601 3.05566 20.9443C2.53994 20.4286 2.25 19.7293 2.25 19V15C2.25 14.2707 2.53994 13.5714 3.05566 13.0557C3.57139 12.5399 4.27065 12.25 5 12.25H5.52734L4.81348 11.5361C4.29796 11.0204 4.00879 10.321 4.00879 9.5918C4.00884 8.86266 4.29797 8.16312 4.81348 7.64746L7.6416 4.81934C8.15729 4.30386 8.85679 4.01465 9.58594 4.01465C10.2238 4.01466 10.8389 4.23608 11.3281 4.63672L11.5303 4.81934L12.25 5.53906V5C12.25 4.27065 12.5399 3.57139 13.0557 3.05566C13.5714 2.53994 14.2707 2.25 15 2.25H19C19.7293 2.25 20.4286 2.53994 20.9443 3.05566C21.4601 3.57139 21.75 4.27065 21.75 5V17Z" fill="#202020"/>
</svg>
