<svg viewBox="0 0 20 20" fill="none" xmlns="http://www.w3.org/2000/svg">
<path d="M13.541 5.00008C13.541 4.94483 13.5191 4.89185 13.48 4.85278C13.4409 4.81371 13.3879 4.79175 13.3327 4.79175H6.66602C6.61076 4.79175 6.55779 4.81371 6.51872 4.85278C6.47965 4.89185 6.45768 4.94483 6.45768 5.00008V15.0001C6.45768 15.0553 6.47965 15.1083 6.51872 15.1474C6.55779 15.1864 6.61076 15.2084 6.66602 15.2084H13.3327C13.3879 15.2084 13.4409 15.1864 13.48 15.1474C13.519 15.1083 13.541 15.0553 13.541 15.0001V5.00008ZM2.70768 13.3334V6.66675C2.70768 6.61149 2.68572 6.55852 2.64665 6.51945C2.60758 6.48038 2.5546 6.45841 2.49935 6.45841H1.66602C1.32084 6.45841 1.04102 6.17859 1.04102 5.83341C1.04102 5.48824 1.32084 5.20841 1.66602 5.20841H2.49935C2.88612 5.20841 3.25695 5.36217 3.53044 5.63566C3.80393 5.90915 3.95768 6.27997 3.95768 6.66675V13.3334L3.95036 13.4775C3.91723 13.8113 3.76976 14.1252 3.53044 14.3645C3.25694 14.638 2.88612 14.7917 2.49935 14.7917H1.66602C1.32084 14.7917 1.04102 14.5119 1.04102 14.1667C1.04102 13.8216 1.32084 13.5417 1.66602 13.5417H2.49935C2.5546 13.5417 2.60758 13.5198 2.64665 13.4807C2.67598 13.4514 2.69563 13.4142 2.70361 13.3741L2.70768 13.3334ZM16.041 13.3334V6.66675C16.041 6.27998 16.1948 5.90915 16.4683 5.63566C16.7418 5.36217 17.1126 5.20841 17.4993 5.20841H18.3327C18.6779 5.20841 18.9577 5.48824 18.9577 5.83341C18.9577 6.17859 18.6779 6.45841 18.3327 6.45841H17.4993C17.4441 6.45841 17.3911 6.48038 17.3521 6.51945C17.313 6.55852 17.291 6.61149 17.291 6.66675V13.3334C17.291 13.3887 17.313 13.4416 17.3521 13.4807C17.3911 13.5198 17.4441 13.5417 17.4993 13.5417H18.3327C18.6779 13.5417 18.9577 13.8216 18.9577 14.1667C18.9577 14.5119 18.6779 14.7917 18.3327 14.7917H17.4993C17.1126 14.7917 16.7418 14.638 16.4683 14.3645C16.1948 14.091 16.041 13.7202 16.041 13.3334ZM14.791 15.0001C14.791 15.3869 14.6373 15.7577 14.3638 16.0312C14.0903 16.3047 13.7195 16.4584 13.3327 16.4584H6.66602C6.27924 16.4584 5.90842 16.3047 5.63493 16.0312C5.36144 15.7577 5.20768 15.3869 5.20768 15.0001V5.00008C5.20768 4.61331 5.36144 4.24248 5.63493 3.96899C5.90842 3.6955 6.27924 3.54175 6.66602 3.54175H13.3327C13.7195 3.54175 14.0903 3.6955 14.3638 3.96899C14.6373 4.24249 14.791 4.61331 14.791 5.00008V15.0001Z" fill="currentColor"/>
</svg>
