<svg viewBox="0 0 28 28" fill="none" xmlns="http://www.w3.org/2000/svg">
<path d="M24.2087 13.9999C24.2087 14.5414 23.9934 15.0606 23.6105 15.4434C23.2276 15.8263 22.7085 16.0416 22.167 16.0416C21.6255 16.0416 21.1064 15.8263 20.7235 15.4434C20.3406 15.0606 20.1253 14.5414 20.1253 13.9999C20.1253 13.4584 20.3406 12.9393 20.7235 12.5564C21.1064 12.1735 21.6255 11.9583 22.167 11.9583C22.7085 11.9583 23.2276 12.1735 23.6105 12.5564C23.9934 12.9393 24.2087 13.4584 24.2087 13.9999Z" fill="currentColor" fill-opacity="0.44"/>
<path d="M15.4438 15.4434C15.8267 15.0606 16.042 14.5414 16.042 13.9999C16.042 13.4584 15.8267 12.9393 15.4438 12.5564C15.061 12.1735 14.5418 11.9583 14.0003 11.9583C13.4588 11.9583 12.9397 12.1735 12.5568 12.5564C12.1739 12.9393 11.9587 13.4584 11.9587 13.9999C11.9587 14.5414 12.1739 15.0606 12.5568 15.4434C12.9397 15.8263 13.4588 16.0416 14.0003 16.0416C14.5418 16.0416 15.061 15.8263 15.4438 15.4434Z" fill="currentColor" fill-opacity="0.44"/>
<path d="M7.87533 13.9999C7.87533 14.5414 7.66007 15.0606 7.27718 15.4434C6.89429 15.8263 6.37514 16.0416 5.83366 16.0416C5.29217 16.0416 4.77302 15.8263 4.39014 15.4434C4.00725 15.0606 3.79199 14.5414 3.79199 13.9999C3.79199 13.4584 4.00725 12.9393 4.39014 12.5564C4.77302 12.1735 5.29217 11.9583 5.83366 11.9583C6.37514 11.9583 6.89429 12.1735 7.27718 12.5564C7.66007 12.9393 7.87533 13.4584 7.87533 13.9999Z" fill="currentColor" fill-opacity="0.44"/>
</svg>
