<svg viewBox="0 0 24 24" fill="none" xmlns="http://www.w3.org/2000/svg">
<path fill-rule="evenodd" clip-rule="evenodd" d="M11.3102 2.27439C11.4071 2.24907 11.5089 2.24305 11.6093 2.2578C11.7393 2.2526 11.8695 2.24998 12 2.24998C12.1305 2.24998 12.2608 2.2526 12.3907 2.2578C12.4911 2.24305 12.5929 2.24907 12.6898 2.27439C15.0236 2.43982 17.2291 3.44048 18.8943 5.10569C20.7228 6.93417 21.75 9.41412 21.75 12C21.75 13.2804 21.4978 14.5482 21.0078 15.7311C20.5178 16.9141 19.7997 17.9889 18.8943 18.8943C17.9889 19.7996 16.9141 20.5178 15.7312 21.0078C14.7612 21.4096 13.7342 21.6515 12.6899 21.7255C12.593 21.7509 12.4911 21.7569 12.3906 21.7422C12.2606 21.7474 12.1304 21.75 12 21.75C11.8696 21.75 11.7394 21.7474 11.6094 21.7422C11.5089 21.7569 11.407 21.7509 11.3101 21.7255C10.2659 21.6515 9.2388 21.4096 8.26884 21.0078C7.08591 20.5178 6.01108 19.7996 5.10571 18.8943C4.20034 17.9889 3.48216 16.9141 2.99217 15.7311C2.50219 14.5482 2.25 13.2804 2.25 12C2.25 9.41412 3.27723 6.93417 5.10571 5.10569C6.77091 3.44048 8.97644 2.43982 11.3102 2.27439ZM11.922 20.2496C11.0933 18.8434 10.4846 17.3259 10.1108 15.75H13.8892C13.5154 17.3259 12.9067 18.8434 12.078 20.2496C12.052 20.2499 12.026 20.25 12 20.25C11.974 20.25 11.948 20.2499 11.922 20.2496ZM13.9096 20.0259C14.3345 19.9248 14.7517 19.7899 15.1571 19.622C16.1581 19.2074 17.0675 18.5997 17.8336 17.8336C18.4455 17.2217 18.9564 16.5184 19.3485 15.75H15.4271C15.1069 17.2314 14.5976 18.6688 13.9096 20.0259ZM15.6846 14.25H19.9373C20.1443 13.5195 20.25 12.7623 20.25 12C20.25 11.2323 20.143 10.4757 19.9373 9.74998H15.6846C15.7797 10.4936 15.8278 11.2451 15.8278 12C15.8278 12.7549 15.7797 13.5063 15.6846 14.25ZM15.4271 8.24998H19.3485C18.9593 7.48734 18.4503 6.78305 17.8336 6.16635C16.745 5.07767 15.3833 4.32468 13.9096 3.974C14.5976 5.33117 15.1069 6.76854 15.4271 8.24998ZM12.078 3.75035C12.9067 5.15659 13.5154 6.67403 13.8892 8.24998H10.1108C10.4846 6.67403 11.0934 5.15659 11.922 3.75035C11.948 3.7501 11.974 3.74998 12 3.74998C12.026 3.74998 12.052 3.7501 12.078 3.75035ZM10.0904 3.974C8.61667 4.32468 7.25505 5.07767 6.16637 6.16635C5.54966 6.78305 5.04068 7.48734 4.65152 8.24998H8.57286C8.89307 6.76854 9.40237 5.33116 10.0904 3.974ZM8.31538 9.74998H4.06273C3.857 10.4757 3.75 11.2323 3.75 12C3.75 12.7623 3.85566 13.5195 4.06275 14.25H8.31538C8.22035 13.5063 8.17221 12.7549 8.17221 12C8.17221 11.2451 8.22035 10.4936 8.31538 9.74998ZM9.82873 14.25H14.1713C14.2751 13.5072 14.3278 12.7555 14.3278 12C14.3278 11.2445 14.2751 10.4927 14.1713 9.74998H9.82873C9.72488 10.4927 9.67221 11.2445 9.67221 12C9.67221 12.7555 9.72488 13.5072 9.82873 14.25ZM8.57286 15.75C8.89307 17.2314 9.40236 18.6688 10.0904 20.0259C9.66546 19.9248 9.24827 19.7899 8.84286 19.622C7.84193 19.2074 6.93245 18.5997 6.16637 17.8336C5.55448 17.2217 5.04364 16.5184 4.65153 15.75H8.57286Z" fill="currentColor"/>
</svg>
