<svg viewBox="0 0 24 24" fill="none" xmlns="http://www.w3.org/2000/svg">
<path d="M20.25 9C20.25 8.93369 20.2236 8.87013 20.1768 8.82324C20.1416 8.78804 20.0969 8.76447 20.0488 8.75488L20 8.75H18.75V15.25H20C20.0663 15.25 20.1299 15.2236 20.1768 15.1768C20.2236 15.1299 20.25 15.0663 20.25 15V9ZM3.75 15L3.75488 15.0488C3.76447 15.0969 3.78804 15.1416 3.82324 15.1768C3.87013 15.2236 3.9337 15.25 4 15.25H5.25V8.75H4C3.9337 8.75 3.87013 8.77636 3.82324 8.82324C3.77636 8.87013 3.75 8.9337 3.75 9V15ZM8.25 7C8.25 6.9337 8.22364 6.87013 8.17676 6.82324C8.12987 6.77636 8.0663 6.75 8 6.75H7C6.9337 6.75 6.87013 6.77636 6.82324 6.82324C6.77636 6.87013 6.75 6.9337 6.75 7V17C6.75 17.0663 6.77636 17.1299 6.82324 17.1768C6.87013 17.2236 6.93369 17.25 7 17.25H8C8.06631 17.25 8.12987 17.2236 8.17676 17.1768C8.22364 17.1299 8.25 17.0663 8.25 17V7ZM17.25 7C17.25 6.93369 17.2236 6.87013 17.1768 6.82324C17.1299 6.77636 17.0663 6.75 17 6.75H16C15.9337 6.75 15.8701 6.77636 15.8232 6.82324C15.7764 6.87013 15.75 6.9337 15.75 7V17C15.75 17.0663 15.7764 17.1299 15.8232 17.1768C15.8701 17.2236 15.9337 17.25 16 17.25H17C17.0663 17.25 17.1299 17.2236 17.1768 17.1768C17.2236 17.1299 17.25 17.0663 17.25 17V7ZM18.75 7.25H20L20.1729 7.25879C20.5735 7.29855 20.9501 7.47551 21.2373 7.7627C21.5655 8.09088 21.75 8.53587 21.75 9V11.25H22C22.4142 11.25 22.75 11.5858 22.75 12C22.75 12.4142 22.4142 12.75 22 12.75H21.75V15C21.75 15.4641 21.5655 15.9091 21.2373 16.2373C20.9091 16.5655 20.4641 16.75 20 16.75H18.75V17C18.75 17.4641 18.5655 17.9091 18.2373 18.2373C17.9091 18.5655 17.4641 18.75 17 18.75H16C15.5359 18.75 15.0909 18.5655 14.7627 18.2373C14.4345 17.9091 14.25 17.4641 14.25 17V12.75H9.75V17C9.75 17.4641 9.56549 17.9091 9.2373 18.2373C8.90912 18.5655 8.46413 18.75 8 18.75H7C6.53587 18.75 6.09088 18.5655 5.7627 18.2373C5.43451 17.9091 5.25 17.4641 5.25 17V16.75H4C3.53587 16.75 3.09088 16.5655 2.7627 16.2373C2.47551 15.9501 2.29855 15.5735 2.25879 15.1729L2.25 15V12.75H2C1.58579 12.75 1.25 12.4142 1.25 12C1.25 11.5858 1.58579 11.25 2 11.25H2.25V9C2.25 8.53587 2.43451 8.09088 2.7627 7.7627C3.09088 7.43451 3.53587 7.25 4 7.25H5.25V7C5.25 6.53587 5.43451 6.09088 5.7627 5.7627C6.09088 5.43451 6.53587 5.25 7 5.25H8C8.46413 5.25 8.90912 5.43451 9.2373 5.7627C9.56549 6.09088 9.75 6.53587 9.75 7V11.25H14.25V7C14.25 6.53587 14.4345 6.09088 14.7627 5.7627C15.0909 5.43451 15.5359 5.25 16 5.25H17C17.4641 5.25 17.9091 5.43451 18.2373 5.7627C18.5655 6.09088 18.75 6.53587 18.75 7V7.25Z" fill="currentColor"/>
</svg>
