<svg viewBox="0 0 24 24" fill="none" xmlns="http://www.w3.org/2000/svg">
<path fill-rule="evenodd" clip-rule="evenodd" d="M8.71219 2.82131C10.5046 2.1793 12.4457 2.0761 14.296 2.52445C16.1464 2.9728 17.825 3.95308 19.1247 5.34432C20.4244 6.73557 21.2883 8.47689 21.6099 10.3534C21.6799 10.7617 21.4056 11.1494 20.9974 11.2193C20.5891 11.2893 20.2014 11.015 20.1315 10.6068C19.8594 9.01895 19.1283 7.54552 18.0286 6.36831C16.9288 5.1911 15.5085 4.36164 13.9428 3.98226C12.3771 3.60289 10.7346 3.69021 9.21801 4.23346C7.70138 4.7767 6.37699 5.75209 5.40825 7.03927C4.43952 8.32644 3.86884 9.86908 3.76663 11.4768C3.66442 13.0846 4.03515 14.687 4.83308 16.0865C5.63102 17.486 6.82123 18.6213 8.25686 19.3522C9.69248 20.0831 11.3107 20.3778 12.9118 20.1997C13.3235 20.1539 13.6943 20.4505 13.7401 20.8622C13.7859 21.2739 13.4893 21.6447 13.0776 21.6905C11.1854 21.9009 9.27293 21.5528 7.57628 20.6889C5.87964 19.8251 4.47302 18.4834 3.53001 16.8295C2.587 15.1756 2.14885 13.2817 2.26965 11.3817C2.39044 9.4816 3.06488 7.65848 4.20975 6.13727C5.35462 4.61606 6.91981 3.46333 8.71219 2.82131ZM8.25 10C8.25 9.58579 8.58579 9.25 9 9.25H9.01C9.42421 9.25 9.76 9.58579 9.76 10C9.76 10.4142 9.42421 10.75 9.01 10.75H9C8.58579 10.75 8.25 10.4142 8.25 10ZM14.25 10C14.25 9.58579 14.5858 9.25 15 9.25H15.01C15.4242 9.25 15.76 9.58579 15.76 10C15.76 10.4142 15.4242 10.75 15.01 10.75H15C14.5858 10.75 14.25 10.4142 14.25 10ZM19 13.25C19.4142 13.25 19.75 13.5858 19.75 14V14.25H21C21.4142 14.25 21.75 14.5858 21.75 15C21.75 15.4142 21.4142 15.75 21 15.75H18.5C18.3011 15.75 18.1103 15.829 17.9697 15.9697C17.829 16.1103 17.75 16.3011 17.75 16.5C17.75 16.6989 17.829 16.8897 17.9697 17.0303C18.1103 17.171 18.3011 17.25 18.5 17.25H19.5C20.0967 17.25 20.669 17.4871 21.091 17.909C21.5129 18.331 21.75 18.9033 21.75 19.5C21.75 20.0967 21.5129 20.669 21.091 21.091C20.7284 21.4536 20.2548 21.6797 19.75 21.7361V22C19.75 22.4142 19.4142 22.75 19 22.75C18.5858 22.75 18.25 22.4142 18.25 22V21.75H17C16.5858 21.75 16.25 21.4142 16.25 21C16.25 20.5858 16.5858 20.25 17 20.25H19.5C19.6989 20.25 19.8897 20.171 20.0303 20.0303C20.171 19.8897 20.25 19.6989 20.25 19.5C20.25 19.3011 20.171 19.1103 20.0303 18.9697C19.8897 18.829 19.6989 18.75 19.5 18.75H18.5C17.9033 18.75 17.331 18.5129 16.909 18.091C16.4871 17.669 16.25 17.0967 16.25 16.5C16.25 15.9033 16.4871 15.331 16.909 14.909C17.2716 14.5464 17.7452 14.3203 18.25 14.2639V14C18.25 13.5858 18.5858 13.25 19 13.25ZM8.96237 14.4771C9.25117 14.1801 9.726 14.1736 10.0229 14.4624C10.5367 14.9621 11.2494 15.25 12 15.25C12.2844 15.25 12.5646 15.2085 12.8299 15.1299C13.227 15.0122 13.6444 15.2387 13.7621 15.6359C13.8798 16.033 13.6533 16.4504 13.2561 16.5681C12.8534 16.6875 12.4296 16.75 12 16.75C10.8706 16.75 9.77928 16.3179 8.97708 15.5376C8.68015 15.2488 8.67356 14.774 8.96237 14.4771Z" fill="currentColor" />
</svg>
