<svg viewBox="0 0 20 20" fill="none" xmlns="http://www.w3.org/2000/svg">
<path d="M8.70855 13.667C8.4325 13.46 8.04087 13.5156 7.83371 13.7915L5.33371 17.1248C5.12667 17.4009 5.18231 17.7925 5.45823 17.9997C5.73428 18.2067 6.12591 18.1511 6.33306 17.8752L8.83306 14.5418C9.04011 14.2658 8.98447 13.8742 8.70855 13.667ZM10.442 6.22477C10.306 6.08886 10.1165 6.02403 9.92844 6.04574L9.84869 6.06038L6.51536 6.89372C6.40208 6.92204 6.29958 6.98125 6.21913 7.0638L6.1467 7.15332L4.48004 9.65332C4.28857 9.94053 4.36617 10.3285 4.65338 10.52C4.94058 10.7115 5.32861 10.6339 5.52008 10.3467L7.05246 8.04688L9.22613 7.50407L8.54986 11.5641C8.51678 11.7631 8.58217 11.9659 8.72483 12.1086L11.1532 14.5369L12.7743 17.7791L12.806 17.8353C12.9756 18.1027 13.3232 18.2035 13.6125 18.0591C13.9019 17.9144 14.0299 17.5756 13.9177 17.2795L13.8925 17.2209L12.2258 13.8875C12.2108 13.8575 12.1933 13.8284 12.1737 13.8013L12.1086 13.7248L9.83567 11.4518L10.4167 7.96712L12.0582 9.60856L12.1127 9.65658C12.1694 9.70145 12.2333 9.73693 12.3023 9.75993L14.8023 10.5933L14.8642 10.6104C15.1732 10.6796 15.491 10.5047 15.5933 10.1978C15.6957 9.89073 15.5461 9.56034 15.2572 9.43034L15.1978 9.40674L12.837 8.61979L10.442 6.22477Z" fill="currentColor"/>
<path d="M11.8645 4.36442C12.138 4.09093 12.2917 3.72011 12.2917 3.33333C12.2917 2.94656 12.138 2.57574 11.8645 2.30225C11.6252 2.06292 11.3113 1.91546 10.9774 1.88232L10.8334 1.875C10.4466 1.875 10.0758 2.02876 9.8023 2.30225C9.52881 2.57574 9.37506 2.94656 9.37506 3.33333C9.37506 3.72011 9.52881 4.09093 9.8023 4.36442C10.0758 4.63791 10.4466 4.79167 10.8334 4.79167C11.2202 4.79167 11.591 4.63791 11.8645 4.36442Z" fill="currentColor"/>
</svg>
