<svg viewBox="0 0 24 24" fill="none" xmlns="http://www.w3.org/2000/svg">
<path fill-rule="evenodd" clip-rule="evenodd" d="M12 2.25C12.4142 2.25 12.75 2.58579 12.75 3V5.25H14C14.0108 5.25 14.0216 5.25023 14.0324 5.2507C14.7802 5.28299 15.5012 5.53833 16.1027 5.98387C16.7042 6.4294 17.1585 7.04474 17.4074 7.7507C17.545 8.14136 17.34 8.56967 16.9493 8.70735C16.5586 8.84504 16.1303 8.63996 15.9926 8.2493C15.8434 7.82573 15.5707 7.45653 15.2098 7.1892C14.853 6.92486 14.426 6.77211 13.9827 6.75H10C9.40326 6.75 8.83097 6.98705 8.40901 7.40901C7.98705 7.83097 7.75 8.40326 7.75 9C7.75 9.59674 7.98705 10.169 8.40901 10.591C8.83097 11.0129 9.40326 11.25 10 11.25H14C14.9946 11.25 15.9484 11.6451 16.6517 12.3483C17.3549 13.0516 17.75 14.0054 17.75 15C17.75 15.9946 17.3549 16.9484 16.6517 17.6517C15.9484 18.3549 14.9946 18.75 14 18.75H12.75V21C12.75 21.4142 12.4142 21.75 12 21.75C11.5858 21.75 11.25 21.4142 11.25 21V18.75H10C9.98921 18.75 9.97843 18.7498 9.96765 18.7493C9.21983 18.717 8.49878 18.4617 7.89731 18.0161C7.29583 17.5706 6.84146 16.9553 6.59265 16.2493C6.45496 15.8586 6.66004 15.4303 7.0507 15.2926C7.44136 15.155 7.86967 15.36 8.00735 15.7507C8.15664 16.1743 8.42927 16.5435 8.79015 16.8108C9.14701 17.0751 9.57402 17.2279 10.0173 17.25H14C14.5967 17.25 15.169 17.0129 15.591 16.591C16.0129 16.169 16.25 15.5967 16.25 15C16.25 14.4033 16.0129 13.831 15.591 13.409C15.169 12.9871 14.5967 12.75 14 12.75H10C9.00544 12.75 8.05161 12.3549 7.34835 11.6517C6.64509 10.9484 6.25 9.99456 6.25 9C6.25 8.00544 6.64509 7.05161 7.34835 6.34835C8.05161 5.64509 9.00544 5.25 10 5.25H11.25V3C11.25 2.58579 11.5858 2.25 12 2.25Z" fill="currentColor" />
</svg>
