<svg viewBox="0 0 24 24" fill="none" xmlns="http://www.w3.org/2000/svg">
<path fill-rule="evenodd" clip-rule="evenodd" d="M4 4.75C3.9337 4.75 3.87011 4.77634 3.82322 4.82322C3.77634 4.87011 3.75 4.9337 3.75 5V15C3.75 15.0663 3.77634 15.1299 3.82322 15.1768C3.87011 15.2237 3.9337 15.25 4 15.25H20C20.0663 15.25 20.1299 15.2237 20.1768 15.1768C20.2237 15.1299 20.25 15.0663 20.25 15V5C20.25 4.93369 20.2237 4.87011 20.1768 4.82322C20.1299 4.77634 20.0663 4.75 20 4.75H4ZM15.75 16.75H20C20.4641 16.75 20.9092 16.5656 21.2374 16.2374C21.5656 15.9092 21.75 15.4641 21.75 15V5C21.75 4.53587 21.5656 4.09075 21.2374 3.76256C20.9092 3.43437 20.4641 3.25 20 3.25H4C3.53587 3.25 3.09075 3.43437 2.76256 3.76256C2.43437 4.09075 2.25 4.53587 2.25 5V15C2.25 15.4641 2.43437 15.9092 2.76256 16.2374C3.09075 16.5656 3.53587 16.75 4 16.75H8.25V19.25H7C6.58579 19.25 6.25 19.5858 6.25 20C6.25 20.4142 6.58579 20.75 7 20.75H17C17.4142 20.75 17.75 20.4142 17.75 20C17.75 19.5858 17.4142 19.25 17 19.25H15.75V16.75ZM14.25 16.75H9.75V19.25H14.25V16.75ZM13 6.25C13.3228 6.25 13.6094 6.45657 13.7115 6.76283L14.5406 9.25H17C17.4142 9.25 17.75 9.58579 17.75 10C17.75 10.4142 17.4142 10.75 17 10.75H14C13.6772 10.75 13.3906 10.5434 13.2885 10.2372L13 9.37171L11.7115 13.2372C11.6209 13.5089 11.3835 13.7053 11.0996 13.7434C10.8156 13.7814 10.5349 13.6544 10.376 13.416L8.59861 10.75H7C6.58579 10.75 6.25 10.4142 6.25 10C6.25 9.58579 6.58579 9.25 7 9.25H9C9.25076 9.25 9.48494 9.37533 9.62404 9.58397L10.7734 11.308L12.2885 6.76283C12.3906 6.45657 12.6772 6.25 13 6.25Z" fill="currentColor" />
</svg>
