<svg width="24" height="24" viewBox="0 0 24 24" fill="none" xmlns="http://www.w3.org/2000/svg">
<path d="M11.9938 1.25195C12.2791 1.25208 12.5393 1.41415 12.6657 1.66992L15.5768 7.56836L22.0866 8.5127C22.3692 8.55366 22.6048 8.75178 22.693 9.02344C22.7811 9.29497 22.7071 9.59281 22.5026 9.79199L17.7848 14.3838L18.8981 20.8682C18.9463 21.1495 18.8302 21.4338 18.5993 21.6016C18.3682 21.7693 18.0619 21.7912 17.8092 21.6582L12.0006 18.5967L6.17739 21.6592C5.92475 21.7919 5.61825 21.7693 5.38735 21.6016C5.15656 21.4337 5.04125 21.1494 5.0895 20.8682L6.20083 14.3838L1.48403 9.79199C1.27963 9.59276 1.20641 9.29494 1.29458 9.02344C1.3828 8.75178 1.61738 8.55366 1.90005 8.5127L8.40884 7.56836L11.3209 1.66992L11.3747 1.57812C11.5131 1.37585 11.7442 1.25195 11.9938 1.25195ZM9.57974 8.58691C9.47046 8.80821 9.25952 8.96159 9.01528 8.99707L3.62075 9.77832L7.53091 13.585C7.70767 13.7573 7.78847 14.0057 7.74673 14.249L6.82485 19.623L11.651 17.0859C11.8697 16.9709 12.1316 16.9717 12.3502 17.0869L17.1618 19.6211L16.2399 14.249C16.1981 14.0056 16.2797 13.7573 16.4567 13.585L20.3659 9.77832L14.9723 8.99707C14.7279 8.96165 14.5162 8.80835 14.4069 8.58691L11.9928 3.69629L9.57974 8.58691Z" fill="#202020"/>
</svg>
