<svg viewBox="0 0 24 24" fill="none" xmlns="http://www.w3.org/2000/svg">
<path d="M8.90723 19.749C9.94757 20.0839 10.9778 20.25 12 20.25C13.0219 20.25 14.0518 20.0838 15.0918 19.749L13.4922 15.75H10.5078L8.90723 19.749ZM18.5742 3.77734C16.4957 3.94782 15.3196 4.63476 14.5439 5.50586C13.6694 6.48829 13.2253 7.77773 12.707 9.24902C12.6013 9.5491 12.3181 9.75 12 9.75H7.60938L5.81641 18.2627C6.38481 18.6256 6.94905 18.9393 7.51172 19.2012L9.30371 14.7217L9.35352 14.6191C9.48682 14.3927 9.73172 14.25 10 14.25H14C14.3067 14.25 14.5824 14.4369 14.6963 14.7217L16.4873 19.2012C17.0472 18.9406 17.6082 18.6281 18.1738 18.2676L16.2695 10.1719C16.2294 10.0012 16.2508 9.82188 16.3291 9.66504L17.3291 7.66504L17.3672 7.59766C17.5706 7.27681 17.9878 7.15575 18.335 7.3291L19.8516 8.08691L20.5693 7.36914L18.5742 3.77734ZM2.25 12C2.25 11.0054 2.64537 10.0519 3.34863 9.34863C4.05189 8.64537 5.00544 8.25 6 8.25H11.4717C11.9199 6.98332 12.4452 5.60697 13.4238 4.50781C14.5774 3.2122 16.2829 2.36683 18.9678 2.25098L19.0732 2.25391C19.316 2.27769 19.5346 2.41869 19.6553 2.63574L22.1553 7.13574L22.207 7.24902C22.3027 7.5181 22.2373 7.82323 22.0303 8.03027L20.5303 9.53027C20.3306 9.72998 20.0387 9.79853 19.7754 9.71582L19.665 9.6709L18.335 9.00586L17.792 10.0908L19.4971 17.3389C19.6719 17.2041 19.848 17.0653 20.0234 16.9209C20.3432 16.6578 20.8158 16.7038 21.0791 17.0234C21.3422 17.3432 21.2962 17.8158 20.9766 18.0791C18.0491 20.4899 15.053 21.75 12 21.75C9.13782 21.75 6.3257 20.6425 3.57324 18.5176L3.02344 18.0791L2.9668 18.0273C2.69913 17.7574 2.67415 17.3233 2.9209 17.0234C3.16771 16.7237 3.5987 16.6644 3.91504 16.875L3.97656 16.9209L4.48047 17.3232L6.0752 9.75H6C5.40326 9.75 4.83114 9.98722 4.40918 10.4092C3.98722 10.8311 3.75 11.4033 3.75 12C3.75 12.4142 3.41421 12.75 3 12.75C2.58579 12.75 2.25 12.4142 2.25 12Z" fill="currentColor"/>
</svg>
