<svg viewBox="0 0 20 20" fill="none" xmlns="http://www.w3.org/2000/svg">
<path d="M16.875 10.8333C16.875 10.5571 16.7652 10.2922 16.5698 10.0968C16.3745 9.90149 16.1096 9.79167 15.8333 9.79167H3.125V13.5417H3.63037C3.73614 13.1689 3.93419 12.8253 4.21305 12.5464C4.64282 12.1166 5.22555 11.875 5.83333 11.875C6.44112 11.875 7.02384 12.1166 7.45361 12.5464C7.73248 12.8253 7.93052 13.1689 8.0363 13.5417H11.9637C12.0695 13.1689 12.2675 12.8253 12.5464 12.5464C12.9762 12.1166 13.5589 11.875 14.1667 11.875C14.7745 11.875 15.3572 12.1166 15.7869 12.5464C16.0658 12.8253 16.2639 13.1689 16.3696 13.5417H16.875V10.8333ZM5.83333 13.125C5.55707 13.125 5.29219 13.2348 5.09684 13.4302C4.90149 13.6255 4.79167 13.8904 4.79167 14.1667L4.79655 14.27C4.8203 14.5083 4.926 14.7323 5.09684 14.9032C5.29219 15.0985 5.55707 15.2083 5.83333 15.2083C6.1096 15.2083 6.37447 15.0985 6.56982 14.9032C6.76517 14.7078 6.875 14.4429 6.875 14.1667C6.875 13.8904 6.76517 13.6255 6.56982 13.4302C6.37447 13.2348 6.1096 13.125 5.83333 13.125ZM14.1667 13.125C13.8904 13.125 13.6255 13.2348 13.4302 13.4302C13.2348 13.6255 13.125 13.8904 13.125 14.1667C13.125 14.4429 13.2348 14.7078 13.4302 14.9032C13.6255 15.0985 13.8904 15.2083 14.1667 15.2083C14.4429 15.2083 14.7078 15.0985 14.9032 14.9032C15.0985 14.7078 15.2083 14.4429 15.2083 14.1667C15.2083 13.8904 15.0985 13.6255 14.9032 13.4302C14.7078 13.2348 14.4429 13.125 14.1667 13.125ZM10.625 8.54167H13.6995L11.3656 5.625H10.625V8.54167ZM3.42285 8.54167H9.375V5.625H4.58984L3.42285 8.54167ZM18.125 14.1667C18.125 14.5118 17.8452 14.7917 17.5 14.7917H16.3696C16.2639 15.1644 16.0658 15.5081 15.7869 15.7869C15.3572 16.2167 14.7745 16.4583 14.1667 16.4583C13.5589 16.4583 12.9762 16.2167 12.5464 15.7869C12.2675 15.5081 12.0695 15.1644 11.9637 14.7917H8.0363C7.93052 15.1644 7.73248 15.5081 7.45361 15.7869C7.02384 16.2167 6.44112 16.4583 5.83333 16.4583C5.22555 16.4583 4.64282 16.2167 4.21305 15.7869C3.93419 15.5081 3.73614 15.1644 3.63037 14.7917H2.5C2.15482 14.7917 1.875 14.5118 1.875 14.1667V9.16667C1.875 9.0872 1.89027 9.00852 1.91976 8.93473L3.58643 4.76807L3.62793 4.68262C3.73901 4.49395 3.9431 4.375 4.16667 4.375H11.6667L11.7375 4.37907C11.9006 4.39766 12.0512 4.4797 12.1549 4.60938L15.3011 8.54167H15.8333C16.4411 8.54167 17.0238 8.78328 17.4536 9.21305C17.8834 9.64282 18.125 10.2255 18.125 10.8333V14.1667Z" fill="currentColor" />
</svg>
