<svg viewBox="0 0 24 24" fill="none" xmlns="http://www.w3.org/2000/svg">
<path fill-rule="evenodd" clip-rule="evenodd" d="M12 2.25C12.1989 2.25 12.3897 2.32902 12.5304 2.46967L19.7884 9.72767C20.0812 10.0206 20.0812 10.4954 19.7884 10.7883C19.4955 11.0812 19.0206 11.0812 18.7277 10.7883L12 4.06066L4.81068 11.25H5.00002C5.41424 11.25 5.75002 11.5858 5.75002 12V19C5.75002 19.3315 5.88172 19.6495 6.11614 19.8839C6.35056 20.1183 6.6685 20.25 7.00002 20.25H8.25002V15C8.25002 14.2707 8.53975 13.5712 9.05548 13.0555C9.5712 12.5397 10.2707 12.25 11 12.25H12.5C12.9142 12.25 13.25 12.5858 13.25 13C13.25 13.4142 12.9142 13.75 12.5 13.75H11C10.6685 13.75 10.3506 13.8817 10.1161 14.1161C9.88172 14.3505 9.75002 14.6685 9.75002 15V20.25H11C11.4142 20.25 11.75 20.5858 11.75 21C11.75 21.4142 11.4142 21.75 11 21.75H7.00002C6.27068 21.75 5.5712 21.4603 5.05548 20.9445C4.53975 20.4288 4.25002 19.7293 4.25002 19V12.75H3.00002C2.69668 12.75 2.4232 12.5673 2.30711 12.287C2.19103 12.0068 2.25519 11.6842 2.46969 11.4697L11.4697 2.46967C11.6103 2.32902 11.8011 2.25 12 2.25ZM17.8 15.1982L17.0351 16.7428C16.9257 16.9638 16.7146 17.1168 16.4706 17.1522L14.7659 17.3994L15.9976 18.596C16.1751 18.7685 16.2561 19.0173 16.2141 19.2612L15.9228 20.9538L17.4519 20.1526C17.6699 20.0384 17.9301 20.0384 18.1481 20.1526L19.6766 20.9535L19.3858 19.261C19.344 19.0172 19.425 18.7684 19.6024 18.596L20.8002 17.4323L19.1131 17.1497C18.8757 17.1099 18.6717 16.9585 18.5649 16.7428L17.8 15.1982ZM19.7998 21.671C19.7998 21.6708 19.7999 21.6711 19.7998 21.671V21.671ZM20.3234 21.2924L20.3201 21.2906C20.3212 21.2912 20.3223 21.2918 20.3234 21.2924ZM17.1986 13.4207C17.3792 13.3088 17.5875 13.2495 17.8 13.2495C18.0125 13.2495 18.2208 13.3088 18.4015 13.4207C18.5821 13.5327 18.728 13.6928 18.8226 13.883L18.8231 13.8841L19.739 15.7336L21.9844 16.1098C22.1166 16.132 22.2405 16.1892 22.3431 16.2754C22.506 16.4124 22.6272 16.5921 22.6932 16.7944C22.7592 16.9966 22.7673 17.2133 22.7166 17.4199C22.6658 17.6265 22.5583 17.8148 22.4061 17.9635L22.4046 17.9649L20.9311 19.3965L21.2781 21.4162C21.3144 21.6263 21.2911 21.8423 21.2108 22.0398C21.1305 22.2373 20.9964 22.4083 20.8238 22.5334C20.6512 22.6586 20.4469 22.7328 20.2343 22.7476C20.0224 22.7625 19.8106 22.7178 19.6227 22.6187C19.622 22.6183 19.6214 22.6179 19.6207 22.6176L17.8 21.6637L15.9761 22.6193L15.9743 22.6203C15.7865 22.718 15.5753 22.7616 15.3641 22.7462C15.153 22.7309 14.9503 22.6571 14.7786 22.5332C14.607 22.4093 14.4732 22.2402 14.3921 22.0446C14.311 21.8491 14.2859 21.6348 14.3195 21.4258L14.3208 21.4177L14.6688 19.3964L13.1967 17.9662C13.1965 17.966 13.1962 17.9657 13.196 17.9655C13.0428 17.8172 12.9344 17.6288 12.883 17.4219C12.8315 17.2146 12.8393 16.997 12.9056 16.794C12.9718 16.5909 13.0938 16.4106 13.2577 16.2736C13.4207 16.1372 13.6187 16.0492 13.8291 16.0195L15.8657 15.7242L16.7775 13.883C16.8721 13.6927 17.0179 13.5326 17.1986 13.4207Z" fill="currentColor"/>
</svg>
