<svg width="24" height="24" viewBox="0 0 24 24" fill="none" xmlns="http://www.w3.org/2000/svg">
<path d="M19.25 14C19.25 13.6685 19.1182 13.3506 18.8838 13.1162C18.6494 12.8818 18.3315 12.75 18 12.75H17C16.6685 12.75 16.3506 12.8818 16.1162 13.1162C15.8818 13.3506 15.75 13.6685 15.75 14V17C15.75 17.3315 15.8818 17.6494 16.1162 17.8838C16.3506 18.1182 16.6685 18.25 17 18.25H18C18.3315 18.25 18.6494 18.1182 18.8838 17.8838C19.1182 17.6494 19.25 17.3315 19.25 17V14ZM8.25 14C8.25 13.6685 8.11821 13.3506 7.88379 13.1162C7.64937 12.8818 7.33152 12.75 7 12.75H6C5.66848 12.75 5.35063 12.8818 5.11621 13.1162C4.88179 13.3506 4.75 13.6685 4.75 14V17L4.75586 17.124C4.78436 17.41 4.9112 17.6788 5.11621 17.8838C5.35063 18.1182 5.66848 18.25 6 18.25H7C7.33152 18.25 7.64937 18.1182 7.88379 17.8838C8.11821 17.6494 8.25 17.3315 8.25 17V14ZM20.75 17C20.75 17.7293 20.4601 18.4286 19.9443 18.9443C19.5853 19.3034 19.1366 19.5495 18.6514 19.668C18.3718 20.6017 17.5283 21.3169 16.5781 21.792C15.3678 22.3972 13.7482 22.75 12 22.75C11.5858 22.75 11.25 22.4142 11.25 22C11.25 21.5858 11.5858 21.25 12 21.25C13.5658 21.25 14.9461 20.9308 15.9072 20.4502C16.369 20.2193 16.6885 19.9763 16.9004 19.7441C16.2073 19.719 15.5478 19.4365 15.0557 18.9443C14.5399 18.4286 14.25 17.7293 14.25 17V14C14.25 13.2707 14.5399 12.5714 15.0557 12.0557C15.5714 11.5399 16.2707 11.25 17 11.25H18C18.439 11.25 18.8662 11.3567 19.25 11.5527V11C19.25 9.07718 18.4866 7.23269 17.127 5.87305C15.8523 4.59835 14.1514 3.84765 12.3594 3.75879L12 3.75C10.0772 3.75 8.23269 4.51341 6.87305 5.87305C5.51341 7.23269 4.75 9.07718 4.75 11V11.5527C5.13378 11.3567 5.56103 11.25 6 11.25H7C7.72935 11.25 8.42861 11.5399 8.94434 12.0557C9.46006 12.5714 9.75 13.2707 9.75 14V17C9.75 17.7293 9.46006 18.4286 8.94434 18.9443C8.42861 19.4601 7.72935 19.75 7 19.75H6C5.27065 19.75 4.57139 19.4601 4.05566 18.9443C3.53994 18.4286 3.25 17.7293 3.25 17V11C3.25 8.67936 4.17156 6.45344 5.8125 4.8125C7.45344 3.17156 9.67936 2.25 12 2.25C14.3206 2.25 16.5466 3.17156 18.1875 4.8125C19.8284 6.45344 20.75 8.67936 20.75 11V17Z" fill="#202020"/>
</svg>
