<svg viewBox="0 0 16 16" fill="none" xmlns="http://www.w3.org/2000/svg">
<path d="M12.2427 3.09065C13.3443 4.19207 13.9743 5.67873 13.9995 7.23626C14.0248 8.79379 13.4433 10.3001 12.378 11.4367L12.2427 11.5767L9.41404 14.4047C9.05512 14.7633 8.57329 14.9722 8.06614 14.9889C7.55899 15.0056 7.06445 14.8289 6.6827 14.4947L6.5867 14.4047L3.75737 11.576C2.63215 10.4508 2 8.92463 2 7.33332C2 5.74201 2.63215 4.21588 3.75737 3.09065C4.8826 1.96543 6.40873 1.33328 8.00004 1.33328C9.59135 1.33328 11.1175 1.96543 12.2427 3.09065ZM8.00004 5.33332C7.73739 5.33332 7.47732 5.38505 7.23467 5.48556C6.99202 5.58607 6.77154 5.73339 6.58582 5.91911C6.40011 6.10482 6.25279 6.3253 6.15228 6.56795C6.05177 6.8106 6.00004 7.07068 6.00004 7.33332C6.00004 7.59596 6.05177 7.85604 6.15228 8.09869C6.25279 8.34134 6.40011 8.56182 6.58582 8.74753C6.77154 8.93325 6.99202 9.08057 7.23467 9.18108C7.47732 9.28159 7.73739 9.33332 8.00004 9.33332C8.53047 9.33332 9.03918 9.12261 9.41425 8.74753C9.78932 8.37246 10 7.86375 10 7.33332C10 6.80289 9.78932 6.29418 9.41425 5.91911C9.03918 5.54403 8.53047 5.33332 8.00004 5.33332Z" fill="currentColor"/>
</svg>
