<svg width="24" height="24" viewBox="0 0 24 24" fill="none" xmlns="http://www.w3.org/2000/svg">
<path d="M18.877 16.583C19.1072 16.239 19.5728 16.146 19.917 16.376C20.2614 16.6061 20.3542 17.0726 20.1241 17.417C19.2317 18.7526 18.0227 19.8466 16.6055 20.6025C15.3895 21.2511 14.0515 21.632 12.6817 21.7256C12.5874 21.7492 12.4892 21.7554 12.3916 21.7412C12.261 21.7462 12.1301 21.7502 11.9991 21.75V21.749C11.8713 21.7491 11.7437 21.7462 11.6163 21.7412C11.5149 21.7571 11.4125 21.7497 11.3145 21.7246C9.94857 21.629 8.61551 21.2475 7.40336 20.5996C5.98888 19.8436 4.78293 18.7501 3.89262 17.416C3.66276 17.0715 3.75517 16.6059 4.09965 16.376C4.44419 16.1461 4.90976 16.2395 5.13969 16.584C5.8929 17.7126 6.91376 18.6378 8.1104 19.2774C8.73813 19.6128 9.40451 19.8632 10.0918 20.0264C9.63517 19.1258 9.25457 18.1876 8.95708 17.2207C8.83529 16.8249 9.05737 16.4051 9.45317 16.2832C9.84902 16.1614 10.2688 16.3835 10.3907 16.7793C10.7638 17.9921 11.2792 19.1557 11.9229 20.2481C11.9485 20.2483 11.9744 20.25 12 20.25H12.002L12.0762 20.2481C12.7207 19.1556 13.2376 17.9924 13.6114 16.7793C13.7333 16.3835 14.153 16.1613 14.5489 16.2832C14.9447 16.4052 15.1668 16.8249 15.045 17.2207C14.7467 18.1888 14.3641 19.1278 13.9063 20.0293C14.5976 19.8666 15.2681 19.616 15.8995 19.2793C17.0988 18.6396 18.1219 17.7132 18.877 16.583ZM4.50004 9.25001C4.81256 9.25001 5.09233 9.44379 5.20219 9.73634L5.85649 11.4815L6.2725 9.81837C6.37295 9.4166 6.77991 9.17216 7.18168 9.27247C7.58345 9.37291 7.82789 9.77988 7.72758 10.1817L6.72758 14.1817C6.64798 14.5001 6.37067 14.7302 6.04301 14.749C5.71534 14.7677 5.41327 14.5709 5.2979 14.2637L4.50004 12.1358L3.70219 14.2637C3.58682 14.5709 3.28475 14.7677 2.95707 14.749C2.62942 14.7302 2.35211 14.5001 2.2725 14.1817L1.2725 10.1817C1.17219 9.77988 1.41663 9.37291 1.8184 9.27247C2.22017 9.17216 2.62714 9.4166 2.72758 9.81837L3.14262 11.4815L3.7979 9.73634L3.84672 9.63185C3.97809 9.39858 4.22646 9.25001 4.50004 9.25001ZM12 9.25001C12.3126 9.25001 12.5923 9.44379 12.7022 9.73634L13.3565 11.4815L13.7725 9.81837C13.8729 9.4166 14.2799 9.17216 14.6817 9.27247C15.0835 9.37291 15.3279 9.77988 15.2276 10.1817L14.2276 14.1817C14.148 14.5001 13.8707 14.7302 13.543 14.749C13.2153 14.7677 12.9133 14.5709 12.7979 14.2637L12 12.1358L11.2022 14.2637C11.0868 14.5709 10.7847 14.7677 10.4571 14.749C10.1294 14.7302 9.85211 14.5001 9.7725 14.1817L8.7725 10.1817C8.67219 9.77988 8.91663 9.37291 9.3184 9.27247C9.72017 9.17216 10.1271 9.4166 10.2276 9.81837L10.6426 11.4815L11.2979 9.73634L11.3467 9.63185C11.4781 9.39858 11.7265 9.25001 12 9.25001ZM19.5 9.25001C19.8126 9.25001 20.0923 9.44379 20.2022 9.73634L20.8565 11.4815L21.2725 9.81837C21.3729 9.4166 21.7799 9.17216 22.1817 9.27247C22.5835 9.37291 22.8279 9.77988 22.7276 10.1817L21.7276 14.1817C21.648 14.5001 21.3707 14.7302 21.043 14.749C20.7153 14.7677 20.4133 14.5709 20.2979 14.2637L19.5 12.1358L18.7022 14.2637C18.5868 14.5709 18.2847 14.7677 17.9571 14.749C17.6294 14.7302 17.3521 14.5001 17.2725 14.1817L16.2725 10.1817C16.1722 9.77988 16.4166 9.37291 16.8184 9.27247C17.2202 9.17216 17.6271 9.4166 17.7276 9.81837L18.1426 11.4815L18.7979 9.73634L18.8467 9.63185C18.9781 9.39858 19.2265 9.25001 19.5 9.25001ZM12.3916 2.2588C12.4892 2.24458 12.5874 2.25082 12.6817 2.27442C14.0515 2.36807 15.3895 2.74891 16.6055 3.39747C18.0227 4.15344 19.2317 5.24746 20.1241 6.58302C20.3542 6.92743 20.2614 7.39392 19.917 7.62403C19.5728 7.85403 19.1072 7.76105 18.877 7.417C18.1219 6.28682 17.0988 5.3604 15.8995 4.72071C15.2681 4.38397 14.5976 4.1324 13.9063 3.96974C14.3643 4.87149 14.7466 5.81091 15.045 6.77931C15.1668 7.17511 14.9447 7.59487 14.5489 7.71681C14.153 7.83876 13.7333 7.61656 13.6114 7.22071C13.2375 6.00738 12.7209 4.84364 12.0762 3.75099C12.0515 3.75081 12.0267 3.74997 12.002 3.75001H12C11.9744 3.74999 11.9485 3.75076 11.9229 3.75099C11.279 4.84353 10.7639 6.00769 10.3907 7.22071C10.2688 7.61652 9.84902 7.83859 9.45317 7.71681C9.05737 7.59494 8.83529 7.17515 8.95708 6.77931C9.25466 5.8121 9.63499 4.87348 10.0918 3.97267C9.40443 4.13579 8.7382 4.38716 8.1104 4.72267C6.91376 5.36224 5.8929 6.28746 5.13969 7.41603C4.90976 7.76056 4.44419 7.85397 4.09965 7.62403C3.75517 7.39411 3.66276 6.92851 3.89262 6.58399C4.78293 5.24996 5.98888 4.1564 7.40336 3.4004C8.61551 2.75256 9.94857 2.37102 11.3145 2.2754C11.4125 2.25035 11.5149 2.24293 11.6163 2.2588C11.7437 2.25385 11.8713 2.25093 11.9991 2.25099V2.25001C12.1301 2.24977 12.261 2.25377 12.3916 2.2588Z" fill="#202020"/>
</svg>
