<svg viewBox="0 0 20 20" fill="none" xmlns="http://www.w3.org/2000/svg">
<path d="M16.0423 13.3333C16.0423 13.057 15.9325 12.7921 15.7371 12.5968C15.5418 12.4014 15.2769 12.2916 15.0007 12.2916H5.00065C4.72438 12.2916 4.45951 12.4014 4.26416 12.5968C4.06881 12.7921 3.95898 13.057 3.95898 13.3333V14.9999L3.96387 15.1033C3.98762 15.3416 4.09332 15.5656 4.26416 15.7364C4.45951 15.9318 4.72438 16.0416 5.00065 16.0416H15.0007C15.2769 16.0416 15.5418 15.9318 15.7371 15.7364C15.9325 15.5411 16.0423 15.2762 16.0423 14.9999V13.3333ZM16.0423 4.99992C16.0423 4.72365 15.9325 4.45878 15.7371 4.26343C15.5663 4.09258 15.3423 3.98688 15.104 3.96313L15.0007 3.95825H5.00065C4.72438 3.95825 4.45951 4.06808 4.26416 4.26343C4.06881 4.45878 3.95898 4.72365 3.95898 4.99992V6.66659L3.96387 6.76994C3.98762 7.00826 4.09332 7.23223 4.26416 7.40308C4.45951 7.59843 4.72438 7.70825 5.00065 7.70825H15.0007C15.2769 7.70825 15.5418 7.59843 15.7371 7.40308C15.9325 7.20773 16.0423 6.94285 16.0423 6.66659V4.99992ZM17.2923 14.9999C17.2923 15.6077 17.0507 16.1904 16.6209 16.6202C16.1912 17.05 15.6084 17.2916 15.0007 17.2916H5.00065C4.39286 17.2916 3.81014 17.05 3.38037 16.6202C3.00426 16.2441 2.77242 15.7509 2.72038 15.2262L2.70898 14.9999V13.3333C2.70898 12.7255 2.9506 12.1427 3.38037 11.713C3.81014 11.2832 4.39286 11.0416 5.00065 11.0416H15.0007C15.6084 11.0416 16.1912 11.2832 16.6209 11.713C17.0507 12.1427 17.2923 12.7255 17.2923 13.3333V14.9999ZM17.2923 6.66659C17.2923 7.27437 17.0507 7.85709 16.6209 8.28687C16.1912 8.71664 15.6084 8.95825 15.0007 8.95825H5.00065C4.39286 8.95825 3.81014 8.71664 3.38037 8.28687C3.00426 7.91076 2.77242 7.41753 2.72038 6.89282L2.70898 6.66659V4.99992C2.70898 4.39213 2.9506 3.80941 3.38037 3.37964C3.81014 2.94987 4.39286 2.70825 5.00065 2.70825H15.0007L15.2269 2.71965C15.7516 2.77169 16.2448 3.00353 16.6209 3.37964C17.0507 3.80941 17.2923 4.39213 17.2923 4.99992V6.66659Z" fill="currentColor"/>
</svg>
