<svg viewBox="0 0 24 24" fill="none" xmlns="http://www.w3.org/2000/svg">
<path fill-rule="evenodd" clip-rule="evenodd" d="M11.4697 2.46967C11.7626 2.17678 12.2375 2.17678 12.5304 2.46967L19.5304 9.46967C19.8232 9.76256 19.8232 10.2374 19.5304 10.5303C19.2375 10.8232 18.7626 10.8232 18.4697 10.5303L12 4.06066L4.81068 11.25H5.00002C5.41424 11.25 5.75002 11.5858 5.75002 12V19C5.75002 19.3315 5.88172 19.6495 6.11614 19.8839C6.35056 20.1183 6.6685 20.25 7.00002 20.25H8.25002V15C8.25002 14.2707 8.53975 13.5712 9.05548 13.0555C9.5712 12.5397 10.2707 12.25 11 12.25H13C13.5312 12.25 14.0286 12.4014 14.4496 12.6628C14.8015 12.8813 14.9097 13.3437 14.6912 13.6956C14.4727 14.0475 14.0103 14.1557 13.6584 13.9372C13.4674 13.8186 13.2429 13.75 13 13.75H11C10.6685 13.75 10.3506 13.8817 10.1161 14.1161C9.88172 14.3505 9.75002 14.6685 9.75002 15V20.25H13C13.4142 20.25 13.75 20.5858 13.75 21C13.75 21.4142 13.4142 21.75 13 21.75H7.00002C6.27068 21.75 5.5712 21.4603 5.05548 20.9445C4.53975 20.4288 4.25002 19.7293 4.25002 19V12.75H3.00002C2.69668 12.75 2.4232 12.5673 2.30711 12.287C2.19103 12.0068 2.25519 11.6842 2.46969 11.4697L11.4697 2.46967ZM18.25 14.2639V14C18.25 13.5858 18.5858 13.25 19 13.25C19.4142 13.25 19.75 13.5858 19.75 14V14.25H21C21.4142 14.25 21.75 14.5858 21.75 15C21.75 15.4142 21.4142 15.75 21 15.75H18.5C18.3011 15.75 18.1103 15.829 17.9697 15.9697C17.829 16.1103 17.75 16.3011 17.75 16.5C17.75 16.6989 17.829 16.8897 17.9697 17.0303C18.1103 17.171 18.3011 17.25 18.5 17.25H19.5C20.0968 17.25 20.6691 17.4871 21.091 17.909C21.513 18.331 21.75 18.9033 21.75 19.5C21.75 20.0967 21.513 20.669 21.091 21.091C20.7284 21.4536 20.2548 21.6797 19.75 21.7361V22C19.75 22.4142 19.4142 22.75 19 22.75C18.5858 22.75 18.25 22.4142 18.25 22V21.75H17C16.5858 21.75 16.25 21.4142 16.25 21C16.25 20.5858 16.5858 20.25 17 20.25H19.5C19.6989 20.25 19.8897 20.171 20.0304 20.0303C20.171 19.8897 20.25 19.6989 20.25 19.5C20.25 19.3011 20.171 19.1103 20.0304 18.9697C19.8897 18.829 19.6989 18.75 19.5 18.75H18.5C17.9033 18.75 17.331 18.5129 16.909 18.091C16.4871 17.669 16.25 17.0967 16.25 16.5C16.25 15.9033 16.4871 15.331 16.909 14.909C17.2716 14.5464 17.7453 14.3203 18.25 14.2639Z" fill="currentColor" />
</svg>
