<svg viewBox="0 0 24 24" fill="none" xmlns="http://www.w3.org/2000/svg">
<path d="M9.66167 3.91111C10.4037 1.6963 13.5954 1.6963 14.3374 3.91111L14.4039 4.14061L14.4371 4.24998C14.4768 4.3571 14.5353 4.45663 14.6099 4.54393C14.7096 4.66036 14.8355 4.75183 14.9771 4.81053C15.1188 4.86922 15.2724 4.89367 15.4253 4.88182C15.5782 4.86996 15.726 4.822 15.857 4.74217L16.066 4.62693C18.2264 3.55162 20.5643 5.99661 19.2583 8.14256V8.14353C19.1788 8.27425 19.1306 8.42163 19.1187 8.5742C19.1069 8.72698 19.1314 8.88085 19.19 9.02244C19.2486 9.16403 19.3402 9.28993 19.4566 9.38963C19.5724 9.48879 19.7099 9.55937 19.858 9.59568H19.8589C22.3004 10.188 22.3771 13.571 20.0884 14.3379L19.8589 14.4043C19.7101 14.4404 19.572 14.5108 19.4556 14.6103C19.3392 14.71 19.2477 14.836 19.189 14.9775C19.1303 15.1192 19.1059 15.2729 19.1177 15.4258C19.1296 15.5786 19.1775 15.7265 19.2574 15.8574L19.3726 16.0664C20.4479 18.2268 18.0029 20.5648 15.857 19.2588H15.856C15.7253 19.1792 15.5779 19.131 15.4253 19.1191C15.2726 19.1073 15.1187 19.1318 14.9771 19.1904C14.8355 19.249 14.7096 19.3406 14.6099 19.457C14.5107 19.5729 14.4392 19.7102 14.4029 19.8584L14.4039 19.8594C13.8116 22.3008 10.4285 22.3776 9.66167 20.0888L9.59526 19.8594C9.55916 19.7106 9.48871 19.5724 9.3892 19.456C9.28956 19.3396 9.16358 19.2481 9.02202 19.1894C8.88035 19.1307 8.72666 19.1063 8.57378 19.1181C8.45903 19.127 8.34679 19.1554 8.24272 19.2031L8.14213 19.2578C5.92785 20.6067 3.39257 18.0727 4.74077 15.8574V15.8564L4.79448 15.7558C4.84209 15.6519 4.8715 15.5403 4.88042 15.4258C4.89224 15.273 4.86775 15.1191 4.80913 14.9775C4.7505 14.8359 4.6589 14.71 4.54253 14.6103C4.42639 14.5109 4.2887 14.4395 4.14018 14.4033V14.4043C1.61994 13.7929 1.61994 10.2071 4.14018 9.59568L4.24956 9.56248C4.35668 9.52271 4.4562 9.46428 4.5435 9.38963C4.65994 9.28998 4.7514 9.16401 4.8101 9.02244C4.8688 8.88077 4.89324 8.72709 4.88139 8.5742C4.8725 8.45945 4.84417 8.34722 4.79643 8.24314L4.74174 8.14256C3.3928 5.92827 5.92686 3.393 8.14213 4.74119L8.25053 4.79783C8.7979 5.04561 9.44855 4.74152 9.59526 4.14061L9.66167 3.91111ZM12.9195 4.4033C12.6272 3.53227 11.3719 3.53227 11.0796 4.4033L11.0533 4.49412C10.6697 6.07155 8.91137 6.84516 7.49858 6.09959L7.36284 6.02244C6.49033 5.49125 5.49254 6.48981 6.02299 7.36131L6.09526 7.48826C6.25469 7.78821 6.35112 8.11829 6.37749 8.45799C6.4076 8.84634 6.34493 9.23681 6.19585 9.59666C6.04675 9.95637 5.81493 10.2761 5.51909 10.5293C5.22319 10.7825 4.87121 10.961 4.49272 11.0527L4.4937 11.0537C3.5331 11.2867 3.50264 12.6179 4.40288 12.9199L4.4937 12.9463L4.63432 12.9844C4.959 13.0839 5.26041 13.25 5.51909 13.4717C5.81444 13.7248 6.046 14.0439 6.19487 14.4033C6.34378 14.7629 6.40556 15.1529 6.37553 15.541C6.34924 15.8806 6.25358 16.2108 6.09428 16.5107L6.02202 16.6367C5.49083 17.5092 6.48939 18.507 7.36088 17.9765L7.48784 17.9043C7.78778 17.7448 8.11786 17.6484 8.45756 17.6221C8.84591 17.5919 9.23638 17.6546 9.59624 17.8037C9.95595 17.9528 10.2757 18.1846 10.5289 18.4804C10.7819 18.7762 10.9615 19.1276 11.0533 19.5058L11.0796 19.5967C11.3817 20.4969 12.7128 20.4664 12.9458 19.5058L12.9839 19.3652C13.0834 19.0405 13.2496 18.7391 13.4712 18.4804C13.7244 18.1851 14.0435 17.9535 14.4029 17.8047C14.7625 17.6558 15.1525 17.594 15.5406 17.624C15.9285 17.654 16.3039 17.7751 16.6363 17.9775L16.7183 18.0224C17.5423 18.4328 18.4305 17.5438 18.021 16.7207L17.9761 16.6387C17.7734 16.3061 17.6518 15.9303 17.6216 15.542C17.5915 15.1536 17.6542 14.7632 17.8033 14.4033C17.9524 14.0436 18.1842 13.7239 18.48 13.4707C18.7758 13.2176 19.1271 13.038 19.5054 12.9463L19.5962 12.9199C20.4673 12.6277 20.4673 11.3723 19.5962 11.0801L19.5054 11.0537C19.1272 10.9617 18.7756 10.7815 18.48 10.5283C18.1847 10.2752 17.9531 9.95602 17.8042 9.59666C17.6553 9.23705 17.5936 8.84703 17.6236 8.45896C17.6536 8.07099 17.7747 7.69562 17.9771 7.36326L18.022 7.28123C18.4324 6.45727 17.5434 5.56899 16.7203 5.9785L16.6382 6.02342C16.3057 6.22616 15.9298 6.34777 15.5415 6.37791C15.1532 6.40802 14.7627 6.34536 14.4029 6.19627C14.0432 6.04718 13.7234 5.81535 13.4703 5.51951C13.2172 5.22376 13.0376 4.8724 12.9458 4.49412L12.9195 4.4033ZM14.2496 12C14.2496 11.4032 14.0123 10.8311 13.5904 10.4092C13.1684 9.9872 12.5963 9.74998 11.9996 9.74998C11.4028 9.74998 10.8307 9.9872 10.4087 10.4092C9.98678 10.8311 9.74956 11.4032 9.74956 12C9.74956 12.5967 9.98678 13.1688 10.4087 13.5908C10.8307 14.0128 11.4028 14.25 11.9996 14.25C12.5963 14.25 13.1684 14.0128 13.5904 13.5908C14.0123 13.1688 14.2496 12.5967 14.2496 12ZM15.7496 12C15.7496 12.9945 15.3542 13.9481 14.6509 14.6513C13.9477 15.3546 12.9941 15.75 11.9996 15.75C11.005 15.75 10.0515 15.3546 9.34819 14.6513C8.64493 13.9481 8.24956 12.9945 8.24956 12C8.24956 11.0054 8.64493 10.0519 9.34819 9.34861C10.0515 8.64535 11.005 8.24998 11.9996 8.24998C12.9941 8.24998 13.9477 8.64535 14.6509 9.34861C15.3542 10.0519 15.7496 11.0054 15.7496 12Z" fill="currentColor"/>
</svg>
