<svg viewBox="0 0 24 24" fill="none" xmlns="http://www.w3.org/2000/svg">
<path d="M20.2412 9.47852C20.2227 9.29152 20.1766 9.10784 20.1045 8.93359C20.0082 8.70101 19.8665 8.48953 19.6885 8.31152C19.5105 8.13351 19.299 7.99185 19.0664 7.89551C18.8922 7.82337 18.7085 7.77726 18.5215 7.75879L18.333 7.75H9.66699C9.15858 7.75 8.67103 7.95202 8.31152 8.31152C7.95202 8.67103 7.75 9.15858 7.75 9.66699V18.333C7.75 18.5846 7.79926 18.8339 7.89551 19.0664C7.99185 19.299 8.13351 19.5105 8.31152 19.6885C8.48953 19.8665 8.70101 20.0082 8.93359 20.1045C9.16608 20.2007 9.41536 20.25 9.66699 20.25H18.333L18.5215 20.2412C18.7085 20.2227 18.8922 20.1766 19.0664 20.1045C19.299 20.0082 19.5105 19.8665 19.6885 19.6885C19.8665 19.5105 20.0082 19.299 20.1045 19.0664C20.1766 18.8922 20.2227 18.7085 20.2412 18.5215L20.25 18.333V9.66699L20.2412 9.47852ZM2.25 5C2.25 3.48579 3.48579 2.25 5 2.25H15C15.5155 2.25 15.9635 2.38613 16.3438 2.66211C16.6168 2.86031 16.8264 3.11065 16.9971 3.37207L17.1553 3.63574L17.1895 3.7041C17.3398 4.05334 17.2037 4.46651 16.8643 4.65527C16.5248 4.84395 16.1021 4.74164 15.8848 4.42969L15.8447 4.36426L15.7393 4.18945C15.6377 4.03442 15.5477 3.93755 15.4629 3.87598C15.3661 3.80573 15.2344 3.75 15 3.75H5C4.31421 3.75 3.75 4.31421 3.75 5V14.998L3.76172 15.1631C3.78374 15.3261 3.83754 15.4839 3.9209 15.627C4.03212 15.8178 4.19189 15.9756 4.38379 16.085C4.74359 16.2901 4.86822 16.7486 4.66309 17.1084C4.45792 17.4681 4.0004 17.5937 3.64062 17.3887C3.21927 17.1485 2.86917 16.8009 2.625 16.3818C2.41143 16.0153 2.28574 15.6052 2.25684 15.1836L2.25 15.002V5ZM21.75 18.333L21.7461 18.501C21.7268 18.8923 21.6405 19.2779 21.4902 19.6406C21.3185 20.0552 21.0663 20.4317 20.749 20.749C20.4317 21.0663 20.0552 21.3185 19.6406 21.4902C19.2779 21.6405 18.8923 21.7268 18.501 21.7461L18.333 21.75H9.66699C9.21831 21.75 8.77391 21.6619 8.35938 21.4902C7.9448 21.3185 7.56827 21.0663 7.25098 20.749C6.93368 20.4317 6.68149 20.0552 6.50977 19.6406C6.33808 19.2261 6.25 18.7817 6.25 18.333V9.66699C6.25 8.76075 6.61017 7.89179 7.25098 7.25098C7.89179 6.61017 8.76075 6.25 9.66699 6.25H18.333L18.501 6.25391C18.8923 6.27316 19.2779 6.35954 19.6406 6.50977C20.0552 6.68149 20.4317 6.93368 20.749 7.25098C21.0663 7.56827 21.3185 7.9448 21.4902 8.35938C21.6619 8.77391 21.75 9.21831 21.75 9.66699V18.333Z" fill="currentColor"/>
</svg>
