<svg viewBox="0 0 24 24" fill="none" xmlns="http://www.w3.org/2000/svg">
<path d="M17 3.34001C18.5083 4.21087 19.7629 5.46054 20.6398 6.96531C21.5167 8.47009 21.9854 10.1778 21.9994 11.9194C22.0135 13.6609 21.5725 15.376 20.72 16.8947C19.8676 18.4135 18.6332 19.6832 17.1392 20.5783C15.6452 21.4734 13.9434 21.9628 12.2021 21.9981C10.4608 22.0333 8.74055 21.6132 7.21155 20.7793C5.68256 19.9453 4.39787 18.7265 3.48467 17.2435C2.57146 15.7605 2.06141 14.0647 2.005 12.324L2 12L2.005 11.676C2.061 9.94901 2.56355 8.26598 3.46364 6.79101C4.36373 5.31604 5.63065 4.09947 7.14089 3.2599C8.65113 2.42033 10.3531 1.98641 12.081 2.00045C13.8089 2.01449 15.5036 2.47601 17 3.34001ZM12 13.2C11.4014 13.2 10.8088 13.3193 10.257 13.5512C9.70509 13.783 9.20501 14.1225 8.786 14.55C8.69188 14.6433 8.61725 14.7544 8.56643 14.8768C8.51562 14.9992 8.48964 15.1304 8.49 15.263C8.49037 15.3955 8.51707 15.5266 8.56856 15.6487C8.62005 15.7708 8.6953 15.8815 8.78993 15.9743C8.88456 16.0671 8.99669 16.1401 9.1198 16.1892C9.24291 16.2382 9.37454 16.2623 9.50704 16.2601C9.63955 16.2578 9.77028 16.2292 9.89165 16.176C10.013 16.1228 10.1226 16.046 10.214 15.95C10.4468 15.7124 10.7247 15.5235 11.0313 15.3947C11.338 15.2658 11.6673 15.1994 12 15.1994C12.3327 15.1994 12.662 15.2658 12.9687 15.3947C13.2753 15.5235 13.5532 15.7124 13.786 15.95C13.9726 16.135 14.2245 16.2391 14.4872 16.2398C14.75 16.2405 15.0025 16.1378 15.1901 15.9539C15.3777 15.7699 15.4854 15.5196 15.4899 15.2569C15.4943 14.9942 15.3952 14.7402 15.214 14.55C14.795 14.1225 14.2949 13.783 13.743 13.5512C13.1912 13.3193 12.5986 13.2 12 13.2ZM9.01 9.00001L8.883 9.00701C8.63995 9.03592 8.41594 9.15297 8.25341 9.33598C8.09088 9.51899 8.00111 9.75525 8.00111 10C8.00111 10.2448 8.09088 10.481 8.25341 10.664C8.41594 10.8471 8.63995 10.9641 8.883 10.993L9 11L9.127 10.993C9.37005 10.9641 9.59406 10.8471 9.75659 10.664C9.91912 10.481 10.0089 10.2448 10.0089 10C10.0089 9.75525 9.91912 9.51899 9.75659 9.33598C9.59406 9.15297 9.37005 9.03592 9.127 9.00701L9.01 9.00001ZM15.01 9.00001L14.883 9.00701C14.64 9.03592 14.4159 9.15297 14.2534 9.33598C14.0909 9.51899 14.0011 9.75525 14.0011 10C14.0011 10.2448 14.0909 10.481 14.2534 10.664C14.4159 10.8471 14.64 10.9641 14.883 10.993L15 11L15.127 10.993C15.37 10.9641 15.5941 10.8471 15.7566 10.664C15.9191 10.481 16.0089 10.2448 16.0089 10C16.0089 9.75525 15.9191 9.51899 15.7566 9.33598C15.5941 9.15297 15.37 9.03592 15.127 9.00701L15.01 9.00001Z" fill="#FE8989"/>
<path d="M15.01 9.00001L14.883 9.00701C14.64 9.03592 14.4159 9.15297 14.2534 9.33598C14.0909 9.51899 14.0011 9.75525 14.0011 10C14.0011 10.2448 14.0909 10.481 14.2534 10.664C14.4159 10.8471 14.64 10.9641 14.883 10.993L15 11L15.127 10.993C15.37 10.9641 15.5941 10.8471 15.7566 10.664C15.9191 10.481 16.0089 10.2448 16.0089 10C16.0089 9.75525 15.9191 9.51899 15.7566 9.33598C15.5941 9.15297 15.37 9.03592 15.127 9.00701L15.01 9.00001Z" fill="#202020"/>
<path d="M9.01 9.00001L8.883 9.00701C8.63995 9.03592 8.41594 9.15297 8.25341 9.33598C8.09088 9.51899 8.00111 9.75525 8.00111 10C8.00111 10.2448 8.09088 10.481 8.25341 10.664C8.41594 10.8471 8.63995 10.9641 8.883 10.993L9 11L9.127 10.993C9.37005 10.9641 9.59406 10.8471 9.75659 10.664C9.91912 10.481 10.0089 10.2448 10.0089 10C10.0089 9.75525 9.91912 9.51899 9.75659 9.33598C9.59406 9.15297 9.37005 9.03592 9.127 9.00701L9.01 9.00001Z" fill="#202020"/>
<path d="M12 13.2C11.4014 13.2 10.8088 13.3193 10.257 13.5512C9.70509 13.783 9.20501 14.1225 8.786 14.55C8.69188 14.6433 8.61725 14.7544 8.56643 14.8768C8.51562 14.9992 8.48964 15.1304 8.49 15.263C8.49037 15.3955 8.51707 15.5266 8.56856 15.6487C8.62005 15.7708 8.6953 15.8815 8.78993 15.9743C8.88456 16.0671 8.99669 16.1401 9.1198 16.1892C9.24291 16.2382 9.37454 16.2623 9.50704 16.2601C9.63955 16.2578 9.77028 16.2292 9.89165 16.176C10.013 16.1228 10.1226 16.046 10.214 15.95C10.4468 15.7124 10.7247 15.5235 11.0313 15.3947C11.338 15.2658 11.6673 15.1994 12 15.1994C12.3327 15.1994 12.662 15.2658 12.9687 15.3947C13.2753 15.5235 13.5532 15.7124 13.786 15.95C13.9726 16.135 14.2245 16.2391 14.4872 16.2398C14.75 16.2405 15.0025 16.1378 15.1901 15.9539C15.3777 15.7699 15.4854 15.5196 15.4899 15.2569C15.4943 14.9942 15.3952 14.7402 15.214 14.55C14.795 14.1225 14.2949 13.783 13.743 13.5512C13.1912 13.3193 12.5986 13.2 12 13.2Z" fill="#202020"/>
<path d="M17 3.34001C18.5083 4.21087 19.7629 5.46054 20.6398 6.96531C21.5167 8.47009 21.9854 10.1778 21.9994 11.9194C22.0135 13.6609 21.5725 15.376 20.72 16.8947C19.8676 18.4135 18.6332 19.6832 17.1392 20.5783C15.6452 21.4734 13.9434 21.9628 12.2021 21.9981C10.4608 22.0333 8.74055 21.6132 7.21155 20.7793C5.68256 19.9453 4.39787 18.7265 3.48467 17.2435C2.57146 15.7605 2.06141 14.0647 2.005 12.324L2 12L2.005 11.676C2.061 9.94901 2.56355 8.26598 3.46364 6.79101C4.36373 5.31604 5.63065 4.09947 7.14089 3.2599C8.65113 2.42033 10.3531 1.98641 12.081 2.00045C13.8089 2.01449 15.5036 2.47601 17 3.34001ZM12 13.2C11.4014 13.2 10.8088 13.3193 10.257 13.5512C9.70509 13.783 9.20501 14.1225 8.786 14.55C8.69188 14.6433 8.61725 14.7544 8.56643 14.8768C8.51562 14.9992 8.48964 15.1304 8.49 15.263C8.49037 15.3955 8.51707 15.5266 8.56856 15.6487C8.62005 15.7708 8.6953 15.8815 8.78993 15.9743C8.88456 16.0671 8.99669 16.1401 9.1198 16.1892C9.24291 16.2382 9.37454 16.2623 9.50704 16.2601C9.63955 16.2578 9.77028 16.2292 9.89165 16.176C10.013 16.1228 10.1226 16.046 10.214 15.95C10.4468 15.7124 10.7247 15.5235 11.0313 15.3947C11.338 15.2658 11.6673 15.1994 12 15.1994C12.3327 15.1994 12.662 15.2658 12.9687 15.3947C13.2753 15.5235 13.5532 15.7124 13.786 15.95C13.9726 16.135 14.2245 16.2391 14.4872 16.2398C14.75 16.2405 15.0025 16.1378 15.1901 15.9539C15.3777 15.7699 15.4854 15.5196 15.4899 15.2569C15.4943 14.9942 15.3952 14.7402 15.214 14.55C14.795 14.1225 14.2949 13.783 13.743 13.5512C13.1912 13.3193 12.5986 13.2 12 13.2ZM9.01 9.00001L8.883 9.00701C8.63995 9.03592 8.41594 9.15297 8.25341 9.33598C8.09088 9.51899 8.00111 9.75525 8.00111 10C8.00111 10.2448 8.09088 10.481 8.25341 10.664C8.41594 10.8471 8.63995 10.9641 8.883 10.993L9 11L9.127 10.993C9.37005 10.9641 9.59406 10.8471 9.75659 10.664C9.91912 10.481 10.0089 10.2448 10.0089 10C10.0089 9.75525 9.91912 9.51899 9.75659 9.33598C9.59406 9.15297 9.37005 9.03592 9.127 9.00701L9.01 9.00001ZM15.01 9.00001L14.883 9.00701C14.64 9.03592 14.4159 9.15297 14.2534 9.33598C14.0909 9.51899 14.0011 9.75525 14.0011 10C14.0011 10.2448 14.0909 10.481 14.2534 10.664C14.4159 10.8471 14.64 10.9641 14.883 10.993L15 11L15.127 10.993C15.37 10.9641 15.5941 10.8471 15.7566 10.664C15.9191 10.481 16.0089 10.2448 16.0089 10C16.0089 9.75525 15.9191 9.51899 15.7566 9.33598C15.5941 9.15297 15.37 9.03592 15.127 9.00701L15.01 9.00001Z" stroke="#FE8989"/>
<path d="M15.01 9.00001L14.883 9.00701C14.64 9.03592 14.4159 9.15297 14.2534 9.33598C14.0909 9.51899 14.0011 9.75525 14.0011 10C14.0011 10.2448 14.0909 10.481 14.2534 10.664C14.4159 10.8471 14.64 10.9641 14.883 10.993L15 11L15.127 10.993C15.37 10.9641 15.5941 10.8471 15.7566 10.664C15.9191 10.481 16.0089 10.2448 16.0089 10C16.0089 9.75525 15.9191 9.51899 15.7566 9.33598C15.5941 9.15297 15.37 9.03592 15.127 9.00701L15.01 9.00001Z" stroke="#FE8989"/>
<path d="M9.01 9.00001L8.883 9.00701C8.63995 9.03592 8.41594 9.15297 8.25341 9.33598C8.09088 9.51899 8.00111 9.75525 8.00111 10C8.00111 10.2448 8.09088 10.481 8.25341 10.664C8.41594 10.8471 8.63995 10.9641 8.883 10.993L9 11L9.127 10.993C9.37005 10.9641 9.59406 10.8471 9.75659 10.664C9.91912 10.481 10.0089 10.2448 10.0089 10C10.0089 9.75525 9.91912 9.51899 9.75659 9.33598C9.59406 9.15297 9.37005 9.03592 9.127 9.00701L9.01 9.00001Z" stroke="#FE8989"/>
<path d="M12 13.2C11.4014 13.2 10.8088 13.3193 10.257 13.5512C9.70509 13.783 9.20501 14.1225 8.786 14.55C8.69188 14.6433 8.61725 14.7544 8.56643 14.8768C8.51562 14.9992 8.48964 15.1304 8.49 15.263C8.49037 15.3955 8.51707 15.5266 8.56856 15.6487C8.62005 15.7708 8.6953 15.8815 8.78993 15.9743C8.88456 16.0671 8.99669 16.1401 9.1198 16.1892C9.24291 16.2382 9.37454 16.2623 9.50704 16.2601C9.63955 16.2578 9.77028 16.2292 9.89165 16.176C10.013 16.1228 10.1226 16.046 10.214 15.95C10.4468 15.7124 10.7247 15.5235 11.0313 15.3947C11.338 15.2658 11.6673 15.1994 12 15.1994C12.3327 15.1994 12.662 15.2658 12.9687 15.3947C13.2753 15.5235 13.5532 15.7124 13.786 15.95C13.9726 16.135 14.2245 16.2391 14.4872 16.2398C14.75 16.2405 15.0025 16.1378 15.1901 15.9539C15.3777 15.7699 15.4854 15.5196 15.4899 15.2569C15.4943 14.9942 15.3952 14.7402 15.214 14.55C14.795 14.1225 14.2949 13.783 13.743 13.5512C13.1912 13.3193 12.5986 13.2 12 13.2Z" stroke="#FE8989"/>
</svg>
