<svg viewBox="0 0 20 20" fill="none" xmlns="http://www.w3.org/2000/svg">
<path d="M6.04102 13.75C6.04102 13.5842 5.97512 13.4253 5.85791 13.3081C5.7701 13.2203 5.65889 13.1613 5.5389 13.1372L5.41602 13.125H4.79102V14.375H5.41602C5.58177 14.375 5.7407 14.3091 5.85791 14.1919C5.97512 14.0747 6.04102 13.9158 6.04102 13.75ZM11.041 14.1667C11.041 13.8904 10.9312 13.6255 10.7358 13.4302C10.5405 13.2348 10.2756 13.125 9.99935 13.125H9.79102V16.875H9.99935C10.2756 16.875 10.5405 16.7652 10.7358 16.5698C10.9312 16.3745 11.041 16.1096 11.041 15.8333V14.1667ZM13.541 17.5V12.5C13.541 12.1548 13.8208 11.875 14.166 11.875H16.666C17.0112 11.875 17.291 12.1548 17.291 12.5C17.291 12.8452 17.0112 13.125 16.666 13.125H14.791V14.375H15.8327C16.1779 14.375 16.4577 14.6548 16.4577 15C16.4577 15.3452 16.1779 15.625 15.8327 15.625H14.791V17.5C14.791 17.8452 14.5112 18.125 14.166 18.125C13.8208 18.125 13.541 17.8452 13.541 17.5ZM3.54102 10V4.16667C3.54102 3.55888 3.78263 2.97616 4.2124 2.54639C4.64217 2.11662 5.22489 1.875 5.83268 1.875H11.666C11.8318 1.875 11.9907 1.9409 12.1079 2.05811L16.2746 6.22477C16.3918 6.34198 16.4577 6.50091 16.4577 6.66667V10C16.4577 10.3452 16.1779 10.625 15.8327 10.625C15.4875 10.625 15.2077 10.3452 15.2077 10V7.29167H12.4993C12.1126 7.29167 11.7418 7.13791 11.4683 6.86442C11.1948 6.59093 11.041 6.22011 11.041 5.83333V3.125H5.83268C5.55641 3.125 5.29154 3.23483 5.09619 3.43018C4.90084 3.62553 4.79102 3.8904 4.79102 4.16667V10C4.79102 10.3452 4.51119 10.625 4.16602 10.625C3.82084 10.625 3.54102 10.3452 3.54102 10ZM12.291 15.8333C12.291 16.4411 12.0494 17.0238 11.6196 17.4536C11.1899 17.8834 10.6071 18.125 9.99935 18.125H9.16602C8.82084 18.125 8.54102 17.8452 8.54102 17.5V12.5C8.54102 12.1548 8.82084 11.875 9.16602 11.875H9.99935C10.6071 11.875 11.1899 12.1166 11.6196 12.5464C12.0494 12.9762 12.291 13.5589 12.291 14.1667V15.8333ZM7.29102 13.75C7.29102 14.2473 7.09333 14.7241 6.7417 15.0757C6.39007 15.4273 5.9133 15.625 5.41602 15.625H4.79102V17.5C4.79102 17.8452 4.51119 18.125 4.16602 18.125C3.82084 18.125 3.54102 17.8452 3.54102 17.5V12.5C3.54102 12.1548 3.82084 11.875 4.16602 11.875H5.41602C5.9133 11.875 6.39007 12.0727 6.7417 12.4243C7.09333 12.7759 7.29102 13.2527 7.29102 13.75ZM12.291 5.83333C12.291 5.88859 12.313 5.94156 12.352 5.98063C12.3911 6.0197 12.4441 6.04167 12.4993 6.04167H14.3239L12.291 4.00879V5.83333Z" fill="currentColor"/>
</svg>
