<svg width="24" height="24" viewBox="0 0 24 24" fill="none" xmlns="http://www.w3.org/2000/svg">
<path d="M15.9588 9.25102C16.1717 9.23936 16.3794 9.31903 16.5301 9.46977L20.5301 13.4698C20.6708 13.6104 20.7499 13.8011 20.7499 14V19C20.7499 19.4143 20.4141 19.75 19.9999 19.75H3.99985C3.72325 19.75 3.46923 19.5974 3.33872 19.3536C3.20834 19.1097 3.22245 18.8141 3.37583 18.584L7.37583 12.584L7.46372 12.4756C7.68754 12.2465 8.03897 12.1814 8.33481 12.3291L11.7918 14.0577L15.4139 9.53129C15.5472 9.36471 15.7458 9.26281 15.9588 9.25102ZM12.5858 15.4688C12.365 15.7448 11.9811 15.8288 11.6649 15.6709L8.25669 13.9668L5.40122 18.25H19.2499V14.3106L16.0624 11.1231L12.5858 15.4688ZM15.9657 3.25102C16.1762 3.24147 16.3811 3.32077 16.5301 3.46977L20.5301 7.46977C20.823 7.76266 20.823 8.23742 20.5301 8.53031C20.2372 8.82321 19.7625 8.82321 19.4696 8.53031L16.0497 5.11039L11.576 10.4805C11.3533 10.7476 10.976 10.8263 10.6649 10.6709L7.22348 8.95024L4.59946 12.4502C4.35087 12.7813 3.88092 12.8481 3.54966 12.5996C3.21856 12.3511 3.15179 11.8811 3.40024 11.5498L6.40024 7.54984L6.48911 7.45024C6.71449 7.24063 7.05129 7.18758 7.33481 7.32914L10.8036 9.06352L15.4237 3.51957L15.4774 3.46195C15.6082 3.33491 15.7817 3.25941 15.9657 3.25102Z" fill="#202020"/>
</svg>
