<svg viewBox="0 0 20 20" fill="none" xmlns="http://www.w3.org/2000/svg">
<path d="M6.03646 8.23002C6.01271 7.9917 5.90701 7.76773 5.73617 7.59688C5.56532 7.42604 5.34135 7.32034 5.10303 7.29659L4.99967 7.29171C4.72341 7.29171 4.45853 7.40153 4.26318 7.59688C4.06783 7.79223 3.95801 8.05711 3.95801 8.33337L3.96289 8.43673C3.98664 8.67505 4.09234 8.89902 4.26318 9.06986C4.45853 9.26522 4.72341 9.37504 4.99967 9.37504C5.27594 9.37504 5.54081 9.26522 5.73617 9.06986C5.93152 8.87451 6.04134 8.60964 6.04134 8.33337L6.03646 8.23002ZM11.0413 13.3334C11.0413 13.0571 10.9315 12.7922 10.7362 12.5969C10.5408 12.4015 10.2759 12.2917 9.99967 12.2917C9.72341 12.2917 9.45853 12.4015 9.26318 12.5969C9.06783 12.7922 8.95801 13.0571 8.95801 13.3334C8.95801 13.6096 9.06783 13.8745 9.26318 14.0699C9.45853 14.2652 9.72341 14.375 9.99967 14.375C10.2759 14.375 10.5408 14.2652 10.7362 14.0699C10.9315 13.8745 11.0413 13.6096 11.0413 13.3334ZM16.0413 5.83337C16.0413 5.55711 15.9315 5.29223 15.7362 5.09688C15.5653 4.92604 15.3413 4.82034 15.103 4.79659L14.9997 4.79171C14.7234 4.79171 14.4585 4.90153 14.2632 5.09688C14.0678 5.29223 13.958 5.55711 13.958 5.83337L13.9629 5.93673C13.9866 6.17505 14.0923 6.39902 14.2632 6.56986C14.4585 6.76522 14.7234 6.87504 14.9997 6.87504C15.2759 6.87504 15.5408 6.76522 15.7362 6.56986C15.9315 6.37451 16.0413 6.10964 16.0413 5.83337ZM12.2913 13.3334C12.2913 13.9412 12.0497 14.5239 11.62 14.9537C11.3411 15.2325 10.9974 15.4297 10.6247 15.5355V16.6667C10.6247 17.0119 10.3449 17.2917 9.99967 17.2917C9.6545 17.2917 9.37467 17.0119 9.37467 16.6667V15.5355C9.00198 15.4297 8.65821 15.2325 8.37939 14.9537C7.94962 14.5239 7.70801 13.9412 7.70801 13.3334C7.70801 12.7256 7.94962 12.1429 8.37939 11.7131C8.65826 11.4342 9.0019 11.2362 9.37467 11.1304V3.33337C9.37467 2.9882 9.6545 2.70837 9.99967 2.70837C10.3449 2.70837 10.6247 2.9882 10.6247 3.33337V11.1304C10.9974 11.2362 11.3411 11.4342 11.62 11.7131C12.0497 12.1429 12.2913 12.7256 12.2913 13.3334ZM7.27995 8.55961C7.22791 9.08432 6.99606 9.57755 6.61995 9.95365C6.34114 10.2325 5.99736 10.4297 5.62467 10.5355V16.6667C5.62467 17.0119 5.34485 17.2917 4.99967 17.2917C4.6545 17.2917 4.37467 17.0119 4.37467 16.6667V10.5355C4.00198 10.4297 3.65821 10.2325 3.37939 9.95365C3.00329 9.57755 2.77144 9.08432 2.7194 8.55961L2.70801 8.33337C2.70801 7.72559 2.94962 7.14286 3.37939 6.71309C3.65826 6.43423 4.0019 6.23618 4.37467 6.13041V3.33337C4.37467 2.9882 4.6545 2.70837 4.99967 2.70837C5.34485 2.70837 5.62467 2.9882 5.62467 3.33337V6.13041C5.99745 6.23618 6.34109 6.43423 6.61995 6.71309C7.04973 7.14286 7.29134 7.72559 7.29134 8.33337L7.27995 8.55961ZM17.2913 5.83337C17.2913 6.44116 17.0497 7.02388 16.62 7.45365C16.3411 7.73246 15.9974 7.92974 15.6247 8.03552V16.6667C15.6247 17.0119 15.3449 17.2917 14.9997 17.2917C14.6545 17.2917 14.3747 17.0119 14.3747 16.6667V8.03552C14.002 7.92974 13.6582 7.73246 13.3794 7.45365C13.0033 7.07755 12.7714 6.58432 12.7194 6.05961L12.708 5.83337C12.708 5.22559 12.9496 4.64286 13.3794 4.21309C13.6583 3.93423 14.0019 3.73618 14.3747 3.63041V3.33337C14.3747 2.9882 14.6545 2.70837 14.9997 2.70837C15.3449 2.70837 15.6247 2.9882 15.6247 3.33337V3.63041C15.9974 3.73618 16.3411 3.93423 16.62 4.21309C17.0497 4.64286 17.2913 5.22559 17.2913 5.83337Z" fill="currentColor"/>
</svg>
