<svg viewBox="0 0 24 24" fill="none" xmlns="http://www.w3.org/2000/svg">
<path d="M20.4424 8.49795C20.7195 8.19014 21.1941 8.16524 21.502 8.44229C21.8098 8.71937 21.8347 9.19399 21.5576 9.50186C20.9186 10.212 20.2372 10.8326 19.5156 11.3651L21.626 14.5624L21.665 14.6288C21.8412 14.9655 21.737 15.3875 21.4131 15.6015C21.089 15.8154 20.6593 15.7456 20.419 15.4511L20.374 15.3886L18.2559 12.1806C17.3289 12.7026 16.3433 13.0948 15.2998 13.3563L15.7442 16.9071L15.75 16.9833C15.7589 17.3634 15.4782 17.6959 15.0928 17.744C14.7077 17.7921 14.3547 17.5391 14.2695 17.1688L14.2559 17.0927L13.8233 13.6337C13.2319 13.7099 12.6242 13.7499 12 13.7499C11.3754 13.7499 10.7674 13.71 10.1758 13.6337L9.74415 17.0927C9.69278 17.5036 9.31816 17.7953 8.90724 17.744C8.4963 17.6927 8.20464 17.3181 8.25587 16.9071L8.69923 13.3563C7.65835 13.0954 6.67497 12.7047 5.75001 12.1845L3.62696 15.412C3.39936 15.758 2.93391 15.8543 2.5879 15.6269C2.24196 15.3993 2.14564 14.9338 2.37306 14.5878L4.48927 11.369C3.85556 10.9018 3.25278 10.3667 2.68263 9.7626L2.44239 9.50186L2.39454 9.44229C2.16981 9.13548 2.20936 8.70217 2.49806 8.44229C2.78671 8.18253 3.22141 8.18881 3.50294 8.44424L3.55763 8.49795L3.98732 8.95401C6.16681 11.1572 8.82364 12.2499 12 12.2499C15.3883 12.2499 18.1852 11.0062 20.4424 8.49795Z" fill="currentColor"/>
</svg>
