<svg viewBox="0 0 20 20" fill="none" xmlns="http://www.w3.org/2000/svg">
<path d="M16.875 3.33333C16.875 3.27808 16.853 3.2251 16.814 3.18604C16.7749 3.14697 16.7219 3.125 16.6667 3.125H8.33333C8.27808 3.125 8.22511 3.14697 8.18604 3.18604C8.14697 3.22511 8.125 3.27808 8.125 3.33333V8.07454L11.2752 11.2248C11.3924 11.342 11.4583 11.5009 11.4583 11.6667V16.875H16.875V3.33333ZM3.125 11.9255V16.875H6.04167V14.1667C6.04167 13.8215 6.32149 13.5417 6.66667 13.5417C7.01184 13.5417 7.29167 13.8215 7.29167 14.1667V16.875H10.2083V11.9255L6.66667 8.38379L3.125 11.9255ZM13.5417 12.5081V12.5C13.5417 12.1548 13.8215 11.875 14.1667 11.875C14.5118 11.875 14.7917 12.1548 14.7917 12.5V12.5081C14.7917 12.8533 14.5118 13.1331 14.1667 13.1331C13.8215 13.1331 13.5417 12.8533 13.5417 12.5081ZM13.5417 9.1748V9.16667C13.5417 8.82149 13.8215 8.54167 14.1667 8.54167C14.5118 8.54167 14.7917 8.82149 14.7917 9.16667V9.1748C14.7917 9.51998 14.5118 9.7998 14.1667 9.7998C13.8215 9.7998 13.5417 9.51998 13.5417 9.1748ZM10.2083 5.84147V5.83333C10.2083 5.48816 10.4882 5.20833 10.8333 5.20833C11.1785 5.20833 11.4583 5.48816 11.4583 5.83333V5.84147C11.4583 6.18665 11.1785 6.46647 10.8333 6.46647C10.4882 6.46647 10.2083 6.18665 10.2083 5.84147ZM13.5417 5.84147V5.83333C13.5417 5.48816 13.8215 5.20833 14.1667 5.20833C14.5118 5.20833 14.7917 5.48816 14.7917 5.83333V5.84147C14.7917 6.18665 14.5118 6.46647 14.1667 6.46647C13.8215 6.46647 13.5417 6.18665 13.5417 5.84147ZM18.125 17.5C18.125 17.8452 17.8452 18.125 17.5 18.125H2.5C2.15482 18.125 1.875 17.8452 1.875 17.5V11.6667C1.875 11.5009 1.9409 11.342 2.05811 11.2248L6.22477 7.05811L6.27197 7.01497C6.44443 6.87429 6.67406 6.84135 6.875 6.91243V3.33333C6.875 2.94656 7.02876 2.57574 7.30225 2.30225C7.57574 2.02876 7.94656 1.875 8.33333 1.875H16.6667C17.0534 1.875 17.4243 2.02876 17.6978 2.30225C17.9712 2.57574 18.125 2.94656 18.125 3.33333V17.5Z" fill="currentColor"/>
</svg>
