<svg viewBox="0 0 24 24" fill="none" xmlns="http://www.w3.org/2000/svg">
<path d="M3.25 18V9C3.25003 8.2707 3.53997 7.57136 4.05566 7.05566C4.57138 6.53998 5.27068 6.25 6 6.25H7C7.41417 6.25 7.74993 6.58584 7.75 7C7.75 7.41421 7.41421 7.75 7 7.75H6C5.66851 7.75 5.35063 7.88183 5.11621 8.11621C4.88182 8.3506 4.75003 8.66852 4.75 9V18L4.75586 18.124C4.78433 18.41 4.91121 18.6788 5.11621 18.8838C5.35063 19.1182 5.66848 19.25 6 19.25H15C15.3315 19.25 15.6494 19.1182 15.8838 18.8838C16.1182 18.6494 16.25 18.3315 16.25 18V17C16.2501 16.5858 16.5858 16.25 17 16.25C17.4142 16.25 17.7499 16.5858 17.75 17V18C17.75 18.7293 17.46 19.4286 16.9443 19.9443C16.4286 20.4601 15.7293 20.75 15 20.75H6C5.27065 20.75 4.57139 20.4601 4.05566 19.9443C3.60434 19.493 3.3261 18.9011 3.26367 18.2715L3.25 18ZM20.25 5.10059C20.25 4.74251 20.1077 4.3987 19.8545 4.14551C19.6329 3.92394 19.3423 3.78748 19.0332 3.75684L18.9004 3.75C18.587 3.75 18.2842 3.85871 18.0439 4.05566L17.9453 4.14551L17.9443 4.14648L17.0732 5.0127L18.9863 6.92578L19.8535 6.05566L19.8545 6.05469L19.9443 5.95605C20.1412 5.7159 20.2499 5.41381 20.25 5.10059ZM9.75 12.3105V14.25H11.6885L17.9277 7.98828L16.0107 6.07129L9.75 12.3105ZM21.75 5.10059C21.7499 5.85587 21.4488 6.57898 20.915 7.11328L20.916 7.11426L19.6299 8.40332C19.6013 8.44792 19.5693 8.49127 19.5303 8.53027C19.4912 8.56939 19.4481 8.60219 19.4033 8.63086L12.5312 15.5293C12.3905 15.6705 12.1994 15.75 12 15.75H9C8.58579 15.75 8.25 15.4142 8.25 15V12C8.25003 11.8007 8.3295 11.6095 8.4707 11.4688L15.3711 4.59277C15.3993 4.5494 15.4317 4.50776 15.4697 4.46973C15.5087 4.43081 15.5512 4.39771 15.5957 4.36914L16.8857 3.08398C17.4202 2.55007 18.1449 2.25 18.9004 2.25L19.1816 2.26367C19.8341 2.32844 20.4473 2.61729 20.915 3.08496C21.4495 3.61946 21.75 4.34469 21.75 5.10059Z" fill="currentColor"/>
</svg>
