<svg width="24" height="24" viewBox="0 0 24 24" fill="none" xmlns="http://www.w3.org/2000/svg">
<path d="M16.4697 16.4697C16.7626 16.1768 17.2374 16.1768 17.5303 16.4697C17.8232 16.7626 17.8232 17.2374 17.5303 17.5303L16.0605 19L17.5303 20.4697C17.8232 20.7626 17.8232 21.2374 17.5303 21.5303C17.2374 21.8232 16.7626 21.8232 16.4697 21.5303L14.4697 19.5303C14.1768 19.2374 14.1768 18.7626 14.4697 18.4697L16.4697 16.4697ZM19.4697 16.4697C19.7626 16.1768 20.2374 16.1768 20.5303 16.4697L22.5303 18.4697C22.8232 18.7626 22.8232 19.2374 22.5303 19.5303L20.5303 21.5303C20.2374 21.8232 19.7626 21.8232 19.4697 21.5303C19.1768 21.2374 19.1768 20.7626 19.4697 20.4697L20.9395 19L19.4697 17.5303C19.1768 17.2374 19.1768 16.7626 19.4697 16.4697ZM14 12.25C14.4142 12.25 14.75 12.5858 14.75 13C14.75 13.4142 14.4142 13.75 14 13.75H8C7.58579 13.75 7.25 13.4142 7.25 13C7.25 12.5858 7.58579 12.25 8 12.25H14ZM20.25 13V7C20.25 6.40326 20.0128 5.83114 19.5908 5.40918C19.1689 4.98722 18.5967 4.75 18 4.75H6C5.40326 4.75 4.83114 4.98722 4.40918 5.40918C3.98722 5.83114 3.75 6.40326 3.75 7V15C3.75 15.5967 3.98722 16.1689 4.40918 16.5908C4.83114 17.0128 5.40326 17.25 6 17.25H8C8.41421 17.25 8.75 17.5858 8.75 18V19.6748L10.626 18.5498C10.9812 18.3367 11.4422 18.4524 11.6553 18.8076C11.868 19.1628 11.7525 19.6229 11.3975 19.8359L8.38574 21.6436C8.15414 21.7824 7.86586 21.7853 7.63086 21.6523C7.39574 21.5192 7.25 21.2702 7.25 21V18.75H6C5.00544 18.75 4.05189 18.3546 3.34863 17.6514C2.64537 16.9481 2.25 15.9946 2.25 15V7C2.25 6.00544 2.64537 5.05189 3.34863 4.34863C4.05189 3.64537 5.00544 3.25 6 3.25H18C18.9946 3.25 19.9481 3.64537 20.6514 4.34863C21.3546 5.05189 21.75 6.00544 21.75 7V13C21.75 13.4142 21.4142 13.75 21 13.75C20.5858 13.75 20.25 13.4142 20.25 13ZM16 8.25C16.4142 8.25 16.75 8.58579 16.75 9C16.75 9.41421 16.4142 9.75 16 9.75H8C7.58579 9.75 7.25 9.41421 7.25 9C7.25 8.58579 7.58579 8.25 8 8.25H16Z" fill="black"/>
</svg>
