<svg viewBox="0 0 24 24" fill="none" xmlns="http://www.w3.org/2000/svg">
<path fill-rule="evenodd" clip-rule="evenodd" d="M11.8717 3.76772C13.8807 3.73462 15.8328 4.43582 17.3615 5.73972C18.8902 7.04363 19.8905 8.86061 20.1747 10.8497C20.4589 12.8387 20.0075 14.8632 18.9051 16.543C17.8027 18.2229 16.1251 19.4426 14.1873 19.9735C12.2494 20.5043 10.1844 20.3097 8.37981 19.4261C8.23679 19.3561 8.07519 19.3334 7.91842 19.3614L4.24477 20.0161L5.33795 17.4984C5.44213 17.2585 5.41379 16.9816 5.26315 16.7678C4.106 15.1252 3.58809 13.1167 3.8066 11.1194C4.02512 9.12204 4.96503 7.27309 6.44996 5.91953C7.93489 4.56596 9.86275 3.80083 11.8717 3.76772ZM18.3349 4.59847C16.5282 3.05749 14.2213 2.2288 11.847 2.26793C9.47276 2.30705 7.19439 3.2113 5.43947 4.81097C3.68455 6.41064 2.57374 8.59576 2.3155 10.9563C2.07277 13.175 2.59895 15.4053 3.79867 17.2773L2.31206 20.701C2.202 20.9545 2.24024 21.2479 2.41156 21.4647C2.58289 21.6815 2.85956 21.7866 3.1316 21.7381L7.94563 20.8801C10.0238 21.8326 12.3736 22.0255 14.5835 21.4202C16.8738 20.7928 18.8563 19.3513 20.1591 17.366C21.462 15.3807 21.9955 12.9882 21.6596 10.6375C21.3238 8.28679 20.1416 6.13945 18.3349 4.59847ZM9.5 7.74976C9.16848 7.74976 8.85054 7.88145 8.61612 8.11587C8.38169 8.35029 8.25 8.66824 8.25 8.99976V9.99976C8.25 11.5248 8.8558 12.9873 9.93414 14.0656C11.0125 15.144 12.475 15.7498 14 15.7498H15C15.3315 15.7498 15.6495 15.6181 15.8839 15.3836C16.1183 15.1492 16.25 14.8313 16.25 14.4998C16.25 14.1682 16.1183 13.8503 15.8839 13.6159C15.6495 13.3815 15.3315 13.2498 15 13.2498H14C13.6685 13.2498 13.3505 13.3815 13.1161 13.6159C12.983 13.749 12.8831 13.909 12.8215 14.0831C12.1373 13.8856 11.5073 13.5175 10.9948 13.005C10.4823 12.4924 10.1141 11.8624 9.91666 11.1783C10.0908 11.1167 10.2508 11.0167 10.3839 10.8836C10.6183 10.6492 10.75 10.3313 10.75 9.99976V8.99976C10.75 8.66824 10.6183 8.35029 10.3839 8.11587C10.1495 7.88145 9.83152 7.74976 9.5 7.74976Z" fill="currentColor"/>
</svg>
