<?xml version="1.0" encoding="UTF-8"?>
<svg xmlns="http://www.w3.org/2000/svg" viewBox="0 0 108 108" version="1.1">
<g id="surface7409">
<path style=" stroke:none;fill-rule:nonzero;fill:rgb(9.019608%,9.019608%,9.411765%);fill-opacity:1;" d="M 54 4.5 C 46.582031 4.5 40.5 10.582031 40.5 18 L 40.5 40.625 L 6.242188 59.652344 C 5.167969 60.246094 4.5 61.375 4.5 62.605469 L 4.5 73.125 C 4.5 74.988281 6.011719 76.5 7.875 76.5 L 40.5 76.5 L 40.5 81.800781 L 33.003906 86.792969 C 32.0625 87.417969 31.5 88.472656 31.5 89.605469 L 31.5 100.125 C 31.5 101.988281 33.011719 103.5 34.875 103.5 L 73.125 103.5 C 74.988281 103.5 76.5 101.988281 76.5 100.125 L 76.5 89.605469 C 76.5 88.472656 75.9375 87.417969 74.996094 86.792969 L 67.5 81.800781 L 67.5 76.5 L 100.125 76.5 C 101.988281 76.5 103.5 74.988281 103.5 73.125 L 103.5 62.605469 C 103.5 61.375 102.832031 60.246094 101.757812 59.652344 L 67.5 40.625 L 67.5 18 C 67.5 10.582031 61.417969 4.5 54 4.5 Z M 54 11.25 C 57.769531 11.25 60.75 14.230469 60.75 18 L 60.75 42.609375 C 60.753906 43.832031 61.417969 44.960938 62.492188 45.554688 L 96.75 64.589844 L 96.75 69.75 L 64.125 69.75 C 62.261719 69.75 60.75 71.261719 60.75 73.125 L 60.75 83.601562 C 60.75 84.730469 61.3125 85.789062 62.253906 86.414062 L 69.75 91.40625 L 69.75 96.75 L 38.25 96.75 L 38.25 91.40625 L 45.746094 86.414062 C 46.6875 85.789062 47.25 84.730469 47.25 83.601562 L 47.25 73.125 C 47.25 71.261719 45.738281 69.75 43.875 69.75 L 11.25 69.75 L 11.25 64.589844 L 45.507812 45.554688 C 46.582031 44.960938 47.246094 43.832031 47.25 42.609375 L 47.25 18 C 47.25 14.230469 50.230469 11.25 54 11.25 Z M 54 11.25 "/>
</g>
</svg>
