<?xml version="1.0" encoding="UTF-8"?>
<svg xmlns="http://www.w3.org/2000/svg"  viewBox="0 0 108 108" version="1.1">
<g id="surface7827">
<path style=" stroke:none;fill-rule:nonzero;fill:rgb(9.019608%,9.019608%,9.411765%);fill-opacity:1;" d="M 40.5 18 C 22.632812 18 7.972656 31.171875 5.195312 48.289062 C 2.167969 50.757812 0 54.296875 0 58.5 C 0 64.101562 3.746094 68.457031 8.640625 70.488281 C 14.632812 82.035156 26.613281 90 40.5 90 C 45.269531 90 49.785156 89.003906 53.9375 87.300781 C 58.128906 89.015625 62.699219 90 67.5 90 C 81.386719 90 93.367188 82.035156 99.359375 70.488281 C 104.257812 68.460938 108 64.101562 108 58.5 C 108 54.296875 105.832031 50.757812 102.804688 48.289062 C 100.027344 31.171875 85.367188 18 67.5 18 C 62.710938 18 58.171875 19.003906 54.007812 20.699219 C 49.84375 18.980469 45.292969 18 40.5 18 Z M 40.5 24.75 C 55.449219 24.75 67.695312 35.921875 69.496094 50.351562 L 69.695312 51.945312 L 71.058594 52.796875 C 72.984375 54 74.25 56.066406 74.25 58.5 C 74.25 61.738281 72.011719 64.375 69.011719 65.066406 L 67.445312 65.425781 L 66.734375 66.859375 C 61.96875 76.554688 52.054688 83.25 40.5 83.25 C 28.945312 83.25 19.03125 76.554688 14.265625 66.859375 L 13.554688 65.425781 L 11.988281 65.066406 C 8.988281 64.375 6.75 61.738281 6.75 58.5 C 6.75 56.066406 8.015625 54 9.941406 52.796875 L 11.304688 51.945312 L 11.503906 50.351562 C 12.976562 38.566406 21.410156 28.957031 32.597656 25.832031 C 31.621094 33.28125 34.335938 38.621094 38.144531 41.398438 C 42.644531 44.675781 47.558594 44.957031 49.5 44.957031 L 49.5 38.207031 C 48.726562 38.207031 44.636719 37.78125 42.117188 35.945312 C 39.746094 34.222656 37.886719 31.6875 39.621094 24.792969 C 39.914062 24.785156 40.203125 24.75 40.5 24.75 Z M 67.5 24.75 C 82.449219 24.75 94.695312 35.921875 96.496094 50.351562 L 96.695312 51.945312 L 98.058594 52.796875 C 99.984375 54 101.25 56.066406 101.25 58.5 C 101.25 61.738281 99.007812 64.371094 96.011719 65.054688 L 94.445312 65.417969 L 93.734375 66.859375 C 88.96875 76.554688 79.054688 83.25 67.5 83.25 C 65.605469 83.25 63.769531 83.039062 61.980469 82.695312 C 66.269531 79.445312 69.859375 75.308594 72.359375 70.488281 C 77.253906 68.457031 81 64.101562 81 58.5 C 81 54.296875 78.832031 50.757812 75.804688 48.289062 C 74.289062 38.941406 69.214844 30.796875 62.023438 25.304688 C 63.800781 24.960938 65.621094 24.75 67.5 24.75 Z M 27 54 C 24.515625 54 22.5 56.015625 22.5 58.5 C 22.5 60.984375 24.515625 63 27 63 C 29.484375 63 31.5 60.984375 31.5 58.5 C 31.5 56.015625 29.484375 54 27 54 Z M 54 54 C 51.515625 54 49.5 56.015625 49.5 58.5 C 49.5 60.984375 51.515625 63 54 63 C 56.484375 63 58.5 60.984375 58.5 58.5 C 58.5 56.015625 56.484375 54 54 54 Z M 54 54 "/>
</g>
</svg>
