<svg viewBox="0 0 144 144" fill="none" xmlns="http://www.w3.org/2000/svg">
<path d="M38.5882 18.13C35.4111 18.1196 32.4528 18.6457 29.7653 19.5363C19.0257 23.0832 12.7028 31.6873 12.7028 31.6873C12.0986 32.4946 11.9424 33.5571 12.2913 34.505C12.6351 35.453 13.432 36.1665 14.4163 36.3957C14.4163 36.3957 24.7653 38.8384 35.0257 41.3332C39.2393 42.354 43.0726 43.3175 46.5205 44.1925C37.4215 48.3488 31.7341 54.5832 28.5465 60.8436C23.2965 71.1717 24.1038 81.2446 24.1038 81.2446C24.1768 82.1873 24.6872 83.0415 25.4893 83.5519C26.2861 84.0571 27.2757 84.1613 28.1611 83.8227C28.1611 83.8227 48.5205 76.0519 65.8955 55.828C64.1351 71.9061 57.0309 97.2394 31.7445 119.989H15.0465C13.9632 119.974 12.958 120.541 12.4111 121.474C11.8695 122.411 11.8695 123.568 12.4111 124.5C12.958 125.437 13.9632 126.005 15.0465 125.989H32.5101C32.8278 126.041 33.1507 126.041 33.4684 125.989H129.021C130.104 126.005 131.109 125.437 131.656 124.5C132.203 123.568 132.203 122.411 131.656 121.474C131.109 120.541 130.104 119.974 129.021 119.989H40.0101C63.2236 96.7967 69.9528 71.3957 71.708 55.229C89.1872 75.9061 109.958 83.8227 109.958 83.8227C110.843 84.1613 111.833 84.0571 112.63 83.5519C113.427 83.0415 113.937 82.1873 114.01 81.2446C114.01 81.2446 114.823 71.1717 109.573 60.8436C106.401 54.6092 100.817 48.3436 91.8747 44.1196C95.2757 43.2602 98.9788 42.3332 103.088 41.3332C113.349 38.8384 123.703 36.4009 123.703 36.3957C124.687 36.1665 125.484 35.453 125.828 34.505C126.172 33.5571 126.015 32.4946 125.416 31.6873C125.416 31.6873 119.093 23.0832 108.354 19.5363C105.666 18.6457 102.708 18.1196 99.5257 18.13C90.6038 18.1561 79.9841 22.5207 69.057 34.9686C58.1351 22.5207 47.5101 18.1561 38.5882 18.13ZM38.708 23.9894C45.9684 23.8644 54.8174 27.505 65.1091 39.5727C62.1768 39.8384 59.4684 40.2811 56.9163 40.8384C56.7966 40.7863 56.6507 40.7134 56.5413 40.6769C56.1559 40.5363 55.7132 40.4061 55.1455 40.2394C54.0205 39.9165 52.4424 39.505 50.5309 39.0102C46.708 38.0259 41.5882 36.7602 36.4476 35.5102C28.6976 33.6248 24.2653 32.5832 20.8955 31.7811C23.3486 29.4894 26.833 26.8227 31.6507 25.229C33.8122 24.5155 36.1611 24.0311 38.708 23.9894ZM99.432 23.9894C101.968 24.0311 104.323 24.5207 106.479 25.229C111.297 26.8227 114.765 29.4894 117.224 31.7811C113.849 32.5832 109.422 33.6248 101.672 35.5102C96.5257 36.7602 91.4059 38.0259 87.583 39.0102C85.6768 39.505 84.0986 39.9165 82.9684 40.2394C82.4059 40.4061 81.9632 40.5363 81.5726 40.6769C81.5674 40.6769 81.557 40.6873 81.5518 40.6873C78.9632 40.104 76.1716 39.6769 73.182 39.4113C83.4111 27.4894 92.2028 23.8696 99.432 23.9894ZM66.3851 45.4113C66.3903 45.505 66.3851 45.5623 66.3851 45.6561C66.2601 45.7759 66.1403 45.9113 66.0361 46.0519C51.6351 65.7915 35.7809 73.4738 30.3018 75.9165C30.6403 72.63 31.4945 68.2967 33.9007 63.5623C38.1403 55.229 46.9372 46.8748 66.3851 45.4113ZM72.2705 45.4686C91.3278 47.0519 100.015 55.3123 104.213 63.5623C106.625 68.2967 107.479 72.63 107.812 75.9165C102.359 73.4842 86.6195 65.8384 72.2705 46.2915C72.2705 45.979 72.2705 45.7602 72.2705 45.4686Z" fill="currentColor" stroke="black"/>
</svg>
