<?xml version="1.0" encoding="UTF-8"?>
<svg xmlns="http://www.w3.org/2000/svg" xmlns:xlink="http://www.w3.org/1999/xlink" width="20px" height="20px" viewBox="0 0 108 108" version="1.1">
<g id="surface7538">
<path style=" stroke:none;fill-rule:nonzero;fill:rgb(9.019608%,9.019608%,9.411765%);fill-opacity:1;" d="M 22.5 22.5 C 15.082031 22.5 9 28.582031 9 36 L 9 48.53125 C 6.261719 51.007812 4.5 54.546875 4.5 58.5 L 4.5 91.125 C 4.484375 92.34375 5.121094 93.472656 6.171875 94.085938 C 7.226562 94.703125 8.523438 94.703125 9.578125 94.085938 C 10.628906 93.472656 11.265625 92.34375 11.25 91.125 L 11.25 85.5 L 96.75 85.5 L 96.75 91.125 C 96.734375 92.34375 97.371094 93.472656 98.421875 94.085938 C 99.476562 94.703125 100.773438 94.703125 101.828125 94.085938 C 102.878906 93.472656 103.515625 92.34375 103.5 91.125 L 103.5 58.5 C 103.5 54.546875 101.738281 51.007812 99 48.53125 L 99 36 C 99 28.582031 92.917969 22.5 85.5 22.5 L 64.125 22.5 C 59.859375 22.5 56.480469 24.785156 54 27.90625 C 51.519531 24.785156 48.140625 22.5 43.875 22.5 Z M 22.5 29.25 L 43.875 29.25 C 47.644531 29.25 50.625 32.230469 50.625 36 L 50.625 45 L 18 45 C 17.230469 45 16.488281 45.101562 15.75 45.226562 L 15.75 36 C 15.75 32.230469 18.730469 29.25 22.5 29.25 Z M 64.125 29.25 L 85.5 29.25 C 89.269531 29.25 92.25 32.230469 92.25 36 L 92.25 45.226562 C 91.511719 45.101562 90.769531 45 90 45 L 57.375 45 L 57.375 36 C 57.375 32.230469 60.355469 29.25 64.125 29.25 Z M 18 51.75 L 90 51.75 C 93.769531 51.75 96.75 54.730469 96.75 58.5 L 96.75 78.75 L 11.25 78.75 L 11.25 58.5 C 11.25 54.730469 14.230469 51.75 18 51.75 Z M 18 51.75 "/>
</g>
</svg>
