<svg width="20" height="20" viewBox="0 0 20 20" fill="none" xmlns="http://www.w3.org/2000/svg">
<path d="M7.2876 2.74576C7.44748 2.68795 7.62515 2.69737 7.77913 2.77425L12.5 5.13427L17.2209 2.77425L17.2949 2.74332C17.4712 2.68201 17.6676 2.70229 17.8288 2.80192C18.0129 2.91582 18.125 3.11681 18.125 3.33333V14.1667C18.125 14.4034 17.9909 14.6199 17.7791 14.7257L12.7791 17.2257C12.6034 17.3135 12.3966 17.3135 12.2209 17.2257L7.5 14.8649L2.77913 17.2257C2.58546 17.3224 2.35538 17.3119 2.17122 17.1981C1.98711 17.0842 1.875 16.8832 1.875 16.6667V5.83333L1.88151 5.74544C1.91009 5.54409 2.03568 5.36684 2.22087 5.27425L7.22087 2.77425L7.2876 2.74576ZM3.125 6.21907V15.6551L6.875 13.7801V4.34407L3.125 6.21907ZM8.125 13.7801L11.875 15.6551V6.21907L8.125 4.34407V13.7801ZM13.125 6.21907V15.6551L16.875 13.7801V4.34407L13.125 6.21907Z" fill="white"/>
</svg>
