<svg viewBox="0 0 51 48" fill="none" xmlns="http://www.w3.org/2000/svg">
<rect width="50.89" height="48" rx="24" fill="url(#paint0_linear_4368_1407)"/>
<path fill-rule="evenodd" clip-rule="evenodd" d="M35.89 23.7309C35.89 29.3501 31.2988 33.9064 25.6353 33.9064C23.8367 33.9064 22.147 33.4471 20.678 32.6402L15 34.4446L16.8508 28.9854C15.9168 27.4517 15.3798 25.6531 15.3798 23.731C15.3798 18.1107 19.9709 13.5547 25.6353 13.5547C31.2988 13.5546 35.89 18.1106 35.89 23.7309ZM25.6353 15.1753C20.88 15.1753 17.013 19.0127 17.013 23.7309C17.013 25.602 17.6226 27.3362 18.6551 28.7471L17.5785 31.9238L20.8912 30.8712C22.2522 31.7642 23.8831 32.2855 25.6352 32.2855C30.3886 32.2855 34.2566 28.4478 34.2566 23.7308C34.2568 19.0127 30.3887 15.1753 25.6353 15.1753ZM30.8138 26.0746C30.7502 25.9704 30.5825 25.908 30.3321 25.7834C30.0805 25.6589 28.844 25.0549 28.6139 24.9722C28.3837 24.8892 28.2149 24.8474 28.0484 25.0967C27.8806 25.3462 27.3987 25.9081 27.2517 26.0747C27.1055 26.2415 26.9592 26.2619 26.7077 26.1371C26.4558 26.0127 25.6455 25.7483 24.6857 24.8997C23.9389 24.2376 23.4344 23.4218 23.287 23.1722C23.1411 22.923 23.2725 22.7881 23.397 22.6637C23.5104 22.5514 23.6487 22.3724 23.7745 22.2274C23.9004 22.0812 23.9422 21.9767 24.026 21.8102C24.1098 21.6436 24.0681 21.4985 24.0046 21.3738C23.9422 21.2493 23.4391 20.0218 23.2293 19.5218C23.0211 19.0233 22.8112 19.042 22.6638 19.042C22.5176 19.042 22.2462 19.0855 22.2462 19.0855C22.2462 19.0855 21.7423 19.1479 21.5123 19.3975C21.2821 19.6467 20.6328 20.2508 20.6328 21.4771C20.6328 22.7044 21.5328 23.8911 21.6585 24.0564C21.7844 24.2232 23.397 26.824 25.9528 27.8227C28.5087 28.821 28.5087 28.488 28.9697 28.446C29.4299 28.4053 30.4567 27.8431 30.6664 27.2604C30.8761 26.6775 30.8761 26.178 30.8138 26.0746Z" fill="white"/>
<defs>
<linearGradient id="paint0_linear_4368_1407" x1="25.445" y1="0" x2="25.445" y2="48" gradientUnits="userSpaceOnUse">
<stop stop-color="#43BB49"/>
<stop offset="1" stop-color="#12903D"/>
</linearGradient>
</defs>
</svg>
