<svg viewBox="0 0 52 48" fill="none" xmlns="http://www.w3.org/2000/svg">
<rect x="0.889648" width="51" height="48" rx="24" fill="url(#paint0_linear_4518_443)"/>
<path d="M19.3896 17C18.4235 17 17.6396 17.7839 17.6396 18.75V20.2653L19.3896 21.3636L26.3896 25.75L33.3896 21.391L34.2646 20.8464L35.1396 20.304V18.75C35.1396 17.7839 34.3558 17 33.3896 17H19.3896ZM19.3896 18.75H33.3896V19.4222L26.3896 23.779L19.3896 19.3926V18.75ZM17.6396 22.3298V29.25C17.6396 30.2161 18.4235 31 19.3896 31H33.3896C34.3558 31 35.1396 30.2161 35.1396 29.25V22.3639L33.3896 23.4531V29.25H19.3896V23.4281L17.6396 22.3298Z" fill="white"/>
<defs>
<linearGradient id="paint0_linear_4518_443" x1="26.3896" y1="0" x2="26.3896" y2="48" gradientUnits="userSpaceOnUse">
<stop stop-color="#63AFF5"/>
<stop offset="1" stop-color="#126A90"/>
</linearGradient>
</defs>
</svg>
