<?xml version="1.0" encoding="UTF-8"?>
<svg xmlns="http://www.w3.org/2000/svg"  viewBox="0 0 108 108" version="1.1">
<g id="surface6270">
<path style=" stroke:none;fill-rule:nonzero;fill:rgb(9.019608%,9.019608%,9.411765%);fill-opacity:1;" d="M 34.820312 8.957031 C 32.960938 8.984375 31.476562 10.515625 31.5 12.375 L 31.5 13.5 L 16.875 13.5 C 15.011719 13.5 13.5 15.011719 13.5 16.875 L 13.5 91.125 C 13.5 92.988281 15.011719 94.5 16.875 94.5 L 91.125 94.5 C 92.988281 94.5 94.5 92.988281 94.5 91.125 L 94.5 16.875 C 94.5 15.011719 92.988281 13.5 91.125 13.5 L 76.5 13.5 L 76.5 12.375 C 76.515625 11.15625 75.878906 10.027344 74.828125 9.414062 C 73.773438 8.796875 72.476562 8.796875 71.421875 9.414062 C 70.371094 10.027344 69.734375 11.15625 69.75 12.375 L 69.75 13.5 L 38.25 13.5 L 38.25 12.375 C 38.261719 11.464844 37.902344 10.585938 37.257812 9.941406 C 36.613281 9.296875 35.734375 8.941406 34.820312 8.957031 Z M 20.25 20.25 L 31.5 20.25 L 31.5 23.625 C 31.484375 24.84375 32.121094 25.972656 33.171875 26.585938 C 34.226562 27.203125 35.523438 27.203125 36.578125 26.585938 C 37.628906 25.972656 38.265625 24.84375 38.25 23.625 L 38.25 20.25 L 69.75 20.25 L 69.75 23.625 C 69.734375 24.84375 70.371094 25.972656 71.421875 26.585938 C 72.476562 27.203125 73.773438 27.203125 74.828125 26.585938 C 75.878906 25.972656 76.515625 24.84375 76.5 23.625 L 76.5 20.25 L 87.75 20.25 L 87.75 36 L 20.25 36 Z M 20.25 42.75 L 87.75 42.75 L 87.75 87.75 L 20.25 87.75 Z M 20.25 42.75 "/>
</g>
</svg>
