<?xml version="1.0" encoding="UTF-8"?>
<svg xmlns="http://www.w3.org/2000/svg"  viewBox="0 0 108 108" version="1.1">
<g id="surface7459">
<path style=" stroke:none;fill-rule:nonzero;fill:rgb(9.019608%,9.019608%,9.411765%);fill-opacity:1;" d="M 34.136719 18 C 26.710938 18 20.273438 23.261719 18.789062 30.542969 L 17.21875 38.25 L 12.375 38.25 C 11.15625 38.234375 10.027344 38.871094 9.414062 39.921875 C 8.796875 40.976562 8.796875 42.273438 9.414062 43.328125 C 10.027344 44.378906 11.15625 45.015625 12.375 45 L 13.515625 45 C 10.632812 47.941406 9 51.894531 9 56.011719 L 9 85.5 C 9 87.984375 11.015625 90 13.5 90 L 18 90 C 20.484375 90 22.5 87.984375 22.5 85.5 L 22.5 81.007812 L 85.5 81.007812 L 85.5 85.5 C 85.5 87.984375 87.515625 90 90 90 L 94.5 90 C 96.984375 90 99 87.984375 99 85.5 L 99 72.941406 C 99 72.910156 99.007812 72.882812 99.007812 72.851562 L 99.007812 56.011719 C 99.007812 51.890625 97.367188 47.941406 94.484375 45 L 95.625 45 C 96.84375 45.015625 97.972656 44.378906 98.585938 43.328125 C 99.203125 42.273438 99.203125 40.976562 98.585938 39.921875 C 97.972656 38.871094 96.84375 38.234375 95.625 38.25 L 90.78125 38.25 L 89.21875 30.542969 C 87.738281 23.261719 81.292969 18 73.863281 18 Z M 34.136719 24.75 L 73.863281 24.75 C 78.125 24.75 81.75 27.710938 82.601562 31.886719 C 82.597656 31.890625 82.597656 31.890625 82.601562 31.894531 L 85.15625 44.421875 C 85.289062 45.074219 85.613281 45.671875 86.089844 46.140625 L 89.59375 49.625 C 89.59375 49.625 89.59375 49.628906 89.59375 49.632812 C 91.296875 51.320312 92.257812 53.609375 92.257812 56.011719 L 92.257812 72.851562 C 92.257812 73.664062 91.664062 74.257812 90.851562 74.257812 L 17.148438 74.257812 C 16.335938 74.257812 15.75 73.664062 15.75 72.851562 L 15.75 56.011719 C 15.75 53.617188 16.703125 51.320312 18.40625 49.632812 C 18.40625 49.628906 18.40625 49.625 18.40625 49.625 L 21.921875 46.140625 C 22.390625 45.671875 22.710938 45.074219 22.84375 44.421875 L 25.398438 31.894531 C 25.402344 31.890625 25.402344 31.890625 25.398438 31.886719 C 26.25 27.710938 29.878906 24.75 34.136719 24.75 Z M 27 54 C 24.515625 54 22.5 56.015625 22.5 58.5 L 22.5 63 L 27 63 C 29.484375 63 31.5 60.984375 31.5 58.5 L 31.5 54 Z M 40.5 54 L 40.5 56.6875 C 40.5 59.132812 42.03125 61.324219 44.332031 62.15625 L 54 65.65625 L 63.667969 62.15625 C 65.96875 61.320312 67.5 59.132812 67.5 56.6875 L 67.5 54 Z M 76.5 54 L 76.5 58.5 C 76.5 60.984375 78.515625 63 81 63 L 85.5 63 L 85.5 58.5 C 85.5 56.015625 83.484375 54 81 54 Z M 76.5 54 "/>
</g>
</svg>
