<svg width="20" height="20" viewBox="0 0 20 20" fill="none" xmlns="http://www.w3.org/2000/svg">
<path d="M12.5982 4.41289C12.5982 5.84797 11.4349 7.01132 9.9998 7.01132C8.56473 7.01132 7.40137 5.84797 7.40137 4.41289C7.40137 2.97781 8.56473 1.81445 9.9998 1.81445C11.4349 1.81445 12.5982 2.97781 12.5982 4.41289Z" fill="#FEE689"/>
<path d="M15.9921 10.6547C14.6272 11.0981 13.1613 10.3512 12.7179 8.98636C12.2744 7.62152 13.0213 6.1556 14.3862 5.71214C15.751 5.26868 17.2169 6.0156 17.6604 7.38044C18.1038 8.74528 17.3569 10.2112 15.9921 10.6547Z" fill="#FB8D1F"/>
<path d="M11.1047 15.8114C10.2612 14.6504 10.5186 13.0254 11.6796 12.1819C12.8406 11.3383 14.4656 11.5957 15.3091 12.7567C16.1526 13.9177 15.8952 15.5427 14.7342 16.3862C13.5732 17.2297 11.9483 16.9724 11.1047 15.8114Z" fill="#F74C4C"/>
<path d="M4.69015 12.7568C5.53367 11.5957 7.15865 11.3384 8.31965 12.1819C9.48065 13.0254 9.73803 14.6504 8.89451 15.8114C8.05099 16.9724 6.42601 17.2298 5.26501 16.3863C4.10401 15.5427 3.84664 13.9178 4.69015 12.7568Z" fill="#00668F"/>
<path d="M5.61283 5.71201C6.97767 6.15547 7.72459 7.62139 7.28112 8.98623C6.83766 10.3511 5.37174 11.098 4.0069 10.6545C2.64207 10.2111 1.89514 8.74514 2.33861 7.3803C2.78207 6.01546 4.24799 5.26854 5.61283 5.71201Z" fill="#2C8F5D"/>
</svg>
