<?xml version="1.0" encoding="iso-8859-1"?>
<!-- Uploaded to: SVG Repo, www.svgrepo.com, Generator: SVG Repo Mixer Tools -->
<svg fill="#000000" height="20px" width="20px" version="1.1" id="Layer_1" xmlns="http://www.w3.org/2000/svg" xmlns:xlink="http://www.w3.org/1999/xlink"
	 viewBox="0 0 512 512" xml:space="preserve">
<g>
	<g>
		<path d="M501.801,217.116h-15.28c-3.591,0-6.743,1.86-8.56,4.665l-25.235,25.236H186.611v-53.733h24.099
			c5.632,0,10.199-4.566,10.199-10.199v-32.393h46.438v32.393c0,5.633,4.567,10.199,10.199,10.199h66.836
			c5.632,0,10.199-4.566,10.199-10.199v-42.592c0-3.668-1.969-7.054-5.158-8.866L182.332,36.614c-3.127-1.778-6.956-1.778-10.084,0
			L5.158,131.626C1.969,133.439,0,136.824,0,140.493v42.592c0,5.633,4.567,10.199,10.199,10.199h66.836
			c5.632,0,10.199-4.566,10.199-10.199v-32.393h46.438v32.393c0,5.633,4.567,10.199,10.199,10.199h22.339v198.422h0.001
			c-17.349,5.764-29.9,22.136-29.9,41.396c0,24.051,19.567,43.618,43.618,43.618c19.904,0,36.724-13.406,41.937-31.659h155.614
			c11.72,18.98,32.706,31.659,56.604,31.659c36.659,0,66.484-29.825,66.484-66.482c0-24.627-13.47-46.152-33.419-57.641v-91.155
			l23.925-23.926h10.726c5.632,0,10.199-4.566,10.199-10.199S507.433,217.116,501.801,217.116z M154.072,172.885v-32.393
			c0-5.633-4.567-10.199-10.199-10.199H77.036c-5.632,0-10.199,4.566-10.199,10.199v32.393H20.398v-26.46l156.892-89.213
			l156.892,89.213v26.46h-46.438v-32.393c0-5.633-4.567-10.199-10.199-10.199h-66.836c-5.632,0-10.199,4.566-10.199,10.199v32.393
			H154.072z M179.929,456.321c-12.803,0-23.22-10.415-23.22-23.219s10.416-23.219,23.22-23.219
			c12.803,0,23.219,10.415,23.219,23.219S192.732,456.321,179.929,456.321z M367.601,410.237c0,4.954,0.562,9.777,1.594,14.425
			H222.72c-3.52-17.875-17.988-31.867-36.109-34.665V267.416h260.141v13.766H275.378c-5.632,0-10.199,4.566-10.199,10.199
			c0,5.633,4.567,10.199,10.199,10.199h171.372v43.4c-4.103-0.796-8.334-1.226-12.666-1.226
			C397.425,343.754,367.601,373.578,367.601,410.237z M480.169,410.237c0,25.41-20.674,46.084-46.085,46.084
			s-46.085-20.674-46.085-46.084c0-25.411,20.674-46.085,46.085-46.085S480.169,384.826,480.169,410.237z"/>
	</g>
</g>
<g>
	<g>
		<path d="M232.542,281.181h-21.418c-5.632,0-10.199,4.566-10.199,10.199c0,5.633,4.567,10.199,10.199,10.199h21.418
			c5.632,0,10.199-4.566,10.199-10.199C242.741,285.748,238.174,281.181,232.542,281.181z"/>
	</g>
</g>
</svg>
