<?xml version="1.0" encoding="UTF-8"?>
<svg xmlns="http://www.w3.org/2000/svg" viewBox="0 0 108 108" version="1.1">
<g id="surface6975">
<path style=" stroke:none;fill-rule:nonzero;fill:rgb(9.019608%,9.019608%,9.411765%);fill-opacity:1;" d="M 12.375 13.5 C 10.511719 13.5 9 15.011719 9 16.875 L 9 91.125 C 9 92.988281 10.511719 94.5 12.375 94.5 L 95.625 94.5 C 97.488281 94.5 99 92.988281 99 91.125 L 99 34.875 C 99 33.011719 97.488281 31.5 95.625 31.5 L 72 31.5 L 72 16.875 C 72 15.011719 70.488281 13.5 68.625 13.5 Z M 15.75 20.25 L 65.25 20.25 L 65.25 87.75 L 15.75 87.75 Z M 27 31.5 L 27 40.5 L 36 40.5 L 36 31.5 Z M 45 31.5 L 45 40.5 L 54 40.5 L 54 31.5 Z M 72 38.25 L 92.25 38.25 L 92.25 87.75 L 72 87.75 L 72 76.5 L 81 76.5 L 81 67.5 L 72 67.5 L 72 58.5 L 81 58.5 L 81 49.5 L 72 49.5 Z M 27 49.5 L 27 58.5 L 36 58.5 L 36 49.5 Z M 45 49.5 L 45 58.5 L 54 58.5 L 54 49.5 Z M 27 67.5 L 27 76.5 L 36 76.5 L 36 67.5 Z M 45 67.5 L 45 76.5 L 54 76.5 L 54 67.5 Z M 45 67.5 "/>
</g>
</svg>
