<?xml version="1.0" encoding="UTF-8"?>
<svg xmlns="http://www.w3.org/2000/svg" xmlns:xlink="http://www.w3.org/1999/xlink" width="20px" height="20px" viewBox="0 0 108 108" version="1.1">
<g id="surface7647">
<path style=" stroke:none;fill-rule:nonzero;fill:rgb(9.019608%,9.019608%,9.411765%);fill-opacity:1;" d="M 54 9 C 43.167969 9 33.3125 11.75 25.9375 16.445312 C 18.738281 21.023438 13.777344 27.722656 13.542969 35.4375 C 13.542969 35.441406 13.542969 35.441406 13.542969 35.445312 C 13.515625 35.628906 13.5 35.816406 13.5 36 L 13.5 72 C 13.5 79.957031 18.5625 86.863281 25.9375 91.554688 C 33.3125 96.25 43.167969 99 54 99 C 64.832031 99 74.6875 96.25 82.0625 91.554688 C 89.4375 86.863281 94.5 79.957031 94.5 72 L 94.5 36 C 94.5 35.816406 94.484375 35.636719 94.457031 35.453125 C 94.226562 27.730469 89.265625 21.027344 82.0625 16.445312 C 74.6875 11.75 64.832031 9 54 9 Z M 54 15.75 C 63.671875 15.75 72.378906 18.28125 78.441406 22.140625 C 84.503906 25.996094 87.75 30.910156 87.75 36 C 87.75 41.089844 84.503906 46.003906 78.441406 49.859375 C 72.378906 53.71875 63.671875 56.25 54 56.25 C 44.328125 56.25 35.621094 53.71875 29.558594 49.859375 C 23.496094 46.003906 20.25 41.089844 20.25 36 C 20.25 30.910156 23.496094 25.996094 29.558594 22.140625 C 35.621094 18.28125 44.328125 15.75 54 15.75 Z M 59.878906 29.214844 C 58.808594 29.269531 57.828125 29.828125 57.234375 30.726562 C 56.644531 31.621094 56.511719 32.742188 56.882812 33.75 L 43.875 33.75 C 42.65625 33.734375 41.527344 34.371094 40.914062 35.421875 C 40.296875 36.476562 40.296875 37.773438 40.914062 38.828125 C 41.527344 39.878906 42.65625 40.515625 43.875 40.5 L 64.125 40.5 C 65.457031 40.5 66.664062 39.714844 67.207031 38.496094 C 67.746094 37.277344 67.519531 35.855469 66.628906 34.867188 L 62.585938 30.367188 C 61.90625 29.589844 60.910156 29.164062 59.878906 29.214844 Z M 20.25 50.96875 C 21.921875 52.65625 23.816406 54.207031 25.9375 55.554688 C 33.3125 60.25 43.167969 63 54 63 C 64.832031 63 74.6875 60.25 82.0625 55.554688 C 84.183594 54.207031 86.078125 52.65625 87.75 50.96875 L 87.75 54 C 87.75 59.089844 84.503906 64.003906 78.441406 67.859375 C 72.378906 71.71875 63.671875 74.25 54 74.25 C 44.328125 74.25 35.621094 71.71875 29.558594 67.859375 C 23.496094 64.003906 20.25 59.089844 20.25 54 Z M 20.25 68.96875 C 21.921875 70.65625 23.816406 72.207031 25.9375 73.554688 C 33.3125 78.25 43.167969 81 54 81 C 64.832031 81 74.6875 78.25 82.0625 73.554688 C 84.183594 72.207031 86.078125 70.65625 87.75 68.96875 L 87.75 72 C 87.75 77.089844 84.503906 82.003906 78.441406 85.859375 C 72.378906 89.71875 63.671875 92.25 54 92.25 C 44.328125 92.25 35.621094 89.71875 29.558594 85.859375 C 23.496094 82.003906 20.25 77.089844 20.25 72 Z M 20.25 68.96875 "/>
</g>
</svg>
