<?xml version="1.0" encoding="UTF-8"?>
<svg xmlns="http://www.w3.org/2000/svg" viewBox="0 0 108 108" version="1.1">
<g id="surface7321">
<path style=" stroke:none;fill-rule:nonzero;fill:rgb(9.019608%,9.019608%,9.411765%);fill-opacity:1;" d="M 25.875 13.5 C 21.566406 13.5 18 17.066406 18 21.375 L 18 22.5 L 7.875 22.5 C 3.566406 22.5 0 26.066406 0 30.375 L 0 77.625 C 0 81.933594 3.566406 85.5 7.875 85.5 L 18 85.5 L 18 86.625 C 18 90.933594 21.566406 94.5 25.875 94.5 L 82.125 94.5 C 86.433594 94.5 90 90.933594 90 86.625 L 90 85.5 L 100.125 85.5 C 104.433594 85.5 108 81.933594 108 77.625 L 108 30.375 C 108 26.066406 104.433594 22.5 100.125 22.5 L 90 22.5 L 90 21.375 C 90 17.066406 86.433594 13.5 82.125 13.5 Z M 25.875 20.25 L 82.125 20.25 C 82.78125 20.25 83.25 20.71875 83.25 21.375 L 83.25 25.320312 C 83.1875 25.6875 83.1875 26.0625 83.25 26.429688 L 83.25 81.570312 C 83.1875 81.9375 83.1875 82.3125 83.25 82.679688 L 83.25 86.625 C 83.25 87.28125 82.78125 87.75 82.125 87.75 L 25.875 87.75 C 25.21875 87.75 24.75 87.28125 24.75 86.625 L 24.75 82.679688 C 24.8125 82.3125 24.8125 81.9375 24.75 81.570312 L 24.75 26.429688 C 24.8125 26.0625 24.8125 25.6875 24.75 25.320312 L 24.75 21.375 C 24.75 20.71875 25.21875 20.25 25.875 20.25 Z M 7.875 29.25 L 18 29.25 L 18 78.75 L 7.875 78.75 C 7.21875 78.75 6.75 78.28125 6.75 77.625 L 6.75 30.375 C 6.75 29.71875 7.21875 29.25 7.875 29.25 Z M 90 29.25 L 100.125 29.25 C 100.78125 29.25 101.25 29.71875 101.25 30.375 L 101.25 77.625 C 101.25 78.28125 100.78125 78.75 100.125 78.75 L 90 78.75 Z M 54 31.5 C 49.027344 31.5 45 35.527344 45 40.5 L 45 45 C 45 49.972656 49.027344 54 54 54 C 58.972656 54 63 49.972656 63 45 L 63 40.5 C 63 35.527344 58.972656 31.5 54 31.5 Z M 49.5 58.5 C 49.246094 58.5 48.996094 58.519531 48.742188 58.5625 C 39.460938 60.128906 32.898438 67.480469 32.625 67.789062 C 31.902344 68.613281 31.5 69.671875 31.5 70.769531 L 31.5 72 C 31.5 74.484375 33.515625 76.5 36 76.5 L 72 76.5 C 74.484375 76.5 76.5 74.484375 76.5 72 L 76.5 70.769531 C 76.5 69.671875 76.097656 68.613281 75.375 67.789062 C 75.101562 67.480469 68.535156 60.121094 59.257812 58.5625 C 59.003906 58.519531 58.753906 58.5 58.5 58.5 Z M 49.5 58.5 "/>
</g>
</svg>
