<?xml version="1.0" encoding="UTF-8"?>
<svg xmlns="http://www.w3.org/2000/svg" viewBox="0 0 108 108" version="1.1">
<g id="surface7512">
<path style=" stroke:none;fill-rule:nonzero;fill:rgb(9.019608%,9.019608%,9.411765%);fill-opacity:1;" d="M 12.375 9 C 10.511719 9 9 10.511719 9 12.375 L 9 22.5 L 3.375 22.5 C 2.15625 22.484375 1.027344 23.121094 0.414062 24.171875 C -0.203125 25.226562 -0.203125 26.523438 0.414062 27.578125 C 1.027344 28.628906 2.15625 29.265625 3.375 29.25 L 9 29.25 L 9 41.625 C 9 43.488281 10.511719 45 12.375 45 L 18 45 L 18 59.089844 C 17.949219 59.417969 17.949219 59.753906 18 60.082031 L 18 92.25 L 12.375 92.25 C 11.15625 92.234375 10.027344 92.871094 9.414062 93.921875 C 8.796875 94.976562 8.796875 96.273438 9.414062 97.328125 C 10.027344 98.378906 11.15625 99.015625 12.375 99 L 50.625 99 C 51.84375 99.015625 52.972656 98.378906 53.585938 97.328125 C 54.203125 96.273438 54.203125 94.976562 53.585938 93.921875 C 52.972656 92.871094 51.84375 92.234375 50.625 92.25 L 45 92.25 L 45 73.660156 C 45.050781 73.332031 45.050781 72.996094 45 72.667969 L 45 45 L 50.625 45 C 52.488281 45 54 43.488281 54 41.625 L 54 29.25 L 77.625 29.25 L 77.625 48.3125 L 60.476562 69.75 L 57.375 69.75 C 56.15625 69.734375 55.027344 70.371094 54.414062 71.421875 C 53.796875 72.476562 53.796875 73.773438 54.414062 74.828125 C 55.027344 75.878906 56.15625 76.515625 57.375 76.5 L 104.625 76.5 C 105.84375 76.515625 106.972656 75.878906 107.585938 74.828125 C 108.203125 73.773438 108.203125 72.476562 107.585938 71.421875 C 106.972656 70.371094 105.84375 69.734375 104.625 69.75 L 101.523438 69.75 L 84.375 48.3125 L 84.375 29.25 L 100.125 29.25 C 101.34375 29.265625 102.472656 28.628906 103.085938 27.578125 C 103.703125 26.523438 103.703125 25.226562 103.085938 24.171875 C 102.472656 23.121094 101.34375 22.484375 100.125 22.5 L 54 22.5 L 54 21.953125 C 54 20.824219 53.433594 19.765625 52.488281 19.140625 L 38.046875 9.5625 C 37.496094 9.195312 36.847656 9 36.183594 9 Z M 15.75 15.75 L 35.164062 15.75 L 47.25 23.765625 L 47.25 38.25 L 15.75 38.25 Z M 24.75 45 L 38.25 45 L 38.25 66.8125 L 24.75 57.8125 Z M 81 54.90625 L 92.875 69.75 L 69.125 69.75 Z M 24.75 65.9375 L 38.25 74.9375 L 38.25 92.25 L 24.75 92.25 Z M 24.75 65.9375 "/>
</g>
</svg>
