<?xml version="1.0" encoding="UTF-8"?>
<svg xmlns="http://www.w3.org/2000/svg" viewBox="0 0 108 108" version="1.1">
<g id="surface5953">
<path style=" stroke:none;fill-rule:nonzero;fill:rgb(9.019608%,9.019608%,9.411765%);fill-opacity:1;" d="M 63.457031 13.421875 C 63.261719 13.429688 63.066406 13.457031 62.875 13.5 L 44.914062 13.5 C 44.765625 13.476562 44.613281 13.460938 44.464844 13.457031 C 44.265625 13.453125 44.0625 13.46875 43.867188 13.5 L 33.617188 13.5 C 27.9375 13.5 22.621094 16.363281 19.503906 21.109375 C 19.503906 21.113281 19.503906 21.117188 19.503906 21.121094 L 5.054688 43.144531 C 4.203125 44.433594 4.339844 46.136719 5.378906 47.277344 L 51.503906 97.902344 C 51.519531 97.917969 51.539062 97.929688 51.554688 97.945312 C 52.203125 98.625 53.097656 99.007812 54.035156 98.996094 C 54.972656 98.988281 55.863281 98.59375 56.496094 97.902344 L 102.621094 47.277344 C 103.660156 46.136719 103.796875 44.433594 102.945312 43.144531 L 88.496094 21.121094 C 85.382812 16.367188 80.0625 13.5 74.382812 13.5 L 64.300781 13.5 C 64.023438 13.4375 63.742188 13.410156 63.457031 13.421875 Z M 33.617188 20.25 L 39.65625 20.25 L 32.660156 40.5 L 26.324219 40.5 C 25.105469 40.484375 23.972656 41.121094 23.359375 42.171875 C 22.746094 43.226562 22.746094 44.523438 23.359375 45.578125 C 23.972656 46.628906 25.105469 47.265625 26.324219 47.25 L 32.160156 47.25 L 44.632812 80.324219 L 12.128906 44.664062 L 25.144531 24.820312 C 27.019531 21.964844 30.203125 20.25 33.617188 20.25 Z M 46.800781 20.25 L 61.199219 20.25 L 68.195312 40.5 L 39.804688 40.5 Z M 68.34375 20.25 L 74.382812 20.25 C 77.796875 20.25 80.976562 21.964844 82.84375 24.820312 L 93.136719 40.5 L 75.339844 40.5 Z M 39.375 47.25 L 68.625 47.25 L 54 86.0625 Z M 75.839844 47.25 L 93.515625 47.25 L 63.367188 80.324219 Z M 75.839844 47.25 "/>
</g>
</svg>
