<?xml version="1.0" encoding="UTF-8"?>
<svg width="35" height="35" viewBox="0 0 35 35" fill="none" xmlns="http://www.w3.org/2000/svg">
<circle cx="17.5" cy="17.5" r="17" stroke="#17181C" stroke-opacity="0.16"/>
<circle cx="18" cy="18" r="8.5" stroke="#28304F"/>
<path d="M18.9492 12.0859V13.873H18.0703V12.0859H18.9492ZM18.8438 21.6543V23.2188H17.9707V21.6543H18.8438ZM20.0156 19.8027C20.0156 19.5684 19.9629 19.3574 19.8574 19.1699C19.752 18.9824 19.5781 18.8105 19.3359 18.6543C19.0938 18.498 18.7695 18.3535 18.3633 18.2207C17.8711 18.0684 17.4453 17.8828 17.0859 17.6641C16.7305 17.4453 16.4551 17.1738 16.2598 16.8496C16.0684 16.5254 15.9727 16.1328 15.9727 15.6719C15.9727 15.1914 16.0762 14.7773 16.2832 14.4297C16.4902 14.082 16.7832 13.8145 17.1621 13.627C17.541 13.4395 17.9863 13.3457 18.498 13.3457C18.8965 13.3457 19.252 13.4062 19.5645 13.5273C19.877 13.6445 20.1406 13.8203 20.3555 14.0547C20.5742 14.2891 20.7402 14.5762 20.8535 14.916C20.9707 15.2559 21.0293 15.6484 21.0293 16.0938H19.9512C19.9512 15.832 19.9199 15.5918 19.8574 15.373C19.7949 15.1543 19.7012 14.9648 19.5762 14.8047C19.4512 14.6406 19.2988 14.5156 19.1191 14.4297C18.9395 14.3398 18.7324 14.2949 18.498 14.2949C18.1699 14.2949 17.8984 14.3516 17.6836 14.4648C17.4727 14.5781 17.3164 14.7383 17.2148 14.9453C17.1133 15.1484 17.0625 15.3848 17.0625 15.6543C17.0625 15.9043 17.1133 16.123 17.2148 16.3105C17.3164 16.498 17.4883 16.668 17.7305 16.8203C17.9766 16.9688 18.3145 17.1152 18.7441 17.2598C19.248 17.4199 19.6758 17.6094 20.0273 17.8281C20.3789 18.043 20.6465 18.3086 20.8301 18.625C21.0137 18.9375 21.1055 19.3262 21.1055 19.791C21.1055 20.2949 20.9922 20.7207 20.7656 21.0684C20.5391 21.4121 20.2207 21.6738 19.8105 21.8535C19.4004 22.0332 18.9199 22.123 18.3691 22.123C18.0371 22.123 17.709 22.0781 17.3848 21.9883C17.0605 21.8984 16.7676 21.752 16.5059 21.5488C16.2441 21.3418 16.0352 21.0703 15.8789 20.7344C15.7227 20.3945 15.6445 19.9785 15.6445 19.4863H16.7344C16.7344 19.8184 16.7812 20.0938 16.875 20.3125C16.9727 20.5273 17.1016 20.6992 17.2617 20.8281C17.4219 20.9531 17.5977 21.043 17.7891 21.0977C17.9844 21.1484 18.1777 21.1738 18.3691 21.1738C18.7207 21.1738 19.0176 21.1191 19.2598 21.0098C19.5059 20.8965 19.6934 20.7363 19.8223 20.5293C19.9512 20.3223 20.0156 20.0801 20.0156 19.8027Z" fill="#28304F"/>
</svg>
