<svg width="20" height="20" viewBox="0 0 20 20" fill="none" xmlns="http://www.w3.org/2000/svg">
    <path d="M6.03743 8.23002C6.01369 7.9917 5.90798 7.76773 5.73714 7.59688C5.5663 7.42604 5.34233 7.32034 5.104 7.29659L5.00065 7.29171C4.72438 7.29171 4.45951 7.40153 4.26416 7.59688C4.06881 7.79223 3.95898 8.05711 3.95898 8.33337L3.96387 8.43673C3.98762 8.67505 4.09332 8.89902 4.26416 9.06986C4.45951 9.26522 4.72438 9.37504 5.00065 9.37504C5.27692 9.37504 5.54179 9.26522 5.73714 9.06986C5.93249 8.87451 6.04232 8.60964 6.04232 8.33337L6.03743 8.23002ZM11.0423 13.3334C11.0423 13.0571 10.9325 12.7922 10.7371 12.5969C10.5418 12.4015 10.2769 12.2917 10.0007 12.2917C9.72438 12.2917 9.45951 12.4015 9.26416 12.5969C9.06881 12.7922 8.95898 13.0571 8.95898 13.3334C8.95898 13.6096 9.06881 13.8745 9.26416 14.0699C9.45951 14.2652 9.72438 14.375 10.0007 14.375C10.2769 14.375 10.5418 14.2652 10.7371 14.0699C10.9325 13.8745 11.0423 13.6096 11.0423 13.3334ZM16.0423 5.83337C16.0423 5.55711 15.9325 5.29223 15.7371 5.09688C15.5663 4.92604 15.3423 4.82034 15.104 4.79659L15.0007 4.79171C14.7244 4.79171 14.4595 4.90153 14.2642 5.09688C14.0688 5.29223 13.959 5.55711 13.959 5.83337L13.9639 5.93673C13.9876 6.17505 14.0933 6.39902 14.2642 6.56986C14.4595 6.76522 14.7244 6.87504 15.0007 6.87504C15.2769 6.87504 15.5418 6.76522 15.7371 6.56986C15.9325 6.37451 16.0423 6.10964 16.0423 5.83337ZM12.2923 13.3334C12.2923 13.9412 12.0507 14.5239 11.6209 14.9537C11.3421 15.2325 10.9983 15.4297 10.6257 15.5355V16.6667C10.6257 17.0119 10.3458 17.2917 10.0007 17.2917C9.65547 17.2917 9.37565 17.0119 9.37565 16.6667V15.5355C9.00296 15.4297 8.65918 15.2325 8.38037 14.9537C7.9506 14.5239 7.70898 13.9412 7.70898 13.3334C7.70898 12.7256 7.9506 12.1429 8.38037 11.7131C8.65924 11.4342 9.00288 11.2362 9.37565 11.1304V3.33337C9.37565 2.9882 9.65547 2.70837 10.0007 2.70837C10.3458 2.70837 10.6257 2.9882 10.6257 3.33337V11.1304C10.9984 11.2362 11.3421 11.4342 11.6209 11.7131C12.0507 12.1429 12.2923 12.7256 12.2923 13.3334ZM7.28092 8.55961C7.22888 9.08432 6.99704 9.57755 6.62093 9.95365C6.34212 10.2325 5.99834 10.4297 5.62565 10.5355V16.6667C5.62565 17.0119 5.34583 17.2917 5.00065 17.2917C4.65547 17.2917 4.37565 17.0119 4.37565 16.6667V10.5355C4.00296 10.4297 3.65918 10.2325 3.38037 9.95365C3.00426 9.57755 2.77242 9.08432 2.72038 8.55961L2.70898 8.33337C2.70898 7.72559 2.9506 7.14286 3.38037 6.71309C3.65924 6.43423 4.00288 6.23618 4.37565 6.13041V3.33337C4.37565 2.9882 4.65547 2.70837 5.00065 2.70837C5.34583 2.70837 5.62565 2.9882 5.62565 3.33337V6.13041C5.99842 6.23618 6.34207 6.43423 6.62093 6.71309C7.0507 7.14286 7.29232 7.72559 7.29232 8.33337L7.28092 8.55961ZM17.2923 5.83337C17.2923 6.44116 17.0507 7.02388 16.6209 7.45365C16.3421 7.73246 15.9983 7.92974 15.6257 8.03552V16.6667C15.6257 17.0119 15.3458 17.2917 15.0007 17.2917C14.6555 17.2917 14.3757 17.0119 14.3757 16.6667V8.03552C14.003 7.92974 13.6592 7.73246 13.3804 7.45365C13.0043 7.07755 12.7724 6.58432 12.7204 6.05961L12.709 5.83337C12.709 5.22559 12.9506 4.64286 13.3804 4.21309C13.6592 3.93423 14.0029 3.73618 14.3757 3.63041V3.33337C14.3757 2.9882 14.6555 2.70837 15.0007 2.70837C15.3458 2.70837 15.6257 2.9882 15.6257 3.33337V3.63041C15.9984 3.73618 16.3421 3.93423 16.6209 4.21309C17.0507 4.64286 17.2923 5.22559 17.2923 5.83337Z" fill="#202020"/>
</svg>
