<svg viewBox="0 0 18 16" fill="none" xmlns="http://www.w3.org/2000/svg">
<path d="M4.81561 0.561677C5.55317 0.436009 6.30952 0.477463 7.02892 0.682986C7.74832 0.888508 8.41242 1.25286 8.97228 1.74918L9.00311 1.77668L9.03145 1.75168C9.56578 1.28276 10.194 0.933173 10.8741 0.726246C11.5542 0.519318 12.2707 0.459805 12.9756 0.551677L13.1806 0.581677C14.0692 0.735101 14.8998 1.12597 15.5843 1.7129C16.2689 2.29983 16.782 3.06096 17.0693 3.91571C17.3566 4.77045 17.4074 5.68698 17.2164 6.56824C17.0253 7.44949 16.5995 8.26268 15.9839 8.92168L15.8339 9.07584L15.7939 9.11001L9.58561 15.2592C9.44234 15.401 9.25253 15.486 9.05135 15.4986C8.85017 15.5112 8.65125 15.4504 8.49145 15.3275L8.41311 15.2592L2.16895 9.07418C1.50746 8.43056 1.03703 7.61641 0.809746 6.7219C0.582462 5.82739 0.607198 4.88742 0.881213 4.00611C1.15523 3.12479 1.66783 2.33651 2.36225 1.72857C3.05667 1.12063 3.9058 0.716757 4.81561 0.561677Z" fill="#FE8989"/>
</svg>
