<svg xmlns="http://www.w3.org/2000/svg" xmlns:xlink="http://www.w3.org/1999/xlink" width="20px" height="20px" viewBox="0 0 108 108" version="1.1">
<g id="surface6210">
<path style=" stroke:none;fill-rule:nonzero;fill:rgb(9.019608%,9.019608%,9.411765%);fill-opacity:1;" d="M 54.105469 9 C 53.46875 8.980469 52.835938 9.140625 52.285156 9.464844 L 9.535156 34.609375 C 7.929688 35.558594 7.394531 37.628906 8.339844 39.234375 C 9.289062 40.839844 11.355469 41.375 12.964844 40.429688 L 13.5 40.113281 L 13.5 91.125 C 13.5 92.988281 15.011719 94.5 16.875 94.5 L 91.125 94.5 C 92.988281 94.5 94.5 92.988281 94.5 91.125 L 94.5 40.113281 L 95.035156 40.429688 C 96.644531 41.375 98.710938 40.839844 99.660156 39.234375 C 100.605469 37.628906 100.070312 35.558594 98.464844 34.609375 L 55.714844 9.464844 C 55.226562 9.179688 54.671875 9.019531 54.105469 9 Z M 54 16.296875 L 87.75 36.140625 L 87.75 87.75 L 72 87.75 L 72 52.875 C 72 51.011719 70.488281 49.5 68.625 49.5 L 39.375 49.5 C 37.511719 49.5 36 51.011719 36 52.875 L 36 87.75 L 20.25 87.75 L 20.25 36.140625 Z M 42.75 56.25 L 65.25 56.25 L 65.25 87.75 L 42.75 87.75 Z M 42.75 56.25 "/>
</g>
</svg>
