<svg width="21" height="22" viewBox="0 0 21 22" fill="none" xmlns="http://www.w3.org/2000/svg">
<circle cx="10.5" cy="11" r="10.5" fill="black"/>
<path d="M11.915 8.5752V16.5H9.85693V8.5752H11.915ZM9.76172 6.51709C9.76172 6.19971 9.86182 5.93848 10.062 5.7334C10.2671 5.52832 10.543 5.42578 10.8896 5.42578C11.2314 5.42578 11.5024 5.52832 11.7026 5.7334C11.9028 5.93848 12.0029 6.19971 12.0029 6.51709C12.0029 6.83447 11.9028 7.09814 11.7026 7.30811C11.5024 7.51318 11.2314 7.61572 10.8896 7.61572C10.543 7.61572 10.2671 7.51318 10.062 7.30811C9.86182 7.09814 9.76172 6.83447 9.76172 6.51709Z" fill="white"/>
</svg>
