<?xml version="1.0" encoding="UTF-8"?>
<svg xmlns="http://www.w3.org/2000/svg" xmlns:xlink="http://www.w3.org/1999/xlink" width="108pt" height="108pt" viewBox="0 0 108 108" version="1.1">
<g id="surface5921">
<path style=" stroke:none;fill-rule:nonzero;fill:rgb(9.019608%,9.019608%,9.411765%);fill-opacity:1;" d="M 54 4.5 C 31.6875 4.5 13.5 22.6875 13.5 45 C 13.5 60.726562 23.4375 73.761719 32.863281 82.90625 C 42.285156 92.054688 51.714844 97.585938 51.714844 97.585938 C 53.125 98.417969 54.875 98.417969 56.285156 97.585938 C 56.285156 97.585938 65.714844 92.054688 75.136719 82.90625 C 84.5625 73.761719 94.5 60.726562 94.5 45 C 94.5 22.6875 76.3125 4.5 54 4.5 Z M 54 13.5 C 71.449219 13.5 85.5 27.550781 85.5 45 C 85.5 56.804688 77.4375 68.121094 68.863281 76.445312 C 61.429688 83.660156 55.847656 86.910156 54 88.046875 C 52.152344 86.910156 46.570312 83.660156 39.136719 76.445312 C 30.5625 68.121094 22.5 56.804688 22.5 45 C 22.5 27.550781 36.550781 13.5 54 13.5 Z M 54 27 C 48.375 27 43.582031 29.269531 40.507812 32.730469 C 37.433594 36.191406 36 40.625 36 45 C 36 49.375 37.433594 53.808594 40.507812 57.269531 C 43.582031 60.730469 48.375 63 54 63 C 59.625 63 64.417969 60.730469 67.492188 57.269531 C 70.566406 53.808594 72 49.375 72 45 C 72 40.625 70.566406 36.191406 67.492188 32.730469 C 64.417969 29.269531 59.625 27 54 27 Z M 54 36 C 57.375 36 59.332031 37.105469 60.757812 38.707031 C 62.183594 40.308594 63 42.625 63 45 C 63 47.375 62.183594 49.691406 60.757812 51.292969 C 59.332031 52.894531 57.375 54 54 54 C 50.625 54 48.667969 52.894531 47.242188 51.292969 C 45.816406 49.691406 45 47.375 45 45 C 45 42.625 45.816406 40.308594 47.242188 38.707031 C 48.667969 37.105469 50.625 36 54 36 Z M 54 36 "/>
</g>
</svg>
