<svg viewBox="0 0 118 48" fill="none" xmlns="http://www.w3.org/2000/svg">
<g clip-path="url(#clip0_4386_369)">
<path d="M0.5 47.8722H7.21173V45.9457H2.50148V44.0117H6.83175V42.089H2.50148V40.1512H7.21173V38.2285H0.5V47.8722Z" fill="#28304F"/>
<path d="M11.7188 40.3469C12.0461 40.1512 12.5163 40.0496 13.1145 40.0496C13.6224 40.0496 14.0739 40.1512 14.4576 40.3469C14.8188 40.5313 15.0596 40.7909 15.195 41.1446L15.2853 41.3741H17.3432L17.2228 40.9188C16.9896 40.0271 16.493 39.3234 15.7481 38.8305C15.0182 38.3452 14.1529 38.1006 13.1785 38.1006C12.4411 38.1006 11.7752 38.2135 11.1996 38.4392C10.6052 38.6687 10.1349 38.9999 9.80005 39.425C9.45017 39.8615 9.27334 40.377 9.27334 40.9527C9.27334 41.7052 9.56679 42.3448 10.1499 42.849C10.6992 43.3269 11.5194 43.6693 12.5916 43.8574L13.5547 44.0343C14.2244 44.1697 14.7022 44.3315 14.973 44.5196C15.1913 44.6702 15.2853 44.8395 15.2853 45.069C15.2853 45.3361 15.1386 45.5468 14.8263 45.7312C14.4614 45.9457 13.961 46.0548 13.344 46.0548C12.727 46.0548 12.1928 45.9382 11.8241 45.7049C11.4667 45.4791 11.1921 45.1066 11.0115 44.6024L10.9249 44.3616H8.96484L9.03633 44.7868C9.20562 45.7989 9.68718 46.6004 10.4735 47.1685C11.241 47.7254 12.1928 48.0076 13.3026 48.0076C14.0588 48.0076 14.7436 47.8872 15.3342 47.6502C15.9437 47.4056 16.429 47.0594 16.7751 46.623C17.1363 46.1677 17.3206 45.6372 17.3206 45.0464C17.3206 44.26 17.0272 43.6053 16.4441 43.1011C15.8948 42.627 15.0408 42.2884 13.9121 42.1003L12.9452 41.9347C12.3282 41.8256 11.8768 41.6789 11.6097 41.5058C11.4027 41.3703 11.3087 41.2161 11.3087 41.0091C11.3087 40.7269 11.4328 40.5275 11.7112 40.3582L11.7188 40.3469Z" fill="#28304F"/>
<path d="M26.7528 38.2285H18.3857V40.1776H21.5685V47.8722H23.57V40.1776H26.7528V38.2285Z" fill="#28304F"/>
<path d="M30.6693 38.2285L26.3428 47.8722H28.5324L29.4127 45.8328H33.7467L34.6271 47.8722H36.8919L32.5654 38.2285H30.6693ZM30.2366 43.9364L31.591 40.821L32.9379 43.9364H30.2366Z" fill="#28304F"/>
<path d="M36.3535 40.1776H39.5363V47.8722H41.5378V40.1776H44.7206V38.2285H36.3535V40.1776Z" fill="#28304F"/>
<path d="M53.3551 40.1512V38.2285H46.6396V47.8722H53.3551V45.9457H48.6411V44.0117H52.9714V42.089H48.6411V40.1512H53.3551Z" fill="#28304F"/>
<path d="M4.38257 13.5117H0.5V33.623H4.38257V13.5117Z" fill="#28304F"/>
<path d="M21.9295 33.623L11.6776 19.5357V33.623H7.84766V13.5117H12.0651L21.9633 27.2341V13.5117H25.7933V33.623H21.9295Z" fill="#28304F"/>
<path d="M37.8137 33.8945C35.4962 33.8945 33.5098 33.3075 31.9109 32.1449C30.2818 30.9672 29.2811 29.3041 28.9312 27.2083L28.8184 26.5235H32.6332L32.7724 26.911C33.175 28.0248 33.7807 28.8413 34.5745 29.3455C35.3834 29.8572 36.5007 30.1206 37.8965 30.1206C39.2923 30.1206 40.3344 29.8798 41.1395 29.4057C42.0913 28.845 42.2004 28.2468 42.2004 27.8442C42.2004 27.2986 41.9634 26.8809 41.4555 26.531C41.0454 26.2488 40.1764 25.8349 38.3743 25.4737L36.3277 25.0974C34.0854 24.7024 32.3736 23.9987 31.2337 23.0016C30.0411 21.9594 29.4354 20.65 29.4354 19.1111C29.4354 17.9334 29.7965 16.8836 30.5113 15.9843C31.2036 15.1114 32.178 14.4266 33.4082 13.9487C34.6084 13.4822 36.0004 13.2451 37.5429 13.2451C39.582 13.2451 41.384 13.7568 42.9002 14.7652C44.4427 15.7887 45.4698 17.2448 45.9551 19.096L46.1507 19.8335H42.144L41.9973 19.461C41.685 18.6596 41.1583 18.0952 40.3419 17.6737C39.503 17.241 38.5135 17.0228 37.4074 17.0228C36.0982 17.0228 35.0673 17.2448 34.345 17.6813C33.6979 18.0726 33.4007 18.5617 33.4007 19.2202C33.4007 19.5363 33.4759 20.0066 34.123 20.4318C34.5256 20.6989 35.357 21.0752 37.0237 21.3724L39.0741 21.7223C41.4405 22.1174 43.22 22.8173 44.3637 23.8031C45.5563 24.8378 46.162 26.1773 46.162 27.7915C46.162 29.0031 45.7858 30.0942 45.0484 31.0236C44.3298 31.9304 43.3253 32.6453 42.0612 33.1532C40.8235 33.6462 39.3938 33.8982 37.8137 33.8982V33.8945Z" fill="#28304F"/>
<path d="M49.5098 33.6229V24.5625L51.451 25.6762L53.3923 24.5625V33.6229H49.5098Z" fill="#28304F"/>
<path d="M66.316 33.8942C64.4499 33.8942 62.7231 33.4352 61.1768 32.5284C59.6306 31.6216 58.4003 30.3648 57.5125 28.7921C56.6284 27.223 56.1807 25.4659 56.1807 23.5658C56.1807 21.6656 56.6396 19.9085 57.5426 18.3357C58.4455 16.7667 59.6983 15.5099 61.2596 14.6031C62.8209 13.6963 64.5778 13.2373 66.4777 13.2373C68.4792 13.2373 70.3152 13.7904 71.9329 14.8778C73.5506 15.969 74.732 17.4552 75.4393 19.2914L75.7478 20.0928H71.4702L71.3009 19.7993C70.7967 18.9339 70.1195 18.2454 69.2881 17.7487C68.4642 17.2558 67.5199 17.0075 66.4815 17.0075C65.3152 17.0075 64.2468 17.2972 63.2987 17.8691C62.3469 18.4448 61.5869 19.2387 61.0339 20.2321C60.4808 21.2292 60.2024 22.3467 60.2024 23.5582C60.2024 24.7698 60.4771 25.8873 61.0226 26.8882C61.5643 27.8815 62.313 28.6754 63.246 29.2511C64.1753 29.8193 65.2174 30.109 66.3461 30.109C67.8735 30.109 69.1602 29.6763 70.1722 28.8259C70.8682 28.239 71.4137 27.5466 71.7899 26.7602L71.9931 26.3388H65.4582V22.7003H76.1541V33.6158H72.5424V31.4711L72.0608 31.8737C71.6018 32.2575 71.0977 32.5961 70.5597 32.8858C69.3144 33.5518 67.8886 33.8904 66.3197 33.8904L66.316 33.8942Z" fill="#28304F"/>
<path d="M93.0048 33.623V25.4543H83.3699V33.623H79.4873V13.5117H83.3699V21.6804H93.0048V13.5117H96.8874V33.623H93.0048Z" fill="#28304F"/>
<path d="M106.856 33.623V17.2894H100.096V13.5117H117.5V17.2894H110.739V33.623H106.856Z" fill="#28304F"/>
<path d="M51.5036 0H51.3983C50.9543 5.84714 46.3005 10.5053 40.4541 10.9455V11.0509C46.3005 11.4949 50.9581 16.1493 51.3983 21.9964H51.5036C51.9476 16.1493 56.6014 11.4911 62.4478 11.0509V10.9455C56.6014 10.5015 51.9438 5.84714 51.5036 0Z" fill="#04B0BE"/>
</g>
<defs>
<clipPath id="clip0_4386_369">
<rect width="117" height="48" fill="white" transform="translate(0.5)"/>
</clipPath>
</defs>
</svg>
