<svg width="177" height="42" viewBox="0 0 107 32" fill="none" xmlns="http://www.w3.org/2000/svg">
    <path fill-rule="evenodd" clip-rule="evenodd" d="M0 32H32V0H0V32ZM30 23.7588V30H8.66667V20.6711L30 23.7588ZM30 22.2802V14.7044L15.3333 10V18.8792L30 22.2802ZM30 12.6795V2H2V11.4091L14.6667 7.66667L30 12.6795Z" fill="#202020"/>
    <path d="M96.4263 30.6217L97.5886 29.4491C97.7463 29.6617 97.9486 29.8468 98.1954 30.0045C98.4491 30.1622 98.72 30.2822 99.008 30.3645C99.296 30.4468 99.5806 30.488 99.8617 30.488C100.157 30.488 100.403 30.4605 100.602 30.4057C100.808 30.344 100.962 30.2617 101.065 30.1588C101.168 30.0491 101.219 29.9222 101.219 29.7782C101.219 29.5725 101.106 29.4011 100.88 29.264C100.654 29.12 100.232 29.0034 99.6148 28.9142C98.9566 28.8182 98.4148 28.6742 97.9897 28.4822C97.5646 28.2834 97.2491 28.0365 97.0434 27.7417C96.8377 27.44 96.7348 27.0868 96.7348 26.6822C96.7348 26.2228 96.8651 25.8148 97.1257 25.4582C97.3863 25.1017 97.7428 24.824 98.1954 24.6251C98.6548 24.4194 99.176 24.3165 99.7588 24.3165C100.451 24.3165 101.065 24.4434 101.6 24.6971C102.142 24.9508 102.591 25.28 102.947 25.6845L101.795 26.8571C101.562 26.5348 101.261 26.2811 100.89 26.096C100.527 25.9108 100.157 25.8182 99.7794 25.8182C99.4091 25.8182 99.1074 25.8868 98.8743 26.024C98.6411 26.1611 98.5246 26.3394 98.5246 26.5588C98.5246 26.6822 98.5691 26.7885 98.6583 26.8777C98.7543 26.9668 98.9188 27.0457 99.152 27.1142C99.3851 27.176 99.7074 27.2411 100.119 27.3097C100.757 27.4057 101.288 27.5565 101.713 27.7622C102.145 27.968 102.467 28.2285 102.68 28.544C102.899 28.8594 103.009 29.2331 103.009 29.6651C103.009 30.1451 102.872 30.56 102.598 30.9097C102.323 31.2594 101.946 31.5302 101.466 31.7222C100.993 31.9074 100.445 32 99.8206 32C99.08 32 98.4183 31.8731 97.8354 31.6194C97.2594 31.3588 96.7897 31.0262 96.4263 30.6217Z" fill="#202020"/>
    <path d="M95.6973 31.8354H90.3281V24.4811H95.6973V25.9519H92.0973V30.3645H95.6973V31.8354ZM95.5018 28.8731H91.9944V27.4022H95.5018V28.8731Z" fill="#202020"/>
    <path d="M89.0538 31.8354H87.2847V24.4811H89.0538V31.8354Z" fill="#202020"/>
    <path d="M84.1256 31.8354H82.3564V25.8697H84.1256V31.8354ZM86.337 25.9725H80.145V24.4811H86.337V25.9725Z" fill="#202020"/>
    <path d="M75.4332 31.8354H73.6641V24.4811H76.7395C77.2881 24.4811 77.7715 24.5805 78.1898 24.7794C78.6081 24.9782 78.9338 25.2559 79.1669 25.6125C79.4001 25.9622 79.5166 26.3737 79.5166 26.8468C79.5166 27.3131 79.4001 27.7245 79.1669 28.0811C78.9338 28.4377 78.6081 28.7154 78.1898 28.9142C77.7715 29.1131 77.2881 29.2125 76.7395 29.2125H75.3303V27.7417H76.7395C77.0412 27.7417 77.2812 27.6628 77.4595 27.5051C77.6378 27.3405 77.7269 27.1211 77.7269 26.8468C77.7269 26.5725 77.6378 26.3565 77.4595 26.1988C77.2812 26.0342 77.0412 25.9519 76.7395 25.9519H75.4332V31.8354ZM80.2983 31.8354H78.1589L75.7006 28.4102H77.7166L80.2983 31.8354Z" fill="#202020"/>
    <path d="M72.5645 31.8354H67.1953V24.4811H72.5645V25.9519H68.9645V30.3645H72.5645V31.8354ZM72.369 28.8731H68.8616V27.4022H72.369V28.8731Z" fill="#202020"/>
    <path d="M62.1139 31.8354H60.3447V24.4811H63.4202C63.9687 24.4811 64.4522 24.5805 64.8704 24.7794C65.2887 24.9782 65.6144 25.2559 65.8476 25.6125C66.0807 25.9622 66.1973 26.3737 66.1973 26.8468C66.1973 27.3131 66.0807 27.7245 65.8476 28.0811C65.6144 28.4377 65.2887 28.7154 64.8704 28.9142C64.4522 29.1131 63.9687 29.2125 63.4202 29.2125H62.011V27.7417H63.4202C63.7219 27.7417 63.9619 27.6628 64.1402 27.5051C64.3184 27.3405 64.4076 27.1211 64.4076 26.8468C64.4076 26.5725 64.3184 26.3565 64.1402 26.1988C63.9619 26.0342 63.7219 25.9519 63.4202 25.9519H62.1139V31.8354Z" fill="#202020"/>
    <path d="M55.2218 32C54.639 32 54.1041 31.904 53.6173 31.712C53.1304 31.52 52.7053 31.2525 52.3418 30.9097C51.9853 30.5668 51.7076 30.1622 51.5087 29.696C51.3167 29.2228 51.2207 28.7085 51.2207 28.1531C51.2207 27.5977 51.3167 27.0868 51.5087 26.6205C51.7076 26.1542 51.9853 25.7497 52.3418 25.4068C52.7053 25.064 53.1304 24.7965 53.6173 24.6045C54.1041 24.4125 54.639 24.3165 55.2218 24.3165C55.8047 24.3165 56.3396 24.4125 56.8264 24.6045C57.3133 24.7965 57.735 25.064 58.0916 25.4068C58.455 25.7497 58.7327 26.1542 58.9247 26.6205C59.1236 27.0868 59.223 27.5977 59.223 28.1531C59.223 28.7085 59.1236 29.2228 58.9247 29.696C58.7327 30.1622 58.455 30.5668 58.0916 30.9097C57.735 31.2525 57.3133 31.52 56.8264 31.712C56.3396 31.904 55.8047 32 55.2218 32ZM55.2218 30.4468C55.647 30.4468 56.0173 30.3508 56.3327 30.1588C56.655 29.96 56.9053 29.6891 57.0836 29.3462C57.2687 28.9965 57.3613 28.5988 57.3613 28.1531C57.3613 27.7074 57.2687 27.3131 57.0836 26.9702C56.9053 26.6274 56.655 26.36 56.3327 26.168C56.0173 25.9691 55.647 25.8697 55.2218 25.8697C54.8036 25.8697 54.4333 25.9691 54.111 26.168C53.7887 26.36 53.535 26.6274 53.3498 26.9702C53.1716 27.3131 53.0824 27.7074 53.0824 28.1531C53.0824 28.5988 53.1716 28.9965 53.3498 29.3462C53.535 29.6891 53.7887 29.96 54.111 30.1588C54.4333 30.3508 54.8036 30.4468 55.2218 30.4468Z" fill="#202020"/>
    <path d="M46.3336 31.8354H44.5645V24.4811H47.6399C48.1885 24.4811 48.6719 24.5805 49.0902 24.7794C49.5085 24.9782 49.8342 25.2559 50.0673 25.6125C50.3005 25.9622 50.417 26.3737 50.417 26.8468C50.417 27.3131 50.3005 27.7245 50.0673 28.0811C49.8342 28.4377 49.5085 28.7154 49.0902 28.9142C48.6719 29.1131 48.1885 29.2125 47.6399 29.2125H46.2307V27.7417H47.6399C47.9416 27.7417 48.1816 27.6628 48.3599 27.5051C48.5382 27.3405 48.6273 27.1211 48.6273 26.8468C48.6273 26.5725 48.5382 26.3565 48.3599 26.1988C48.1816 26.0342 47.9416 25.9519 47.6399 25.9519H46.3336V31.8354ZM51.1987 31.8354H49.0593L46.601 28.4102H48.617L51.1987 31.8354Z" fill="#202020"/>
    <path d="M39.4835 31.8354H37.7144V24.4811H40.7898C41.3384 24.4811 41.8218 24.5805 42.2401 24.7794C42.6584 24.9782 42.9841 25.2559 43.2172 25.6125C43.4504 25.9622 43.5669 26.3737 43.5669 26.8468C43.5669 27.3131 43.4504 27.7245 43.2172 28.0811C42.9841 28.4377 42.6584 28.7154 42.2401 28.9142C41.8218 29.1131 41.3384 29.2125 40.7898 29.2125H39.3806V27.7417H40.7898C41.0915 27.7417 41.3315 27.6628 41.5098 27.5051C41.6881 27.3405 41.7772 27.1211 41.7772 26.8468C41.7772 26.5725 41.6881 26.3565 41.5098 26.1988C41.3315 26.0342 41.0915 25.9519 40.7898 25.9519H39.4835V31.8354Z" fill="#202020"/>
    <path d="M78.5367 19.264H76.7676V11.9097H81.931V13.3805H78.5367V19.264ZM81.7356 16.3017H78.4339V14.8308H81.7356V16.3017Z" fill="#202020"/>
    <path d="M71.6447 19.4285C71.0618 19.4285 70.527 19.3325 70.0401 19.1405C69.5533 18.9485 69.1281 18.6811 68.7647 18.3383C68.4081 17.9954 68.1304 17.5908 67.9316 17.1245C67.7396 16.6514 67.6436 16.1371 67.6436 15.5817C67.6436 15.0263 67.7396 14.5154 67.9316 14.0491C68.1304 13.5828 68.4081 13.1783 68.7647 12.8354C69.1281 12.4925 69.5533 12.2251 70.0401 12.0331C70.527 11.8411 71.0618 11.7451 71.6447 11.7451C72.2276 11.7451 72.7624 11.8411 73.2493 12.0331C73.7361 12.2251 74.1578 12.4925 74.5144 12.8354C74.8778 13.1783 75.1556 13.5828 75.3476 14.0491C75.5464 14.5154 75.6458 15.0263 75.6458 15.5817C75.6458 16.1371 75.5464 16.6514 75.3476 17.1245C75.1556 17.5908 74.8778 17.9954 74.5144 18.3383C74.1578 18.6811 73.7361 18.9485 73.2493 19.1405C72.7624 19.3325 72.2276 19.4285 71.6447 19.4285ZM71.6447 17.8754C72.0698 17.8754 72.4401 17.7794 72.7556 17.5874C73.0778 17.3885 73.3281 17.1177 73.5064 16.7748C73.6916 16.4251 73.7841 16.0274 73.7841 15.5817C73.7841 15.136 73.6916 14.7417 73.5064 14.3988C73.3281 14.056 73.0778 13.7885 72.7556 13.5965C72.4401 13.3977 72.0698 13.2983 71.6447 13.2983C71.2264 13.2983 70.8561 13.3977 70.5338 13.5965C70.2116 13.7885 69.9578 14.056 69.7727 14.3988C69.5944 14.7417 69.5053 15.136 69.5053 15.5817C69.5053 16.0274 69.5944 16.4251 69.7727 16.7748C69.9578 17.1177 70.2116 17.3885 70.5338 17.5874C70.8561 17.7794 71.2264 17.8754 71.6447 17.8754Z" fill="#202020"/>
    <path d="M58.106 18.0503L59.2682 16.8777C59.426 17.0903 59.6282 17.2754 59.8751 17.4331C60.1288 17.5908 60.3997 17.7108 60.6877 17.7931C60.9757 17.8754 61.2602 17.9165 61.5414 17.9165C61.8362 17.9165 62.0831 17.8891 62.282 17.8343C62.4877 17.7725 62.642 17.6903 62.7448 17.5874C62.8477 17.4777 62.8991 17.3508 62.8991 17.2068C62.8991 17.0011 62.786 16.8297 62.5597 16.6925C62.3334 16.5485 61.9117 16.432 61.2945 16.3428C60.6362 16.2468 60.0945 16.1028 59.6694 15.9108C59.2442 15.712 58.9288 15.4651 58.7231 15.1703C58.5174 14.8685 58.4145 14.5154 58.4145 14.1108C58.4145 13.6514 58.5448 13.2434 58.8054 12.8868C59.066 12.5303 59.4225 12.2525 59.8751 12.0537C60.3345 11.848 60.8557 11.7451 61.4385 11.7451C62.1311 11.7451 62.7448 11.872 63.2797 12.1257C63.8214 12.3794 64.2705 12.7085 64.6271 13.1131L63.4751 14.2857C63.242 13.9634 62.9402 13.7097 62.57 13.5245C62.2065 13.3394 61.8362 13.2468 61.4591 13.2468C61.0888 13.2468 60.7871 13.3154 60.554 13.4525C60.3208 13.5897 60.2042 13.768 60.2042 13.9874C60.2042 14.1108 60.2488 14.2171 60.338 14.3063C60.434 14.3954 60.5985 14.4743 60.8317 14.5428C61.0648 14.6045 61.3871 14.6697 61.7985 14.7383C62.4362 14.8343 62.9677 14.9851 63.3928 15.1908C63.8248 15.3965 64.1471 15.6571 64.3597 15.9725C64.5791 16.288 64.6888 16.6617 64.6888 17.0937C64.6888 17.5737 64.5517 17.9885 64.2774 18.3383C64.0031 18.688 63.626 18.9588 63.146 19.1508C62.6728 19.336 62.1242 19.4285 61.5002 19.4285C60.7597 19.4285 60.098 19.3017 59.5151 19.048C58.9391 18.7874 58.4694 18.4548 58.106 18.0503Z" fill="#202020"/>
    <path d="M55.5187 19.264H53.7495V13.2982H55.5187V19.264ZM57.7301 13.4011H51.5381V11.9097H57.7301V13.4011Z" fill="#202020"/>
    <path d="M47.1559 19.4285C46.5731 19.4285 46.0382 19.3325 45.5514 19.1405C45.0645 18.9485 44.6394 18.6811 44.2759 18.3383C43.9194 17.9954 43.6416 17.5908 43.4428 17.1245C43.2508 16.6514 43.1548 16.1371 43.1548 15.5817C43.1548 15.0263 43.2508 14.5154 43.4428 14.0491C43.6416 13.5828 43.9194 13.1783 44.2759 12.8354C44.6394 12.4925 45.0645 12.2251 45.5514 12.0331C46.0382 11.8411 46.5731 11.7451 47.1559 11.7451C47.7388 11.7451 48.2736 11.8411 48.7605 12.0331C49.2474 12.2251 49.6691 12.4925 50.0256 12.8354C50.3891 13.1783 50.6668 13.5828 50.8588 14.0491C51.0576 14.5154 51.1571 15.0263 51.1571 15.5817C51.1571 16.1371 51.0576 16.6514 50.8588 17.1245C50.6668 17.5908 50.3891 17.9954 50.0256 18.3383C49.6691 18.6811 49.2474 18.9485 48.7605 19.1405C48.2736 19.3325 47.7388 19.4285 47.1559 19.4285ZM47.1559 17.8754C47.5811 17.8754 47.9514 17.7794 48.2668 17.5874C48.5891 17.3885 48.8394 17.1177 49.0176 16.7748C49.2028 16.4251 49.2954 16.0274 49.2954 15.5817C49.2954 15.136 49.2028 14.7417 49.0176 14.3988C48.8394 14.056 48.5891 13.7885 48.2668 13.5965C47.9514 13.3977 47.5811 13.2983 47.1559 13.2983C46.7376 13.2983 46.3674 13.3977 46.0451 13.5965C45.7228 13.7885 45.4691 14.056 45.2839 14.3988C45.1056 14.7417 45.0165 15.136 45.0165 15.5817C45.0165 16.0274 45.1056 16.4251 45.2839 16.7748C45.4691 17.1177 45.7228 17.3885 46.0451 17.5874C46.3674 17.7794 46.7376 17.8754 47.1559 17.8754Z" fill="#202020"/>
    <path d="M42.7749 19.264H37.7144V11.9097H39.4835V17.752H42.7749V19.264Z" fill="#202020"/>
</svg>
