<?xml version="1.0" encoding="UTF-8"?>
<svg xmlns="http://www.w3.org/2000/svg" viewBox="0 0 108 108" version="1.1">
<g id="surface7976">
<path style=" stroke:none;fill-rule:nonzero;fill:rgb(9.019608%,9.019608%,9.411765%);fill-opacity:1;" d="M 18 18 C 13.070312 18 9 22.070312 9 27 L 9 76.5 C 9 79.339844 10.53125 81.59375 12.621094 83.25 L 3.375 83.25 C 2.15625 83.234375 1.027344 83.871094 0.414062 84.921875 C -0.203125 85.976562 -0.203125 87.273438 0.414062 88.328125 C 1.027344 89.378906 2.15625 90.015625 3.375 90 L 104.625 90 C 105.84375 90.015625 106.972656 89.378906 107.585938 88.328125 C 108.203125 87.273438 108.203125 85.976562 107.585938 84.921875 C 106.972656 83.871094 105.84375 83.234375 104.625 83.25 L 95.378906 83.25 C 97.46875 81.59375 99 79.339844 99 76.5 L 99 27 C 99 22.070312 94.929688 18 90 18 Z M 18 24.75 L 90 24.75 C 91.277344 24.75 92.25 25.722656 92.25 27 L 92.25 76.5 C 92.25 77.777344 91.277344 78.75 90 78.75 L 18 78.75 C 16.722656 78.75 15.75 77.777344 15.75 76.5 L 15.75 27 C 15.75 25.722656 16.722656 24.75 18 24.75 Z M 77.554688 35.964844 C 76.679688 35.992188 75.847656 36.355469 75.234375 36.984375 L 58.5 53.71875 L 47.390625 42.609375 C 46.757812 41.972656 45.898438 41.617188 45 41.617188 C 44.101562 41.617188 43.242188 41.972656 42.609375 42.609375 L 27.984375 57.234375 C 26.664062 58.554688 26.664062 60.695312 27.984375 62.015625 C 29.304688 63.335938 31.445312 63.335938 32.765625 62.015625 L 45 49.78125 L 56.109375 60.890625 C 56.742188 61.527344 57.601562 61.882812 58.5 61.882812 C 59.398438 61.882812 60.257812 61.527344 60.890625 60.890625 L 80.015625 41.765625 C 81.019531 40.796875 81.324219 39.304688 80.777344 38.019531 C 80.230469 36.734375 78.949219 35.917969 77.554688 35.964844 Z M 77.554688 35.964844 "/>
</g>
</svg>
