<svg width="20" height="20" viewBox="0 0 20 20" fill="none" xmlns="http://www.w3.org/2000/svg">
    <path d="M10.0013 1.66663C11.0957 1.66663 12.1795 1.88179 13.1906 2.30058C14.2016 2.71937 15.1202 3.33342 15.894 4.10722C16.6678 4.88102 17.2819 5.79966 17.7007 6.81067C18.1195 7.82172 18.3346 8.90561 18.3346 9.99996C18.3346 11.0943 18.1195 12.1782 17.7007 13.1892C17.2819 14.2003 16.6678 15.1189 15.894 15.8927C15.1202 16.6665 14.2016 17.2806 13.1906 17.6993C12.1795 18.1181 11.0957 18.3333 10.0013 18.3333C8.90695 18.3333 7.82306 18.1181 6.81201 17.6993C5.801 17.2806 4.88236 16.6665 4.10856 15.8927C3.33476 15.1189 2.72071 14.2003 2.30192 13.1892C1.88313 12.1782 1.66797 11.0943 1.66797 9.99996C1.66797 8.90561 1.88313 7.82172 2.30192 6.81067C2.72071 5.79966 3.33476 4.88102 4.10856 4.10722C4.88236 3.33342 5.801 2.71937 6.81201 2.30058C7.82306 1.88179 8.90695 1.66663 10.0013 1.66663ZM10.0013 13.3333C9.54107 13.3333 9.16797 13.7064 9.16797 14.1666V14.1748C9.16797 14.635 9.54107 15.0081 10.0013 15.0081C10.4615 15.0081 10.8346 14.635 10.8346 14.1748V14.1666C10.8346 13.7064 10.4615 13.3333 10.0013 13.3333ZM10.0688 4.97636C9.60465 4.97513 9.1462 5.08137 8.73014 5.28723C8.31406 5.49315 7.95118 5.79304 7.67057 6.16288C7.39254 6.5295 7.46436 7.05253 7.83089 7.33069C8.1975 7.60883 8.72049 7.5369 8.9987 7.17037C9.12331 7.00617 9.28436 6.87286 9.46908 6.78137C9.65399 6.68988 9.85847 6.64248 10.0648 6.64303C10.271 6.64365 10.4745 6.69217 10.6589 6.78463C10.8432 6.87715 11.0038 7.01107 11.1276 7.17607C11.2514 7.34116 11.3354 7.53297 11.3726 7.73596C11.4097 7.93893 11.3989 8.14806 11.3416 8.34631C11.2844 8.54446 11.1817 8.72668 11.0422 8.87854C10.9374 8.99243 10.814 9.08727 10.6776 9.15849L10.5368 9.22196C10.12 9.37371 9.7617 9.65421 9.51546 10.0236C9.26509 10.3992 9.14406 10.8464 9.1696 11.2972C9.1957 11.7566 9.58911 12.1084 10.0485 12.0825C10.508 12.0564 10.859 11.6622 10.833 11.2028C10.8279 11.1127 10.853 11.0231 10.903 10.948C10.9531 10.8731 11.0263 10.816 11.1113 10.7861C11.1183 10.7836 11.1256 10.7814 11.1325 10.7788C11.5661 10.6129 11.9552 10.3482 12.2694 10.0065C12.5835 9.66467 12.8144 9.25457 12.9432 8.80855C13.072 8.36247 13.0952 7.89236 13.0116 7.43567C12.9279 6.97902 12.7391 6.54814 12.4606 6.17672C12.182 5.80526 11.8209 5.50278 11.4059 5.29456C10.991 5.08645 10.533 4.97765 10.0688 4.97636Z" fill="#202020" fill-opacity="0.44"/>
</svg>
