<?xml version="1.0" encoding="UTF-8"?>
<svg xmlns="http://www.w3.org/2000/svg" xmlns:xlink="http://www.w3.org/1999/xlink" width="108pt" height="108pt" viewBox="0 0 108 108" version="1.1">
<g id="surface7524">
<path style=" stroke:none;fill-rule:nonzero;fill:rgb(9.019608%,9.019608%,9.411765%);fill-opacity:1;" d="M 3.375 13.5 C 2.15625 13.484375 1.027344 14.121094 0.414062 15.171875 C -0.203125 16.226562 -0.203125 17.523438 0.414062 18.578125 C 1.027344 19.628906 2.15625 20.265625 3.375 20.25 L 5.828125 20.25 C 7.429688 20.25 8.777344 21.332031 9.125 22.90625 L 19.742188 71.28125 C 20.980469 76.9375 26.03125 81 31.824219 81 L 86.625 81 C 87.84375 81.015625 88.972656 80.378906 89.585938 79.328125 C 90.203125 78.273438 90.203125 76.976562 89.585938 75.921875 C 88.972656 74.871094 87.84375 74.234375 86.625 74.25 L 31.824219 74.25 C 29.167969 74.25 26.902344 72.425781 26.332031 69.828125 L 25.820312 67.5 L 83.820312 67.5 C 89.65625 67.5 94.730469 63.378906 95.933594 57.671875 L 103.429688 22.070312 C 103.640625 21.074219 103.386719 20.039062 102.746094 19.246094 C 102.105469 18.457031 101.140625 18 100.125 18 L 14.210938 18 C 12.371094 15.265625 9.265625 13.5 5.828125 13.5 Z M 16.4375 24.75 L 95.96875 24.75 L 89.324219 56.285156 C 88.769531 58.90625 86.5 60.75 83.820312 60.75 L 24.335938 60.75 Z M 38.25 85.5 C 34.523438 85.5 31.5 88.523438 31.5 92.25 C 31.5 95.976562 34.523438 99 38.25 99 C 41.976562 99 45 95.976562 45 92.25 C 45 88.523438 41.976562 85.5 38.25 85.5 Z M 78.75 85.5 C 75.023438 85.5 72 88.523438 72 92.25 C 72 95.976562 75.023438 99 78.75 99 C 82.476562 99 85.5 95.976562 85.5 92.25 C 85.5 88.523438 82.476562 85.5 78.75 85.5 Z M 78.75 85.5 "/>
</g>
</svg>
