<?xml version="1.0" encoding="UTF-8"?>
<svg xmlns="http://www.w3.org/2000/svg" xmlns:xlink="http://www.w3.org/1999/xlink" viewBox="0 0 75 75" version="1.1">
<g id="surface2319">
<path style=" stroke:none;fill-rule:nonzero;fill:rgb(9.019608%,9.019608%,9.411765%);fill-opacity:1;" d="M 37.5 3 C 56.554688 3 72 18.445312 72 37.5 C 72 56.554688 56.554688 72 37.5 72 C 18.445312 72 3 56.554688 3 37.5 C 3 18.445312 18.445312 3 37.5 3 Z M 49.402344 51.5625 C 50.035156 49.617188 53.007812 30.210938 53.375 26.386719 C 53.488281 25.230469 53.121094 24.460938 52.402344 24.117188 C 51.535156 23.699219 50.253906 23.910156 48.761719 24.445312 C 46.71875 25.183594 20.601562 36.273438 19.09375 36.914062 C 17.664062 37.519531 16.308594 38.183594 16.308594 39.144531 C 16.308594 39.820312 16.710938 40.199219 17.8125 40.59375 C 18.964844 41.003906 21.855469 41.878906 23.566406 42.351562 C 25.210938 42.804688 27.085938 42.410156 28.132812 41.757812 C 29.246094 41.066406 42.089844 32.472656 43.015625 31.71875 C 43.933594 30.964844 44.671875 31.929688 43.917969 32.683594 C 43.164062 33.4375 34.347656 41.996094 33.183594 43.179688 C 31.773438 44.617188 32.773438 46.109375 33.722656 46.707031 C 34.804688 47.386719 42.582031 52.605469 43.753906 53.441406 C 44.921875 54.277344 46.113281 54.660156 47.199219 54.660156 C 48.285156 54.660156 48.859375 53.226562 49.402344 51.5625 Z M 49.402344 51.5625 "/>
</g>
</svg>
