<?xml version="1.0" encoding="UTF-8"?>
<svg xmlns="http://www.w3.org/2000/svg" xmlns:xlink="http://www.w3.org/1999/xlink" width="108pt" height="108pt" viewBox="0 0 108 108" version="1.1">
<g id="surface8050">
<path style=" stroke:none;fill-rule:nonzero;fill:rgb(9.019608%,9.019608%,9.411765%);fill-opacity:1;" d="M 47.09375 22.515625 C 43.308594 22.515625 40.164062 24.429688 38.59375 26.816406 C 37.023438 29.203125 36.515625 31.664062 35.84375 33.722656 C 35.167969 35.785156 34.449219 37.347656 33.3125 38.382812 C 32.171875 39.417969 30.433594 40.273438 26.59375 40.273438 C 23.4375 40.273438 22.546875 39.144531 20.804688 37.152344 C 19.933594 36.152344 18.992188 34.933594 17.585938 33.804688 C 16.179688 32.671875 14.132812 31.726562 11.828125 31.726562 C 11.828125 31.726562 9.425781 32.734375 9.386719 32.773438 C 9.347656 32.816406 9.296875 32.871094 9.238281 32.933594 C 9.121094 33.058594 8.957031 33.230469 8.773438 33.453125 C 8.398438 33.890625 7.902344 34.519531 7.328125 35.351562 C 6.1875 37.007812 4.757812 39.460938 3.460938 42.765625 C 0.875 49.382812 -1.136719 59.414062 0.730469 73.140625 C 1.371094 77.863281 4.53125 82.070312 9.226562 83.628906 C 17.984375 86.519531 25.050781 85.832031 30.320312 84.402344 C 35.59375 82.96875 39.421875 81.226562 40.4375 81.226562 C 49.074219 81.226562 62.617188 85.9375 77.265625 85.9375 C 95.632812 85.9375 108 75.191406 108 63.253906 C 108 60.78125 107.109375 58.429688 105.636719 56.707031 C 104.164062 54.984375 102.269531 53.839844 100.210938 52.910156 C 96.101562 51.054688 91.109375 49.976562 85.765625 48.488281 C 85.429688 48.398438 85.085938 48.269531 84.753906 48.171875 C 84.472656 48.039062 84.171875 47.945312 83.867188 47.890625 C 80.664062 46.957031 77.414062 45.921875 74.222656 44.515625 C 74.121094 44.46875 74.015625 44.421875 73.90625 44.382812 C 67.085938 41.324219 60.636719 36.746094 55.941406 28.855469 C 55.113281 27.464844 54.207031 26.019531 52.804688 24.757812 C 51.402344 23.496094 49.339844 22.515625 47.09375 22.515625 Z M 47.09375 29.265625 C 47.675781 29.265625 47.804688 29.335938 48.289062 29.769531 C 48.769531 30.203125 49.421875 31.101562 50.140625 32.308594 C 52.394531 36.09375 55.023438 39.203125 57.859375 41.835938 L 52.242188 46.546875 C 51.296875 47.316406 50.835938 48.535156 51.042969 49.738281 C 51.25 50.9375 52.085938 51.9375 53.234375 52.34375 C 54.382812 52.753906 55.664062 52.515625 56.585938 51.714844 L 63.289062 46.097656 C 64.804688 47.121094 66.339844 48.042969 67.894531 48.867188 L 63.632812 55.503906 C 62.941406 56.515625 62.859375 57.828125 63.410156 58.921875 C 63.964844 60.015625 65.066406 60.726562 66.292969 60.773438 C 67.519531 60.820312 68.675781 60.199219 69.3125 59.148438 L 74.074219 51.722656 C 75.726562 52.378906 77.359375 52.96875 78.96875 53.492188 L 76.675781 60.363281 C 76.253906 61.515625 76.492188 62.808594 77.296875 63.734375 C 78.101562 64.660156 79.347656 65.078125 80.546875 64.824219 C 81.746094 64.566406 82.714844 63.679688 83.074219 62.507812 L 85.457031 55.40625 C 90.328125 56.734375 94.683594 57.820312 97.4375 59.0625 C 98.960938 59.75 99.96875 60.46875 100.503906 61.09375 C 101.035156 61.714844 101.25 62.199219 101.25 63.253906 C 101.25 70.320312 93.050781 79.1875 77.265625 79.1875 C 64.144531 79.1875 51.253906 74.476562 40.4375 74.476562 C 36.089844 74.476562 32.957031 76.691406 28.554688 77.890625 C 24.15625 79.085938 18.828125 79.6875 11.355469 77.21875 C 9.296875 76.539062 7.730469 74.542969 7.417969 72.226562 C 5.695312 59.566406 7.5625 50.808594 9.746094 45.226562 C 10.839844 42.4375 12.019531 40.441406 12.894531 39.171875 C 13.332031 38.539062 13.6875 38.09375 13.921875 37.820312 C 14.039062 37.679688 14.121094 37.578125 14.167969 37.53125 C 14.1875 37.507812 14.199219 37.507812 14.203125 37.503906 C 14.910156 37.503906 12.769531 38.59375 13.359375 39.066406 C 13.949219 39.542969 14.726562 40.457031 15.722656 41.597656 C 17.71875 43.878906 21.191406 47.023438 26.59375 47.023438 C 31.566406 47.023438 35.332031 45.667969 37.855469 43.375 C 40.375 41.078125 41.476562 38.203125 42.257812 35.824219 C 43.039062 33.445312 43.617188 31.464844 44.234375 30.523438 C 44.855469 29.582031 45.011719 29.265625 47.09375 29.265625 Z M 47.09375 29.265625 "/>
</g>
</svg>
